<?xml version="1.0" encoding="utf-8" standalone="no"?>
<!DOCTYPE svg PUBLIC "-//W3C//DTD SVG 1.1//EN"
  "http://www.w3.org/Graphics/SVG/1.1/DTD/svg11.dtd">
<svg xmlns:xlink="http://www.w3.org/1999/xlink" width="684pt" height="331.2pt" viewBox="0 0 684 331.2" xmlns="http://www.w3.org/2000/svg" version="1.1">
 <metadata>
  <rdf:RDF xmlns:dc="http://purl.org/dc/elements/1.1/" xmlns:cc="http://creativecommons.org/ns#" xmlns:rdf="http://www.w3.org/1999/02/22-rdf-syntax-ns#">
   <cc:Work>
    <dc:type rdf:resource="http://purl.org/dc/dcmitype/StillImage"/>
    <dc:date>2026-07-07T06:06:42.565909</dc:date>
    <dc:format>image/svg+xml</dc:format>
    <dc:creator>
     <cc:Agent>
      <dc:title>Matplotlib v3.10.9, https://matplotlib.org/</dc:title>
     </cc:Agent>
    </dc:creator>
   </cc:Work>
  </rdf:RDF>
 </metadata>
 <defs>
  <style type="text/css">*{stroke-linejoin: round; stroke-linecap: butt}</style>
 </defs>
 <g id="figure_1">
  <g id="patch_1">
   <path d="M 0 331.2 
L 684 331.2 
L 684 0 
L 0 0 
z
" style="fill: #ffffff"/>
  </g>
  <g id="axes_1">
   <g id="patch_2">
    <path d="M 44.57 283.768 
L 673.2 283.768 
L 673.2 48.14925 
L 44.57 48.14925 
z
" style="fill: #ffffff"/>
   </g>
   <g id="matplotlib.axis_1">
    <g id="xtick_1">
     <g id="line2d_1">
      <defs>
       <path id="mb3a12c6437" d="M 0 0 
L 0 3.5 
" style="stroke: #000000; stroke-width: 0.8"/>
      </defs>
      <g>
       <use xlink:href="#mb3a12c6437" x="91.837421" y="283.768" style="stroke: #000000; stroke-width: 0.8"/>
      </g>
     </g>
     <g id="text_1">
      <!-- M1 -->
      <g transform="translate(85.841171 296.84675) scale(0.08 -0.08)">
       <defs>
        <path id="DejaVuSans-4d" d="M 628 4666 
L 1569 4666 
L 2759 1491 
L 3956 4666 
L 4897 4666 
L 4897 0 
L 4281 0 
L 4281 4097 
L 3078 897 
L 2444 897 
L 1241 4097 
L 1241 0 
L 628 0 
L 628 4666 
z
" transform="scale(0.015625)"/>
        <path id="DejaVuSans-31" d="M 794 531 
L 1825 531 
L 1825 4091 
L 703 3866 
L 703 4441 
L 1819 4666 
L 2450 4666 
L 2450 531 
L 3481 531 
L 3481 0 
L 794 0 
L 794 531 
z
" transform="scale(0.015625)"/>
       </defs>
       <use xlink:href="#DejaVuSans-4d"/>
       <use xlink:href="#DejaVuSans-31" transform="translate(86.279297 0)"/>
      </g>
      <!-- low -->
      <g transform="translate(85.007421 305.805) scale(0.08 -0.08)">
       <defs>
        <path id="DejaVuSans-6c" d="M 603 4863 
L 1178 4863 
L 1178 0 
L 603 0 
L 603 4863 
z
" transform="scale(0.015625)"/>
        <path id="DejaVuSans-6f" d="M 1959 3097 
Q 1497 3097 1228 2736 
Q 959 2375 959 1747 
Q 959 1119 1226 758 
Q 1494 397 1959 397 
Q 2419 397 2687 759 
Q 2956 1122 2956 1747 
Q 2956 2369 2687 2733 
Q 2419 3097 1959 3097 
z
M 1959 3584 
Q 2709 3584 3137 3096 
Q 3566 2609 3566 1747 
Q 3566 888 3137 398 
Q 2709 -91 1959 -91 
Q 1206 -91 779 398 
Q 353 888 353 1747 
Q 353 2609 779 3096 
Q 1206 3584 1959 3584 
z
" transform="scale(0.015625)"/>
        <path id="DejaVuSans-77" d="M 269 3500 
L 844 3500 
L 1563 769 
L 2278 3500 
L 2956 3500 
L 3675 769 
L 4391 3500 
L 4966 3500 
L 4050 0 
L 3372 0 
L 2619 2869 
L 1863 0 
L 1184 0 
L 269 3500 
z
" transform="scale(0.015625)"/>
       </defs>
       <use xlink:href="#DejaVuSans-6c"/>
       <use xlink:href="#DejaVuSans-6f" transform="translate(27.783203 0)"/>
       <use xlink:href="#DejaVuSans-77" transform="translate(88.964844 0)"/>
      </g>
     </g>
    </g>
    <g id="xtick_2">
     <g id="line2d_2">
      <g>
       <use xlink:href="#mb3a12c6437" x="140.391527" y="283.768" style="stroke: #000000; stroke-width: 0.8"/>
      </g>
     </g>
     <g id="text_2">
      <!-- M1 -->
      <g transform="translate(134.395277 296.84675) scale(0.08 -0.08)">
       <use xlink:href="#DejaVuSans-4d"/>
       <use xlink:href="#DejaVuSans-31" transform="translate(86.279297 0)"/>
      </g>
      <!-- medium -->
      <g transform="translate(123.952152 305.805) scale(0.08 -0.08)">
       <defs>
        <path id="DejaVuSans-6d" d="M 3328 2828 
Q 3544 3216 3844 3400 
Q 4144 3584 4550 3584 
Q 5097 3584 5394 3201 
Q 5691 2819 5691 2113 
L 5691 0 
L 5113 0 
L 5113 2094 
Q 5113 2597 4934 2840 
Q 4756 3084 4391 3084 
Q 3944 3084 3684 2787 
Q 3425 2491 3425 1978 
L 3425 0 
L 2847 0 
L 2847 2094 
Q 2847 2600 2669 2842 
Q 2491 3084 2119 3084 
Q 1678 3084 1418 2786 
Q 1159 2488 1159 1978 
L 1159 0 
L 581 0 
L 581 3500 
L 1159 3500 
L 1159 2956 
Q 1356 3278 1631 3431 
Q 1906 3584 2284 3584 
Q 2666 3584 2933 3390 
Q 3200 3197 3328 2828 
z
" transform="scale(0.015625)"/>
        <path id="DejaVuSans-65" d="M 3597 1894 
L 3597 1613 
L 953 1613 
Q 991 1019 1311 708 
Q 1631 397 2203 397 
Q 2534 397 2845 478 
Q 3156 559 3463 722 
L 3463 178 
Q 3153 47 2828 -22 
Q 2503 -91 2169 -91 
Q 1331 -91 842 396 
Q 353 884 353 1716 
Q 353 2575 817 3079 
Q 1281 3584 2069 3584 
Q 2775 3584 3186 3129 
Q 3597 2675 3597 1894 
z
M 3022 2063 
Q 3016 2534 2758 2815 
Q 2500 3097 2075 3097 
Q 1594 3097 1305 2825 
Q 1016 2553 972 2059 
L 3022 2063 
z
" transform="scale(0.015625)"/>
        <path id="DejaVuSans-64" d="M 2906 2969 
L 2906 4863 
L 3481 4863 
L 3481 0 
L 2906 0 
L 2906 525 
Q 2725 213 2448 61 
Q 2172 -91 1784 -91 
Q 1150 -91 751 415 
Q 353 922 353 1747 
Q 353 2572 751 3078 
Q 1150 3584 1784 3584 
Q 2172 3584 2448 3432 
Q 2725 3281 2906 2969 
z
M 947 1747 
Q 947 1113 1208 752 
Q 1469 391 1925 391 
Q 2381 391 2643 752 
Q 2906 1113 2906 1747 
Q 2906 2381 2643 2742 
Q 2381 3103 1925 3103 
Q 1469 3103 1208 2742 
Q 947 2381 947 1747 
z
" transform="scale(0.015625)"/>
        <path id="DejaVuSans-69" d="M 603 3500 
L 1178 3500 
L 1178 0 
L 603 0 
L 603 3500 
z
M 603 4863 
L 1178 4863 
L 1178 4134 
L 603 4134 
L 603 4863 
z
" transform="scale(0.015625)"/>
        <path id="DejaVuSans-75" d="M 544 1381 
L 544 3500 
L 1119 3500 
L 1119 1403 
Q 1119 906 1312 657 
Q 1506 409 1894 409 
Q 2359 409 2629 706 
Q 2900 1003 2900 1516 
L 2900 3500 
L 3475 3500 
L 3475 0 
L 2900 0 
L 2900 538 
Q 2691 219 2414 64 
Q 2138 -91 1772 -91 
Q 1169 -91 856 284 
Q 544 659 544 1381 
z
M 1991 3584 
L 1991 3584 
z
" transform="scale(0.015625)"/>
       </defs>
       <use xlink:href="#DejaVuSans-6d"/>
       <use xlink:href="#DejaVuSans-65" transform="translate(97.412109 0)"/>
       <use xlink:href="#DejaVuSans-64" transform="translate(158.935547 0)"/>
       <use xlink:href="#DejaVuSans-69" transform="translate(222.412109 0)"/>
       <use xlink:href="#DejaVuSans-75" transform="translate(250.195312 0)"/>
       <use xlink:href="#DejaVuSans-6d" transform="translate(313.574219 0)"/>
      </g>
     </g>
    </g>
    <g id="xtick_3">
     <g id="line2d_3">
      <g>
       <use xlink:href="#mb3a12c6437" x="188.945632" y="283.768" style="stroke: #000000; stroke-width: 0.8"/>
      </g>
     </g>
     <g id="text_3">
      <!-- M1 -->
      <g transform="translate(182.949382 296.84675) scale(0.08 -0.08)">
       <use xlink:href="#DejaVuSans-4d"/>
       <use xlink:href="#DejaVuSans-31" transform="translate(86.279297 0)"/>
      </g>
      <!-- high -->
      <g transform="translate(180.225007 305.805) scale(0.08 -0.08)">
       <defs>
        <path id="DejaVuSans-68" d="M 3513 2113 
L 3513 0 
L 2938 0 
L 2938 2094 
Q 2938 2591 2744 2837 
Q 2550 3084 2163 3084 
Q 1697 3084 1428 2787 
Q 1159 2491 1159 1978 
L 1159 0 
L 581 0 
L 581 4863 
L 1159 4863 
L 1159 2956 
Q 1366 3272 1645 3428 
Q 1925 3584 2291 3584 
Q 2894 3584 3203 3211 
Q 3513 2838 3513 2113 
z
" transform="scale(0.015625)"/>
        <path id="DejaVuSans-67" d="M 2906 1791 
Q 2906 2416 2648 2759 
Q 2391 3103 1925 3103 
Q 1463 3103 1205 2759 
Q 947 2416 947 1791 
Q 947 1169 1205 825 
Q 1463 481 1925 481 
Q 2391 481 2648 825 
Q 2906 1169 2906 1791 
z
M 3481 434 
Q 3481 -459 3084 -895 
Q 2688 -1331 1869 -1331 
Q 1566 -1331 1297 -1286 
Q 1028 -1241 775 -1147 
L 775 -588 
Q 1028 -725 1275 -790 
Q 1522 -856 1778 -856 
Q 2344 -856 2625 -561 
Q 2906 -266 2906 331 
L 2906 616 
Q 2728 306 2450 153 
Q 2172 0 1784 0 
Q 1141 0 747 490 
Q 353 981 353 1791 
Q 353 2603 747 3093 
Q 1141 3584 1784 3584 
Q 2172 3584 2450 3431 
Q 2728 3278 2906 2969 
L 2906 3500 
L 3481 3500 
L 3481 434 
z
" transform="scale(0.015625)"/>
       </defs>
       <use xlink:href="#DejaVuSans-68"/>
       <use xlink:href="#DejaVuSans-69" transform="translate(63.378906 0)"/>
       <use xlink:href="#DejaVuSans-67" transform="translate(91.162109 0)"/>
       <use xlink:href="#DejaVuSans-68" transform="translate(154.638672 0)"/>
      </g>
     </g>
    </g>
    <g id="xtick_4">
     <g id="line2d_4">
      <g>
       <use xlink:href="#mb3a12c6437" x="237.499737" y="283.768" style="stroke: #000000; stroke-width: 0.8"/>
      </g>
     </g>
     <g id="text_4">
      <!-- M2 -->
      <g transform="translate(231.503487 296.84675) scale(0.08 -0.08)">
       <defs>
        <path id="DejaVuSans-32" d="M 1228 531 
L 3431 531 
L 3431 0 
L 469 0 
L 469 531 
Q 828 903 1448 1529 
Q 2069 2156 2228 2338 
Q 2531 2678 2651 2914 
Q 2772 3150 2772 3378 
Q 2772 3750 2511 3984 
Q 2250 4219 1831 4219 
Q 1534 4219 1204 4116 
Q 875 4013 500 3803 
L 500 4441 
Q 881 4594 1212 4672 
Q 1544 4750 1819 4750 
Q 2544 4750 2975 4387 
Q 3406 4025 3406 3419 
Q 3406 3131 3298 2873 
Q 3191 2616 2906 2266 
Q 2828 2175 2409 1742 
Q 1991 1309 1228 531 
z
" transform="scale(0.015625)"/>
       </defs>
       <use xlink:href="#DejaVuSans-4d"/>
       <use xlink:href="#DejaVuSans-32" transform="translate(86.279297 0)"/>
      </g>
      <!-- low -->
      <g transform="translate(230.669737 305.805) scale(0.08 -0.08)">
       <use xlink:href="#DejaVuSans-6c"/>
       <use xlink:href="#DejaVuSans-6f" transform="translate(27.783203 0)"/>
       <use xlink:href="#DejaVuSans-77" transform="translate(88.964844 0)"/>
      </g>
     </g>
    </g>
    <g id="xtick_5">
     <g id="line2d_5">
      <g>
       <use xlink:href="#mb3a12c6437" x="286.053842" y="283.768" style="stroke: #000000; stroke-width: 0.8"/>
      </g>
     </g>
     <g id="text_5">
      <!-- M2 -->
      <g transform="translate(280.057592 296.84675) scale(0.08 -0.08)">
       <use xlink:href="#DejaVuSans-4d"/>
       <use xlink:href="#DejaVuSans-32" transform="translate(86.279297 0)"/>
      </g>
      <!-- medium -->
      <g transform="translate(269.614467 305.805) scale(0.08 -0.08)">
       <use xlink:href="#DejaVuSans-6d"/>
       <use xlink:href="#DejaVuSans-65" transform="translate(97.412109 0)"/>
       <use xlink:href="#DejaVuSans-64" transform="translate(158.935547 0)"/>
       <use xlink:href="#DejaVuSans-69" transform="translate(222.412109 0)"/>
       <use xlink:href="#DejaVuSans-75" transform="translate(250.195312 0)"/>
       <use xlink:href="#DejaVuSans-6d" transform="translate(313.574219 0)"/>
      </g>
     </g>
    </g>
    <g id="xtick_6">
     <g id="line2d_6">
      <g>
       <use xlink:href="#mb3a12c6437" x="334.607947" y="283.768" style="stroke: #000000; stroke-width: 0.8"/>
      </g>
     </g>
     <g id="text_6">
      <!-- M2 -->
      <g transform="translate(328.611697 296.84675) scale(0.08 -0.08)">
       <use xlink:href="#DejaVuSans-4d"/>
       <use xlink:href="#DejaVuSans-32" transform="translate(86.279297 0)"/>
      </g>
      <!-- high -->
      <g transform="translate(325.887322 305.805) scale(0.08 -0.08)">
       <use xlink:href="#DejaVuSans-68"/>
       <use xlink:href="#DejaVuSans-69" transform="translate(63.378906 0)"/>
       <use xlink:href="#DejaVuSans-67" transform="translate(91.162109 0)"/>
       <use xlink:href="#DejaVuSans-68" transform="translate(154.638672 0)"/>
      </g>
     </g>
    </g>
    <g id="xtick_7">
     <g id="line2d_7">
      <g>
       <use xlink:href="#mb3a12c6437" x="383.162053" y="283.768" style="stroke: #000000; stroke-width: 0.8"/>
      </g>
     </g>
     <g id="text_7">
      <!-- M3 -->
      <g transform="translate(377.165803 296.84675) scale(0.08 -0.08)">
       <defs>
        <path id="DejaVuSans-33" d="M 2597 2516 
Q 3050 2419 3304 2112 
Q 3559 1806 3559 1356 
Q 3559 666 3084 287 
Q 2609 -91 1734 -91 
Q 1441 -91 1130 -33 
Q 819 25 488 141 
L 488 750 
Q 750 597 1062 519 
Q 1375 441 1716 441 
Q 2309 441 2620 675 
Q 2931 909 2931 1356 
Q 2931 1769 2642 2001 
Q 2353 2234 1838 2234 
L 1294 2234 
L 1294 2753 
L 1863 2753 
Q 2328 2753 2575 2939 
Q 2822 3125 2822 3475 
Q 2822 3834 2567 4026 
Q 2313 4219 1838 4219 
Q 1578 4219 1281 4162 
Q 984 4106 628 3988 
L 628 4550 
Q 988 4650 1302 4700 
Q 1616 4750 1894 4750 
Q 2613 4750 3031 4423 
Q 3450 4097 3450 3541 
Q 3450 3153 3228 2886 
Q 3006 2619 2597 2516 
z
" transform="scale(0.015625)"/>
       </defs>
       <use xlink:href="#DejaVuSans-4d"/>
       <use xlink:href="#DejaVuSans-33" transform="translate(86.279297 0)"/>
      </g>
      <!-- low -->
      <g transform="translate(376.332053 305.805) scale(0.08 -0.08)">
       <use xlink:href="#DejaVuSans-6c"/>
       <use xlink:href="#DejaVuSans-6f" transform="translate(27.783203 0)"/>
       <use xlink:href="#DejaVuSans-77" transform="translate(88.964844 0)"/>
      </g>
     </g>
    </g>
    <g id="xtick_8">
     <g id="line2d_8">
      <g>
       <use xlink:href="#mb3a12c6437" x="431.716158" y="283.768" style="stroke: #000000; stroke-width: 0.8"/>
      </g>
     </g>
     <g id="text_8">
      <!-- M3 -->
      <g transform="translate(425.719908 296.84675) scale(0.08 -0.08)">
       <use xlink:href="#DejaVuSans-4d"/>
       <use xlink:href="#DejaVuSans-33" transform="translate(86.279297 0)"/>
      </g>
      <!-- medium -->
      <g transform="translate(415.276783 305.805) scale(0.08 -0.08)">
       <use xlink:href="#DejaVuSans-6d"/>
       <use xlink:href="#DejaVuSans-65" transform="translate(97.412109 0)"/>
       <use xlink:href="#DejaVuSans-64" transform="translate(158.935547 0)"/>
       <use xlink:href="#DejaVuSans-69" transform="translate(222.412109 0)"/>
       <use xlink:href="#DejaVuSans-75" transform="translate(250.195312 0)"/>
       <use xlink:href="#DejaVuSans-6d" transform="translate(313.574219 0)"/>
      </g>
     </g>
    </g>
    <g id="xtick_9">
     <g id="line2d_9">
      <g>
       <use xlink:href="#mb3a12c6437" x="480.270263" y="283.768" style="stroke: #000000; stroke-width: 0.8"/>
      </g>
     </g>
     <g id="text_9">
      <!-- M3 -->
      <g transform="translate(474.274013 296.84675) scale(0.08 -0.08)">
       <use xlink:href="#DejaVuSans-4d"/>
       <use xlink:href="#DejaVuSans-33" transform="translate(86.279297 0)"/>
      </g>
      <!-- high -->
      <g transform="translate(471.549638 305.805) scale(0.08 -0.08)">
       <use xlink:href="#DejaVuSans-68"/>
       <use xlink:href="#DejaVuSans-69" transform="translate(63.378906 0)"/>
       <use xlink:href="#DejaVuSans-67" transform="translate(91.162109 0)"/>
       <use xlink:href="#DejaVuSans-68" transform="translate(154.638672 0)"/>
      </g>
     </g>
    </g>
    <g id="xtick_10">
     <g id="line2d_10">
      <g>
       <use xlink:href="#mb3a12c6437" x="528.824368" y="283.768" style="stroke: #000000; stroke-width: 0.8"/>
      </g>
     </g>
     <g id="text_10">
      <!-- M4 -->
      <g transform="translate(522.828118 296.84675) scale(0.08 -0.08)">
       <defs>
        <path id="DejaVuSans-34" d="M 2419 4116 
L 825 1625 
L 2419 1625 
L 2419 4116 
z
M 2253 4666 
L 3047 4666 
L 3047 1625 
L 3713 1625 
L 3713 1100 
L 3047 1100 
L 3047 0 
L 2419 0 
L 2419 1100 
L 313 1100 
L 313 1709 
L 2253 4666 
z
" transform="scale(0.015625)"/>
       </defs>
       <use xlink:href="#DejaVuSans-4d"/>
       <use xlink:href="#DejaVuSans-34" transform="translate(86.279297 0)"/>
      </g>
      <!-- low -->
      <g transform="translate(521.994368 305.805) scale(0.08 -0.08)">
       <use xlink:href="#DejaVuSans-6c"/>
       <use xlink:href="#DejaVuSans-6f" transform="translate(27.783203 0)"/>
       <use xlink:href="#DejaVuSans-77" transform="translate(88.964844 0)"/>
      </g>
     </g>
    </g>
    <g id="xtick_11">
     <g id="line2d_11">
      <g>
       <use xlink:href="#mb3a12c6437" x="577.378473" y="283.768" style="stroke: #000000; stroke-width: 0.8"/>
      </g>
     </g>
     <g id="text_11">
      <!-- M4 -->
      <g transform="translate(571.382223 296.84675) scale(0.08 -0.08)">
       <use xlink:href="#DejaVuSans-4d"/>
       <use xlink:href="#DejaVuSans-34" transform="translate(86.279297 0)"/>
      </g>
      <!-- medium -->
      <g transform="translate(560.939098 305.805) scale(0.08 -0.08)">
       <use xlink:href="#DejaVuSans-6d"/>
       <use xlink:href="#DejaVuSans-65" transform="translate(97.412109 0)"/>
       <use xlink:href="#DejaVuSans-64" transform="translate(158.935547 0)"/>
       <use xlink:href="#DejaVuSans-69" transform="translate(222.412109 0)"/>
       <use xlink:href="#DejaVuSans-75" transform="translate(250.195312 0)"/>
       <use xlink:href="#DejaVuSans-6d" transform="translate(313.574219 0)"/>
      </g>
     </g>
    </g>
    <g id="xtick_12">
     <g id="line2d_12">
      <g>
       <use xlink:href="#mb3a12c6437" x="625.932579" y="283.768" style="stroke: #000000; stroke-width: 0.8"/>
      </g>
     </g>
     <g id="text_12">
      <!-- M4 -->
      <g transform="translate(619.936329 296.84675) scale(0.08 -0.08)">
       <use xlink:href="#DejaVuSans-4d"/>
       <use xlink:href="#DejaVuSans-34" transform="translate(86.279297 0)"/>
      </g>
      <!-- high -->
      <g transform="translate(617.211954 305.805) scale(0.08 -0.08)">
       <use xlink:href="#DejaVuSans-68"/>
       <use xlink:href="#DejaVuSans-69" transform="translate(63.378906 0)"/>
       <use xlink:href="#DejaVuSans-67" transform="translate(91.162109 0)"/>
       <use xlink:href="#DejaVuSans-68" transform="translate(154.638672 0)"/>
      </g>
     </g>
    </g>
    <g id="text_13">
     <!-- Skenario × tier densitas objek -->
     <g transform="translate(283.519375 319.067187) scale(0.1 -0.1)">
      <defs>
       <path id="DejaVuSans-53" d="M 3425 4513 
L 3425 3897 
Q 3066 4069 2747 4153 
Q 2428 4238 2131 4238 
Q 1616 4238 1336 4038 
Q 1056 3838 1056 3469 
Q 1056 3159 1242 3001 
Q 1428 2844 1947 2747 
L 2328 2669 
Q 3034 2534 3370 2195 
Q 3706 1856 3706 1288 
Q 3706 609 3251 259 
Q 2797 -91 1919 -91 
Q 1588 -91 1214 -16 
Q 841 59 441 206 
L 441 856 
Q 825 641 1194 531 
Q 1563 422 1919 422 
Q 2459 422 2753 634 
Q 3047 847 3047 1241 
Q 3047 1584 2836 1778 
Q 2625 1972 2144 2069 
L 1759 2144 
Q 1053 2284 737 2584 
Q 422 2884 422 3419 
Q 422 4038 858 4394 
Q 1294 4750 2059 4750 
Q 2388 4750 2728 4690 
Q 3069 4631 3425 4513 
z
" transform="scale(0.015625)"/>
       <path id="DejaVuSans-6b" d="M 581 4863 
L 1159 4863 
L 1159 1991 
L 2875 3500 
L 3609 3500 
L 1753 1863 
L 3688 0 
L 2938 0 
L 1159 1709 
L 1159 0 
L 581 0 
L 581 4863 
z
" transform="scale(0.015625)"/>
       <path id="DejaVuSans-6e" d="M 3513 2113 
L 3513 0 
L 2938 0 
L 2938 2094 
Q 2938 2591 2744 2837 
Q 2550 3084 2163 3084 
Q 1697 3084 1428 2787 
Q 1159 2491 1159 1978 
L 1159 0 
L 581 0 
L 581 3500 
L 1159 3500 
L 1159 2956 
Q 1366 3272 1645 3428 
Q 1925 3584 2291 3584 
Q 2894 3584 3203 3211 
Q 3513 2838 3513 2113 
z
" transform="scale(0.015625)"/>
       <path id="DejaVuSans-61" d="M 2194 1759 
Q 1497 1759 1228 1600 
Q 959 1441 959 1056 
Q 959 750 1161 570 
Q 1363 391 1709 391 
Q 2188 391 2477 730 
Q 2766 1069 2766 1631 
L 2766 1759 
L 2194 1759 
z
M 3341 1997 
L 3341 0 
L 2766 0 
L 2766 531 
Q 2569 213 2275 61 
Q 1981 -91 1556 -91 
Q 1019 -91 701 211 
Q 384 513 384 1019 
Q 384 1609 779 1909 
Q 1175 2209 1959 2209 
L 2766 2209 
L 2766 2266 
Q 2766 2663 2505 2880 
Q 2244 3097 1772 3097 
Q 1472 3097 1187 3025 
Q 903 2953 641 2809 
L 641 3341 
Q 956 3463 1253 3523 
Q 1550 3584 1831 3584 
Q 2591 3584 2966 3190 
Q 3341 2797 3341 1997 
z
" transform="scale(0.015625)"/>
       <path id="DejaVuSans-72" d="M 2631 2963 
Q 2534 3019 2420 3045 
Q 2306 3072 2169 3072 
Q 1681 3072 1420 2755 
Q 1159 2438 1159 1844 
L 1159 0 
L 581 0 
L 581 3500 
L 1159 3500 
L 1159 2956 
Q 1341 3275 1631 3429 
Q 1922 3584 2338 3584 
Q 2397 3584 2469 3576 
Q 2541 3569 2628 3553 
L 2631 2963 
z
" transform="scale(0.015625)"/>
       <path id="DejaVuSans-20" transform="scale(0.015625)"/>
       <path id="DejaVuSans-d7" d="M 4488 3438 
L 3059 2003 
L 4488 575 
L 4116 197 
L 2681 1631 
L 1247 197 
L 878 575 
L 2303 2003 
L 878 3438 
L 1247 3816 
L 2681 2381 
L 4116 3816 
L 4488 3438 
z
" transform="scale(0.015625)"/>
       <path id="DejaVuSans-74" d="M 1172 4494 
L 1172 3500 
L 2356 3500 
L 2356 3053 
L 1172 3053 
L 1172 1153 
Q 1172 725 1289 603 
Q 1406 481 1766 481 
L 2356 481 
L 2356 0 
L 1766 0 
Q 1100 0 847 248 
Q 594 497 594 1153 
L 594 3053 
L 172 3053 
L 172 3500 
L 594 3500 
L 594 4494 
L 1172 4494 
z
" transform="scale(0.015625)"/>
       <path id="DejaVuSans-73" d="M 2834 3397 
L 2834 2853 
Q 2591 2978 2328 3040 
Q 2066 3103 1784 3103 
Q 1356 3103 1142 2972 
Q 928 2841 928 2578 
Q 928 2378 1081 2264 
Q 1234 2150 1697 2047 
L 1894 2003 
Q 2506 1872 2764 1633 
Q 3022 1394 3022 966 
Q 3022 478 2636 193 
Q 2250 -91 1575 -91 
Q 1294 -91 989 -36 
Q 684 19 347 128 
L 347 722 
Q 666 556 975 473 
Q 1284 391 1588 391 
Q 1994 391 2212 530 
Q 2431 669 2431 922 
Q 2431 1156 2273 1281 
Q 2116 1406 1581 1522 
L 1381 1569 
Q 847 1681 609 1914 
Q 372 2147 372 2553 
Q 372 3047 722 3315 
Q 1072 3584 1716 3584 
Q 2034 3584 2315 3537 
Q 2597 3491 2834 3397 
z
" transform="scale(0.015625)"/>
       <path id="DejaVuSans-62" d="M 3116 1747 
Q 3116 2381 2855 2742 
Q 2594 3103 2138 3103 
Q 1681 3103 1420 2742 
Q 1159 2381 1159 1747 
Q 1159 1113 1420 752 
Q 1681 391 2138 391 
Q 2594 391 2855 752 
Q 3116 1113 3116 1747 
z
M 1159 2969 
Q 1341 3281 1617 3432 
Q 1894 3584 2278 3584 
Q 2916 3584 3314 3078 
Q 3713 2572 3713 1747 
Q 3713 922 3314 415 
Q 2916 -91 2278 -91 
Q 1894 -91 1617 61 
Q 1341 213 1159 525 
L 1159 0 
L 581 0 
L 581 4863 
L 1159 4863 
L 1159 2969 
z
" transform="scale(0.015625)"/>
       <path id="DejaVuSans-6a" d="M 603 3500 
L 1178 3500 
L 1178 -63 
Q 1178 -731 923 -1031 
Q 669 -1331 103 -1331 
L -116 -1331 
L -116 -844 
L 38 -844 
Q 366 -844 484 -692 
Q 603 -541 603 -63 
L 603 3500 
z
M 603 4863 
L 1178 4863 
L 1178 4134 
L 603 4134 
L 603 4863 
z
" transform="scale(0.015625)"/>
      </defs>
      <use xlink:href="#DejaVuSans-53"/>
      <use xlink:href="#DejaVuSans-6b" transform="translate(63.476562 0)"/>
      <use xlink:href="#DejaVuSans-65" transform="translate(117.761719 0)"/>
      <use xlink:href="#DejaVuSans-6e" transform="translate(179.285156 0)"/>
      <use xlink:href="#DejaVuSans-61" transform="translate(242.664062 0)"/>
      <use xlink:href="#DejaVuSans-72" transform="translate(303.943359 0)"/>
      <use xlink:href="#DejaVuSans-69" transform="translate(345.056641 0)"/>
      <use xlink:href="#DejaVuSans-6f" transform="translate(372.839844 0)"/>
      <use xlink:href="#DejaVuSans-20" transform="translate(434.021484 0)"/>
      <use xlink:href="#DejaVuSans-d7" transform="translate(465.808594 0)"/>
      <use xlink:href="#DejaVuSans-20" transform="translate(549.597656 0)"/>
      <use xlink:href="#DejaVuSans-74" transform="translate(581.384766 0)"/>
      <use xlink:href="#DejaVuSans-69" transform="translate(620.59375 0)"/>
      <use xlink:href="#DejaVuSans-65" transform="translate(648.376953 0)"/>
      <use xlink:href="#DejaVuSans-72" transform="translate(709.900391 0)"/>
      <use xlink:href="#DejaVuSans-20" transform="translate(751.013672 0)"/>
      <use xlink:href="#DejaVuSans-64" transform="translate(782.800781 0)"/>
      <use xlink:href="#DejaVuSans-65" transform="translate(846.277344 0)"/>
      <use xlink:href="#DejaVuSans-6e" transform="translate(907.800781 0)"/>
      <use xlink:href="#DejaVuSans-73" transform="translate(971.179688 0)"/>
      <use xlink:href="#DejaVuSans-69" transform="translate(1023.279297 0)"/>
      <use xlink:href="#DejaVuSans-74" transform="translate(1051.0625 0)"/>
      <use xlink:href="#DejaVuSans-61" transform="translate(1090.271484 0)"/>
      <use xlink:href="#DejaVuSans-73" transform="translate(1151.550781 0)"/>
      <use xlink:href="#DejaVuSans-20" transform="translate(1203.650391 0)"/>
      <use xlink:href="#DejaVuSans-6f" transform="translate(1235.4375 0)"/>
      <use xlink:href="#DejaVuSans-62" transform="translate(1296.619141 0)"/>
      <use xlink:href="#DejaVuSans-6a" transform="translate(1360.095703 0)"/>
      <use xlink:href="#DejaVuSans-65" transform="translate(1387.878906 0)"/>
      <use xlink:href="#DejaVuSans-6b" transform="translate(1449.402344 0)"/>
     </g>
    </g>
   </g>
   <g id="matplotlib.axis_2">
    <g id="ytick_1">
     <g id="line2d_13">
      <path d="M 44.57 283.768 
L 673.2 283.768 
" clip-path="url(#pa007ad7418)" style="fill: none; stroke: #b0b0b0; stroke-opacity: 0.4; stroke-width: 0.4; stroke-linecap: square"/>
     </g>
     <g id="line2d_14">
      <defs>
       <path id="ma80d0678a8" d="M 0 0 
L -3.5 0 
" style="stroke: #000000; stroke-width: 0.8"/>
      </defs>
      <g>
       <use xlink:href="#ma80d0678a8" x="44.57" y="283.768" style="stroke: #000000; stroke-width: 0.8"/>
      </g>
     </g>
     <g id="text_14">
      <!-- 0 -->
      <g transform="translate(31.2075 287.567219) scale(0.1 -0.1)">
       <defs>
        <path id="DejaVuSans-30" d="M 2034 4250 
Q 1547 4250 1301 3770 
Q 1056 3291 1056 2328 
Q 1056 1369 1301 889 
Q 1547 409 2034 409 
Q 2525 409 2770 889 
Q 3016 1369 3016 2328 
Q 3016 3291 2770 3770 
Q 2525 4250 2034 4250 
z
M 2034 4750 
Q 2819 4750 3233 4129 
Q 3647 3509 3647 2328 
Q 3647 1150 3233 529 
Q 2819 -91 2034 -91 
Q 1250 -91 836 529 
Q 422 1150 422 2328 
Q 422 3509 836 4129 
Q 1250 4750 2034 4750 
z
" transform="scale(0.015625)"/>
       </defs>
       <use xlink:href="#DejaVuSans-30"/>
      </g>
     </g>
    </g>
    <g id="ytick_2">
     <g id="line2d_15">
      <path d="M 44.57 253.44572 
L 673.2 253.44572 
" clip-path="url(#pa007ad7418)" style="fill: none; stroke: #b0b0b0; stroke-opacity: 0.4; stroke-width: 0.4; stroke-linecap: square"/>
     </g>
     <g id="line2d_16">
      <g>
       <use xlink:href="#ma80d0678a8" x="44.57" y="253.44572" style="stroke: #000000; stroke-width: 0.8"/>
      </g>
     </g>
     <g id="text_15">
      <!-- 10 -->
      <g transform="translate(24.845 257.244938) scale(0.1 -0.1)">
       <use xlink:href="#DejaVuSans-31"/>
       <use xlink:href="#DejaVuSans-30" transform="translate(63.623047 0)"/>
      </g>
     </g>
    </g>
    <g id="ytick_3">
     <g id="line2d_17">
      <path d="M 44.57 223.123439 
L 673.2 223.123439 
" clip-path="url(#pa007ad7418)" style="fill: none; stroke: #b0b0b0; stroke-opacity: 0.4; stroke-width: 0.4; stroke-linecap: square"/>
     </g>
     <g id="line2d_18">
      <g>
       <use xlink:href="#ma80d0678a8" x="44.57" y="223.123439" style="stroke: #000000; stroke-width: 0.8"/>
      </g>
     </g>
     <g id="text_16">
      <!-- 20 -->
      <g transform="translate(24.845 226.922658) scale(0.1 -0.1)">
       <use xlink:href="#DejaVuSans-32"/>
       <use xlink:href="#DejaVuSans-30" transform="translate(63.623047 0)"/>
      </g>
     </g>
    </g>
    <g id="ytick_4">
     <g id="line2d_19">
      <path d="M 44.57 192.801159 
L 673.2 192.801159 
" clip-path="url(#pa007ad7418)" style="fill: none; stroke: #b0b0b0; stroke-opacity: 0.4; stroke-width: 0.4; stroke-linecap: square"/>
     </g>
     <g id="line2d_20">
      <g>
       <use xlink:href="#ma80d0678a8" x="44.57" y="192.801159" style="stroke: #000000; stroke-width: 0.8"/>
      </g>
     </g>
     <g id="text_17">
      <!-- 30 -->
      <g transform="translate(24.845 196.600378) scale(0.1 -0.1)">
       <use xlink:href="#DejaVuSans-33"/>
       <use xlink:href="#DejaVuSans-30" transform="translate(63.623047 0)"/>
      </g>
     </g>
    </g>
    <g id="ytick_5">
     <g id="line2d_21">
      <path d="M 44.57 162.478879 
L 673.2 162.478879 
" clip-path="url(#pa007ad7418)" style="fill: none; stroke: #b0b0b0; stroke-opacity: 0.4; stroke-width: 0.4; stroke-linecap: square"/>
     </g>
     <g id="line2d_22">
      <g>
       <use xlink:href="#ma80d0678a8" x="44.57" y="162.478879" style="stroke: #000000; stroke-width: 0.8"/>
      </g>
     </g>
     <g id="text_18">
      <!-- 40 -->
      <g transform="translate(24.845 166.278098) scale(0.1 -0.1)">
       <use xlink:href="#DejaVuSans-34"/>
       <use xlink:href="#DejaVuSans-30" transform="translate(63.623047 0)"/>
      </g>
     </g>
    </g>
    <g id="ytick_6">
     <g id="line2d_23">
      <path d="M 44.57 132.156599 
L 673.2 132.156599 
" clip-path="url(#pa007ad7418)" style="fill: none; stroke: #b0b0b0; stroke-opacity: 0.4; stroke-width: 0.4; stroke-linecap: square"/>
     </g>
     <g id="line2d_24">
      <g>
       <use xlink:href="#ma80d0678a8" x="44.57" y="132.156599" style="stroke: #000000; stroke-width: 0.8"/>
      </g>
     </g>
     <g id="text_19">
      <!-- 50 -->
      <g transform="translate(24.845 135.955817) scale(0.1 -0.1)">
       <defs>
        <path id="DejaVuSans-35" d="M 691 4666 
L 3169 4666 
L 3169 4134 
L 1269 4134 
L 1269 2991 
Q 1406 3038 1543 3061 
Q 1681 3084 1819 3084 
Q 2600 3084 3056 2656 
Q 3513 2228 3513 1497 
Q 3513 744 3044 326 
Q 2575 -91 1722 -91 
Q 1428 -91 1123 -41 
Q 819 9 494 109 
L 494 744 
Q 775 591 1075 516 
Q 1375 441 1709 441 
Q 2250 441 2565 725 
Q 2881 1009 2881 1497 
Q 2881 1984 2565 2268 
Q 2250 2553 1709 2553 
Q 1456 2553 1204 2497 
Q 953 2441 691 2322 
L 691 4666 
z
" transform="scale(0.015625)"/>
       </defs>
       <use xlink:href="#DejaVuSans-35"/>
       <use xlink:href="#DejaVuSans-30" transform="translate(63.623047 0)"/>
      </g>
     </g>
    </g>
    <g id="ytick_7">
     <g id="line2d_25">
      <path d="M 44.57 101.834318 
L 673.2 101.834318 
" clip-path="url(#pa007ad7418)" style="fill: none; stroke: #b0b0b0; stroke-opacity: 0.4; stroke-width: 0.4; stroke-linecap: square"/>
     </g>
     <g id="line2d_26">
      <g>
       <use xlink:href="#ma80d0678a8" x="44.57" y="101.834318" style="stroke: #000000; stroke-width: 0.8"/>
      </g>
     </g>
     <g id="text_20">
      <!-- 60 -->
      <g transform="translate(24.845 105.633537) scale(0.1 -0.1)">
       <defs>
        <path id="DejaVuSans-36" d="M 2113 2584 
Q 1688 2584 1439 2293 
Q 1191 2003 1191 1497 
Q 1191 994 1439 701 
Q 1688 409 2113 409 
Q 2538 409 2786 701 
Q 3034 994 3034 1497 
Q 3034 2003 2786 2293 
Q 2538 2584 2113 2584 
z
M 3366 4563 
L 3366 3988 
Q 3128 4100 2886 4159 
Q 2644 4219 2406 4219 
Q 1781 4219 1451 3797 
Q 1122 3375 1075 2522 
Q 1259 2794 1537 2939 
Q 1816 3084 2150 3084 
Q 2853 3084 3261 2657 
Q 3669 2231 3669 1497 
Q 3669 778 3244 343 
Q 2819 -91 2113 -91 
Q 1303 -91 875 529 
Q 447 1150 447 2328 
Q 447 3434 972 4092 
Q 1497 4750 2381 4750 
Q 2619 4750 2861 4703 
Q 3103 4656 3366 4563 
z
" transform="scale(0.015625)"/>
       </defs>
       <use xlink:href="#DejaVuSans-36"/>
       <use xlink:href="#DejaVuSans-30" transform="translate(63.623047 0)"/>
      </g>
     </g>
    </g>
    <g id="ytick_8">
     <g id="line2d_27">
      <path d="M 44.57 71.512038 
L 673.2 71.512038 
" clip-path="url(#pa007ad7418)" style="fill: none; stroke: #b0b0b0; stroke-opacity: 0.4; stroke-width: 0.4; stroke-linecap: square"/>
     </g>
     <g id="line2d_28">
      <g>
       <use xlink:href="#ma80d0678a8" x="44.57" y="71.512038" style="stroke: #000000; stroke-width: 0.8"/>
      </g>
     </g>
     <g id="text_21">
      <!-- 70 -->
      <g transform="translate(24.845 75.311257) scale(0.1 -0.1)">
       <defs>
        <path id="DejaVuSans-37" d="M 525 4666 
L 3525 4666 
L 3525 4397 
L 1831 0 
L 1172 0 
L 2766 4134 
L 525 4134 
L 525 4666 
z
" transform="scale(0.015625)"/>
       </defs>
       <use xlink:href="#DejaVuSans-37"/>
       <use xlink:href="#DejaVuSans-30" transform="translate(63.623047 0)"/>
      </g>
     </g>
    </g>
    <g id="text_22">
     <!-- Median throughput (request/s) -->
     <g transform="translate(18.765313 242.464094) rotate(-90) scale(0.1 -0.1)">
      <defs>
       <path id="DejaVuSans-70" d="M 1159 525 
L 1159 -1331 
L 581 -1331 
L 581 3500 
L 1159 3500 
L 1159 2969 
Q 1341 3281 1617 3432 
Q 1894 3584 2278 3584 
Q 2916 3584 3314 3078 
Q 3713 2572 3713 1747 
Q 3713 922 3314 415 
Q 2916 -91 2278 -91 
Q 1894 -91 1617 61 
Q 1341 213 1159 525 
z
M 3116 1747 
Q 3116 2381 2855 2742 
Q 2594 3103 2138 3103 
Q 1681 3103 1420 2742 
Q 1159 2381 1159 1747 
Q 1159 1113 1420 752 
Q 1681 391 2138 391 
Q 2594 391 2855 752 
Q 3116 1113 3116 1747 
z
" transform="scale(0.015625)"/>
       <path id="DejaVuSans-28" d="M 1984 4856 
Q 1566 4138 1362 3434 
Q 1159 2731 1159 2009 
Q 1159 1288 1364 580 
Q 1569 -128 1984 -844 
L 1484 -844 
Q 1016 -109 783 600 
Q 550 1309 550 2009 
Q 550 2706 781 3412 
Q 1013 4119 1484 4856 
L 1984 4856 
z
" transform="scale(0.015625)"/>
       <path id="DejaVuSans-71" d="M 947 1747 
Q 947 1113 1208 752 
Q 1469 391 1925 391 
Q 2381 391 2643 752 
Q 2906 1113 2906 1747 
Q 2906 2381 2643 2742 
Q 2381 3103 1925 3103 
Q 1469 3103 1208 2742 
Q 947 2381 947 1747 
z
M 2906 525 
Q 2725 213 2448 61 
Q 2172 -91 1784 -91 
Q 1150 -91 751 415 
Q 353 922 353 1747 
Q 353 2572 751 3078 
Q 1150 3584 1784 3584 
Q 2172 3584 2448 3432 
Q 2725 3281 2906 2969 
L 2906 3500 
L 3481 3500 
L 3481 -1331 
L 2906 -1331 
L 2906 525 
z
" transform="scale(0.015625)"/>
       <path id="DejaVuSans-2f" d="M 1625 4666 
L 2156 4666 
L 531 -594 
L 0 -594 
L 1625 4666 
z
" transform="scale(0.015625)"/>
       <path id="DejaVuSans-29" d="M 513 4856 
L 1013 4856 
Q 1481 4119 1714 3412 
Q 1947 2706 1947 2009 
Q 1947 1309 1714 600 
Q 1481 -109 1013 -844 
L 513 -844 
Q 928 -128 1133 580 
Q 1338 1288 1338 2009 
Q 1338 2731 1133 3434 
Q 928 4138 513 4856 
z
" transform="scale(0.015625)"/>
      </defs>
      <use xlink:href="#DejaVuSans-4d"/>
      <use xlink:href="#DejaVuSans-65" transform="translate(86.279297 0)"/>
      <use xlink:href="#DejaVuSans-64" transform="translate(147.802734 0)"/>
      <use xlink:href="#DejaVuSans-69" transform="translate(211.279297 0)"/>
      <use xlink:href="#DejaVuSans-61" transform="translate(239.0625 0)"/>
      <use xlink:href="#DejaVuSans-6e" transform="translate(300.341797 0)"/>
      <use xlink:href="#DejaVuSans-20" transform="translate(363.720703 0)"/>
      <use xlink:href="#DejaVuSans-74" transform="translate(395.507812 0)"/>
      <use xlink:href="#DejaVuSans-68" transform="translate(434.716797 0)"/>
      <use xlink:href="#DejaVuSans-72" transform="translate(498.095703 0)"/>
      <use xlink:href="#DejaVuSans-6f" transform="translate(536.958984 0)"/>
      <use xlink:href="#DejaVuSans-75" transform="translate(598.140625 0)"/>
      <use xlink:href="#DejaVuSans-67" transform="translate(661.519531 0)"/>
      <use xlink:href="#DejaVuSans-68" transform="translate(724.996094 0)"/>
      <use xlink:href="#DejaVuSans-70" transform="translate(788.375 0)"/>
      <use xlink:href="#DejaVuSans-75" transform="translate(851.851562 0)"/>
      <use xlink:href="#DejaVuSans-74" transform="translate(915.230469 0)"/>
      <use xlink:href="#DejaVuSans-20" transform="translate(954.439453 0)"/>
      <use xlink:href="#DejaVuSans-28" transform="translate(986.226562 0)"/>
      <use xlink:href="#DejaVuSans-72" transform="translate(1025.240234 0)"/>
      <use xlink:href="#DejaVuSans-65" transform="translate(1064.103516 0)"/>
      <use xlink:href="#DejaVuSans-71" transform="translate(1125.626953 0)"/>
      <use xlink:href="#DejaVuSans-75" transform="translate(1189.103516 0)"/>
      <use xlink:href="#DejaVuSans-65" transform="translate(1252.482422 0)"/>
      <use xlink:href="#DejaVuSans-73" transform="translate(1314.005859 0)"/>
      <use xlink:href="#DejaVuSans-74" transform="translate(1366.105469 0)"/>
      <use xlink:href="#DejaVuSans-2f" transform="translate(1405.314453 0)"/>
      <use xlink:href="#DejaVuSans-73" transform="translate(1439.005859 0)"/>
      <use xlink:href="#DejaVuSans-29" transform="translate(1491.105469 0)"/>
     </g>
    </g>
   </g>
   <g id="patch_3">
    <path d="M 73.144091 283.768 
L 90.623569 283.768 
L 90.623569 59.372403 
L 73.144091 59.372403 
z
" clip-path="url(#pa007ad7418)" style="fill: #1f77b4; stroke: #ffffff; stroke-width: 0.5; stroke-linejoin: miter"/>
   </g>
   <g id="patch_4">
    <path d="M 93.051274 283.768 
L 110.530752 283.768 
L 110.530752 59.387079 
L 93.051274 59.387079 
z
" clip-path="url(#pa007ad7418)" style="fill: #ff7f0e; stroke: #ffffff; stroke-width: 0.5; stroke-linejoin: miter"/>
   </g>
   <g id="patch_5">
    <path d="M 121.698196 283.768 
L 139.177674 283.768 
L 139.177674 59.373375 
L 121.698196 59.373375 
z
" clip-path="url(#pa007ad7418)" style="fill: #1f77b4; stroke: #ffffff; stroke-width: 0.5; stroke-linejoin: miter"/>
   </g>
   <g id="patch_6">
    <path d="M 141.605379 283.768 
L 159.084857 283.768 
L 159.084857 59.394367 
L 141.605379 59.394367 
z
" clip-path="url(#pa007ad7418)" style="fill: #ff7f0e; stroke: #ffffff; stroke-width: 0.5; stroke-linejoin: miter"/>
   </g>
   <g id="patch_7">
    <path d="M 170.252301 283.768 
L 187.731779 283.768 
L 187.731779 59.376791 
L 170.252301 59.376791 
z
" clip-path="url(#pa007ad7418)" style="fill: #1f77b4; stroke: #ffffff; stroke-width: 0.5; stroke-linejoin: miter"/>
   </g>
   <g id="patch_8">
    <path d="M 190.159484 283.768 
L 207.638962 283.768 
L 207.638962 98.640764 
L 190.159484 98.640764 
z
" clip-path="url(#pa007ad7418)" style="fill: #ff7f0e; stroke: #ffffff; stroke-width: 0.5; stroke-linejoin: miter"/>
   </g>
   <g id="patch_9">
    <path d="M 218.806407 283.768 
L 236.285884 283.768 
L 236.285884 59.373743 
L 218.806407 59.373743 
z
" clip-path="url(#pa007ad7418)" style="fill: #1f77b4; stroke: #ffffff; stroke-width: 0.5; stroke-linejoin: miter"/>
   </g>
   <g id="patch_10">
    <path d="M 238.71359 283.768 
L 256.193068 283.768 
L 256.193068 59.385681 
L 238.71359 59.385681 
z
" clip-path="url(#pa007ad7418)" style="fill: #ff7f0e; stroke: #ffffff; stroke-width: 0.5; stroke-linejoin: miter"/>
   </g>
   <g id="patch_11">
    <path d="M 267.360512 283.768 
L 284.83999 283.768 
L 284.83999 59.373785 
L 267.360512 59.373785 
z
" clip-path="url(#pa007ad7418)" style="fill: #1f77b4; stroke: #ffffff; stroke-width: 0.5; stroke-linejoin: miter"/>
   </g>
   <g id="patch_12">
    <path d="M 287.267695 283.768 
L 304.747173 283.768 
L 304.747173 59.387879 
L 287.267695 59.387879 
z
" clip-path="url(#pa007ad7418)" style="fill: #ff7f0e; stroke: #ffffff; stroke-width: 0.5; stroke-linejoin: miter"/>
   </g>
   <g id="patch_13">
    <path d="M 315.914617 283.768 
L 333.394095 283.768 
L 333.394095 59.374889 
L 315.914617 59.374889 
z
" clip-path="url(#pa007ad7418)" style="fill: #1f77b4; stroke: #ffffff; stroke-width: 0.5; stroke-linejoin: miter"/>
   </g>
   <g id="patch_14">
    <path d="M 335.8218 283.768 
L 353.301278 283.768 
L 353.301278 59.39564 
L 335.8218 59.39564 
z
" clip-path="url(#pa007ad7418)" style="fill: #ff7f0e; stroke: #ffffff; stroke-width: 0.5; stroke-linejoin: miter"/>
   </g>
   <g id="patch_15">
    <path d="M 364.468722 283.768 
L 381.9482 283.768 
L 381.9482 59.371556 
L 364.468722 59.371556 
z
" clip-path="url(#pa007ad7418)" style="fill: #1f77b4; stroke: #ffffff; stroke-width: 0.5; stroke-linejoin: miter"/>
   </g>
   <g id="patch_16">
    <path d="M 384.375905 283.768 
L 401.855383 283.768 
L 401.855383 59.387974 
L 384.375905 59.387974 
z
" clip-path="url(#pa007ad7418)" style="fill: #ff7f0e; stroke: #ffffff; stroke-width: 0.5; stroke-linejoin: miter"/>
   </g>
   <g id="patch_17">
    <path d="M 413.022827 283.768 
L 430.502305 283.768 
L 430.502305 59.373076 
L 413.022827 59.373076 
z
" clip-path="url(#pa007ad7418)" style="fill: #1f77b4; stroke: #ffffff; stroke-width: 0.5; stroke-linejoin: miter"/>
   </g>
   <g id="patch_18">
    <path d="M 432.93001 283.768 
L 450.409488 283.768 
L 450.409488 59.387701 
L 432.93001 59.387701 
z
" clip-path="url(#pa007ad7418)" style="fill: #ff7f0e; stroke: #ffffff; stroke-width: 0.5; stroke-linejoin: miter"/>
   </g>
   <g id="patch_19">
    <path d="M 461.576932 283.768 
L 479.05641 283.768 
L 479.05641 59.373881 
L 461.576932 59.373881 
z
" clip-path="url(#pa007ad7418)" style="fill: #1f77b4; stroke: #ffffff; stroke-width: 0.5; stroke-linejoin: miter"/>
   </g>
   <g id="patch_20">
    <path d="M 481.484116 283.768 
L 498.963593 283.768 
L 498.963593 59.392575 
L 481.484116 59.392575 
z
" clip-path="url(#pa007ad7418)" style="fill: #ff7f0e; stroke: #ffffff; stroke-width: 0.5; stroke-linejoin: miter"/>
   </g>
   <g id="patch_21">
    <path d="M 510.131038 283.768 
L 527.610516 283.768 
L 527.610516 59.373382 
L 510.131038 59.373382 
z
" clip-path="url(#pa007ad7418)" style="fill: #1f77b4; stroke: #ffffff; stroke-width: 0.5; stroke-linejoin: miter"/>
   </g>
   <g id="patch_22">
    <path d="M 530.038221 283.768 
L 547.517699 283.768 
L 547.517699 59.385655 
L 530.038221 59.385655 
z
" clip-path="url(#pa007ad7418)" style="fill: #ff7f0e; stroke: #ffffff; stroke-width: 0.5; stroke-linejoin: miter"/>
   </g>
   <g id="patch_23">
    <path d="M 558.685143 283.768 
L 576.164621 283.768 
L 576.164621 59.373751 
L 558.685143 59.373751 
z
" clip-path="url(#pa007ad7418)" style="fill: #1f77b4; stroke: #ffffff; stroke-width: 0.5; stroke-linejoin: miter"/>
   </g>
   <g id="patch_24">
    <path d="M 578.592326 283.768 
L 596.071804 283.768 
L 596.071804 59.38633 
L 578.592326 59.38633 
z
" clip-path="url(#pa007ad7418)" style="fill: #ff7f0e; stroke: #ffffff; stroke-width: 0.5; stroke-linejoin: miter"/>
   </g>
   <g id="patch_25">
    <path d="M 607.239248 283.768 
L 624.718726 283.768 
L 624.718726 59.373436 
L 607.239248 59.373436 
z
" clip-path="url(#pa007ad7418)" style="fill: #1f77b4; stroke: #ffffff; stroke-width: 0.5; stroke-linejoin: miter"/>
   </g>
   <g id="patch_26">
    <path d="M 627.146431 283.768 
L 644.625909 283.768 
L 644.625909 59.38574 
L 627.146431 59.38574 
z
" clip-path="url(#pa007ad7418)" style="fill: #ff7f0e; stroke: #ffffff; stroke-width: 0.5; stroke-linejoin: miter"/>
   </g>
   <g id="LineCollection_1">
    <path d="M 81.88383 59.386663 
L 81.88383 59.370212 
" clip-path="url(#pa007ad7418)" style="fill: none; stroke: #404040; stroke-width: 0.9"/>
   </g>
   <g id="line2d_29">
    <defs>
     <path id="m57f0e89603" d="M 2 0 
L -2 -0 
" style="stroke: #404040"/>
    </defs>
    <g clip-path="url(#pa007ad7418)">
     <use xlink:href="#m57f0e89603" x="81.88383" y="59.386663" style="fill: #1f77b4; stroke: #404040"/>
    </g>
   </g>
   <g id="line2d_30">
    <g clip-path="url(#pa007ad7418)">
     <use xlink:href="#m57f0e89603" x="81.88383" y="59.370212" style="fill: #1f77b4; stroke: #404040"/>
    </g>
   </g>
   <g id="LineCollection_2">
    <path d="M 101.791013 59.387888 
L 101.791013 59.385982 
" clip-path="url(#pa007ad7418)" style="fill: none; stroke: #404040; stroke-width: 0.9"/>
   </g>
   <g id="line2d_31">
    <g clip-path="url(#pa007ad7418)">
     <use xlink:href="#m57f0e89603" x="101.791013" y="59.387888" style="fill: #1f77b4; stroke: #404040"/>
    </g>
   </g>
   <g id="line2d_32">
    <g clip-path="url(#pa007ad7418)">
     <use xlink:href="#m57f0e89603" x="101.791013" y="59.385982" style="fill: #1f77b4; stroke: #404040"/>
    </g>
   </g>
   <g id="LineCollection_3">
    <path d="M 130.437935 59.381342 
L 130.437935 59.371124 
" clip-path="url(#pa007ad7418)" style="fill: none; stroke: #404040; stroke-width: 0.9"/>
   </g>
   <g id="line2d_33">
    <g clip-path="url(#pa007ad7418)">
     <use xlink:href="#m57f0e89603" x="130.437935" y="59.381342" style="fill: #1f77b4; stroke: #404040"/>
    </g>
   </g>
   <g id="line2d_34">
    <g clip-path="url(#pa007ad7418)">
     <use xlink:href="#m57f0e89603" x="130.437935" y="59.371124" style="fill: #1f77b4; stroke: #404040"/>
    </g>
   </g>
   <g id="LineCollection_4">
    <path d="M 150.345118 59.397262 
L 150.345118 59.389339 
" clip-path="url(#pa007ad7418)" style="fill: none; stroke: #404040; stroke-width: 0.9"/>
   </g>
   <g id="line2d_35">
    <g clip-path="url(#pa007ad7418)">
     <use xlink:href="#m57f0e89603" x="150.345118" y="59.397262" style="fill: #1f77b4; stroke: #404040"/>
    </g>
   </g>
   <g id="line2d_36">
    <g clip-path="url(#pa007ad7418)">
     <use xlink:href="#m57f0e89603" x="150.345118" y="59.389339" style="fill: #1f77b4; stroke: #404040"/>
    </g>
   </g>
   <g id="LineCollection_5">
    <path d="M 178.99204 59.386501 
L 178.99204 59.374845 
" clip-path="url(#pa007ad7418)" style="fill: none; stroke: #404040; stroke-width: 0.9"/>
   </g>
   <g id="line2d_37">
    <g clip-path="url(#pa007ad7418)">
     <use xlink:href="#m57f0e89603" x="178.99204" y="59.386501" style="fill: #1f77b4; stroke: #404040"/>
    </g>
   </g>
   <g id="line2d_38">
    <g clip-path="url(#pa007ad7418)">
     <use xlink:href="#m57f0e89603" x="178.99204" y="59.374845" style="fill: #1f77b4; stroke: #404040"/>
    </g>
   </g>
   <g id="LineCollection_6">
    <path d="M 198.899223 98.731007 
L 198.899223 97.969701 
" clip-path="url(#pa007ad7418)" style="fill: none; stroke: #404040; stroke-width: 0.9"/>
   </g>
   <g id="line2d_39">
    <g clip-path="url(#pa007ad7418)">
     <use xlink:href="#m57f0e89603" x="198.899223" y="98.731007" style="fill: #1f77b4; stroke: #404040"/>
    </g>
   </g>
   <g id="line2d_40">
    <g clip-path="url(#pa007ad7418)">
     <use xlink:href="#m57f0e89603" x="198.899223" y="97.969701" style="fill: #1f77b4; stroke: #404040"/>
    </g>
   </g>
   <g id="LineCollection_7">
    <path d="M 227.546145 59.386035 
L 227.546145 59.37012 
" clip-path="url(#pa007ad7418)" style="fill: none; stroke: #404040; stroke-width: 0.9"/>
   </g>
   <g id="line2d_41">
    <g clip-path="url(#pa007ad7418)">
     <use xlink:href="#m57f0e89603" x="227.546145" y="59.386035" style="fill: #1f77b4; stroke: #404040"/>
    </g>
   </g>
   <g id="line2d_42">
    <g clip-path="url(#pa007ad7418)">
     <use xlink:href="#m57f0e89603" x="227.546145" y="59.37012" style="fill: #1f77b4; stroke: #404040"/>
    </g>
   </g>
   <g id="LineCollection_8">
    <path d="M 247.453329 59.387231 
L 247.453329 59.383151 
" clip-path="url(#pa007ad7418)" style="fill: none; stroke: #404040; stroke-width: 0.9"/>
   </g>
   <g id="line2d_43">
    <g clip-path="url(#pa007ad7418)">
     <use xlink:href="#m57f0e89603" x="247.453329" y="59.387231" style="fill: #1f77b4; stroke: #404040"/>
    </g>
   </g>
   <g id="line2d_44">
    <g clip-path="url(#pa007ad7418)">
     <use xlink:href="#m57f0e89603" x="247.453329" y="59.383151" style="fill: #1f77b4; stroke: #404040"/>
    </g>
   </g>
   <g id="LineCollection_9">
    <path d="M 276.100251 59.383346 
L 276.100251 59.370532 
" clip-path="url(#pa007ad7418)" style="fill: none; stroke: #404040; stroke-width: 0.9"/>
   </g>
   <g id="line2d_45">
    <g clip-path="url(#pa007ad7418)">
     <use xlink:href="#m57f0e89603" x="276.100251" y="59.383346" style="fill: #1f77b4; stroke: #404040"/>
    </g>
   </g>
   <g id="line2d_46">
    <g clip-path="url(#pa007ad7418)">
     <use xlink:href="#m57f0e89603" x="276.100251" y="59.370532" style="fill: #1f77b4; stroke: #404040"/>
    </g>
   </g>
   <g id="LineCollection_10">
    <path d="M 296.007434 59.390291 
L 296.007434 59.386541 
" clip-path="url(#pa007ad7418)" style="fill: none; stroke: #404040; stroke-width: 0.9"/>
   </g>
   <g id="line2d_47">
    <g clip-path="url(#pa007ad7418)">
     <use xlink:href="#m57f0e89603" x="296.007434" y="59.390291" style="fill: #1f77b4; stroke: #404040"/>
    </g>
   </g>
   <g id="line2d_48">
    <g clip-path="url(#pa007ad7418)">
     <use xlink:href="#m57f0e89603" x="296.007434" y="59.386541" style="fill: #1f77b4; stroke: #404040"/>
    </g>
   </g>
   <g id="LineCollection_11">
    <path d="M 324.654356 59.38672 
L 324.654356 59.371191 
" clip-path="url(#pa007ad7418)" style="fill: none; stroke: #404040; stroke-width: 0.9"/>
   </g>
   <g id="line2d_49">
    <g clip-path="url(#pa007ad7418)">
     <use xlink:href="#m57f0e89603" x="324.654356" y="59.38672" style="fill: #1f77b4; stroke: #404040"/>
    </g>
   </g>
   <g id="line2d_50">
    <g clip-path="url(#pa007ad7418)">
     <use xlink:href="#m57f0e89603" x="324.654356" y="59.371191" style="fill: #1f77b4; stroke: #404040"/>
    </g>
   </g>
   <g id="LineCollection_12">
    <path d="M 344.561539 59.399109 
L 344.561539 59.392759 
" clip-path="url(#pa007ad7418)" style="fill: none; stroke: #404040; stroke-width: 0.9"/>
   </g>
   <g id="line2d_51">
    <g clip-path="url(#pa007ad7418)">
     <use xlink:href="#m57f0e89603" x="344.561539" y="59.399109" style="fill: #1f77b4; stroke: #404040"/>
    </g>
   </g>
   <g id="line2d_52">
    <g clip-path="url(#pa007ad7418)">
     <use xlink:href="#m57f0e89603" x="344.561539" y="59.392759" style="fill: #1f77b4; stroke: #404040"/>
    </g>
   </g>
   <g id="LineCollection_13">
    <path d="M 373.208461 59.382802 
L 373.208461 59.36919 
" clip-path="url(#pa007ad7418)" style="fill: none; stroke: #404040; stroke-width: 0.9"/>
   </g>
   <g id="line2d_53">
    <g clip-path="url(#pa007ad7418)">
     <use xlink:href="#m57f0e89603" x="373.208461" y="59.382802" style="fill: #1f77b4; stroke: #404040"/>
    </g>
   </g>
   <g id="line2d_54">
    <g clip-path="url(#pa007ad7418)">
     <use xlink:href="#m57f0e89603" x="373.208461" y="59.36919" style="fill: #1f77b4; stroke: #404040"/>
    </g>
   </g>
   <g id="LineCollection_14">
    <path d="M 393.115644 59.390712 
L 393.115644 59.386769 
" clip-path="url(#pa007ad7418)" style="fill: none; stroke: #404040; stroke-width: 0.9"/>
   </g>
   <g id="line2d_55">
    <g clip-path="url(#pa007ad7418)">
     <use xlink:href="#m57f0e89603" x="393.115644" y="59.390712" style="fill: #1f77b4; stroke: #404040"/>
    </g>
   </g>
   <g id="line2d_56">
    <g clip-path="url(#pa007ad7418)">
     <use xlink:href="#m57f0e89603" x="393.115644" y="59.386769" style="fill: #1f77b4; stroke: #404040"/>
    </g>
   </g>
   <g id="LineCollection_15">
    <path d="M 421.762566 59.386933 
L 421.762566 59.37047 
" clip-path="url(#pa007ad7418)" style="fill: none; stroke: #404040; stroke-width: 0.9"/>
   </g>
   <g id="line2d_57">
    <g clip-path="url(#pa007ad7418)">
     <use xlink:href="#m57f0e89603" x="421.762566" y="59.386933" style="fill: #1f77b4; stroke: #404040"/>
    </g>
   </g>
   <g id="line2d_58">
    <g clip-path="url(#pa007ad7418)">
     <use xlink:href="#m57f0e89603" x="421.762566" y="59.37047" style="fill: #1f77b4; stroke: #404040"/>
    </g>
   </g>
   <g id="LineCollection_16">
    <path d="M 441.669749 59.390662 
L 441.669749 59.38638 
" clip-path="url(#pa007ad7418)" style="fill: none; stroke: #404040; stroke-width: 0.9"/>
   </g>
   <g id="line2d_59">
    <g clip-path="url(#pa007ad7418)">
     <use xlink:href="#m57f0e89603" x="441.669749" y="59.390662" style="fill: #1f77b4; stroke: #404040"/>
    </g>
   </g>
   <g id="line2d_60">
    <g clip-path="url(#pa007ad7418)">
     <use xlink:href="#m57f0e89603" x="441.669749" y="59.38638" style="fill: #1f77b4; stroke: #404040"/>
    </g>
   </g>
   <g id="LineCollection_17">
    <path d="M 470.316671 59.383717 
L 470.316671 59.371825 
" clip-path="url(#pa007ad7418)" style="fill: none; stroke: #404040; stroke-width: 0.9"/>
   </g>
   <g id="line2d_61">
    <g clip-path="url(#pa007ad7418)">
     <use xlink:href="#m57f0e89603" x="470.316671" y="59.383717" style="fill: #1f77b4; stroke: #404040"/>
    </g>
   </g>
   <g id="line2d_62">
    <g clip-path="url(#pa007ad7418)">
     <use xlink:href="#m57f0e89603" x="470.316671" y="59.371825" style="fill: #1f77b4; stroke: #404040"/>
    </g>
   </g>
   <g id="LineCollection_18">
    <path d="M 490.223855 59.395455 
L 490.223855 59.389671 
" clip-path="url(#pa007ad7418)" style="fill: none; stroke: #404040; stroke-width: 0.9"/>
   </g>
   <g id="line2d_63">
    <g clip-path="url(#pa007ad7418)">
     <use xlink:href="#m57f0e89603" x="490.223855" y="59.395455" style="fill: #1f77b4; stroke: #404040"/>
    </g>
   </g>
   <g id="line2d_64">
    <g clip-path="url(#pa007ad7418)">
     <use xlink:href="#m57f0e89603" x="490.223855" y="59.389671" style="fill: #1f77b4; stroke: #404040"/>
    </g>
   </g>
   <g id="LineCollection_19">
    <path d="M 518.870777 59.383817 
L 518.870777 59.370766 
" clip-path="url(#pa007ad7418)" style="fill: none; stroke: #404040; stroke-width: 0.9"/>
   </g>
   <g id="line2d_65">
    <g clip-path="url(#pa007ad7418)">
     <use xlink:href="#m57f0e89603" x="518.870777" y="59.383817" style="fill: #1f77b4; stroke: #404040"/>
    </g>
   </g>
   <g id="line2d_66">
    <g clip-path="url(#pa007ad7418)">
     <use xlink:href="#m57f0e89603" x="518.870777" y="59.370766" style="fill: #1f77b4; stroke: #404040"/>
    </g>
   </g>
   <g id="LineCollection_20">
    <path d="M 538.77796 59.387183 
L 538.77796 59.381345 
" clip-path="url(#pa007ad7418)" style="fill: none; stroke: #404040; stroke-width: 0.9"/>
   </g>
   <g id="line2d_67">
    <g clip-path="url(#pa007ad7418)">
     <use xlink:href="#m57f0e89603" x="538.77796" y="59.387183" style="fill: #1f77b4; stroke: #404040"/>
    </g>
   </g>
   <g id="line2d_68">
    <g clip-path="url(#pa007ad7418)">
     <use xlink:href="#m57f0e89603" x="538.77796" y="59.381345" style="fill: #1f77b4; stroke: #404040"/>
    </g>
   </g>
   <g id="LineCollection_21">
    <path d="M 567.424882 59.386635 
L 567.424882 59.370134 
" clip-path="url(#pa007ad7418)" style="fill: none; stroke: #404040; stroke-width: 0.9"/>
   </g>
   <g id="line2d_69">
    <g clip-path="url(#pa007ad7418)">
     <use xlink:href="#m57f0e89603" x="567.424882" y="59.386635" style="fill: #1f77b4; stroke: #404040"/>
    </g>
   </g>
   <g id="line2d_70">
    <g clip-path="url(#pa007ad7418)">
     <use xlink:href="#m57f0e89603" x="567.424882" y="59.370134" style="fill: #1f77b4; stroke: #404040"/>
    </g>
   </g>
   <g id="LineCollection_22">
    <path d="M 587.332065 59.38777 
L 587.332065 59.384179 
" clip-path="url(#pa007ad7418)" style="fill: none; stroke: #404040; stroke-width: 0.9"/>
   </g>
   <g id="line2d_71">
    <g clip-path="url(#pa007ad7418)">
     <use xlink:href="#m57f0e89603" x="587.332065" y="59.38777" style="fill: #1f77b4; stroke: #404040"/>
    </g>
   </g>
   <g id="line2d_72">
    <g clip-path="url(#pa007ad7418)">
     <use xlink:href="#m57f0e89603" x="587.332065" y="59.384179" style="fill: #1f77b4; stroke: #404040"/>
    </g>
   </g>
   <g id="LineCollection_23">
    <path d="M 615.978987 59.38646 
L 615.978987 59.371567 
" clip-path="url(#pa007ad7418)" style="fill: none; stroke: #404040; stroke-width: 0.9"/>
   </g>
   <g id="line2d_73">
    <g clip-path="url(#pa007ad7418)">
     <use xlink:href="#m57f0e89603" x="615.978987" y="59.38646" style="fill: #1f77b4; stroke: #404040"/>
    </g>
   </g>
   <g id="line2d_74">
    <g clip-path="url(#pa007ad7418)">
     <use xlink:href="#m57f0e89603" x="615.978987" y="59.371567" style="fill: #1f77b4; stroke: #404040"/>
    </g>
   </g>
   <g id="LineCollection_24">
    <path d="M 635.88617 59.387774 
L 635.88617 59.38244 
" clip-path="url(#pa007ad7418)" style="fill: none; stroke: #404040; stroke-width: 0.9"/>
   </g>
   <g id="line2d_75">
    <g clip-path="url(#pa007ad7418)">
     <use xlink:href="#m57f0e89603" x="635.88617" y="59.387774" style="fill: #1f77b4; stroke: #404040"/>
    </g>
   </g>
   <g id="line2d_76">
    <g clip-path="url(#pa007ad7418)">
     <use xlink:href="#m57f0e89603" x="635.88617" y="59.38244" style="fill: #1f77b4; stroke: #404040"/>
    </g>
   </g>
   <g id="patch_27">
    <path d="M 44.57 283.768 
L 44.57 48.14925 
" style="fill: none; stroke: #000000; stroke-width: 0.8; stroke-linejoin: miter; stroke-linecap: square"/>
   </g>
   <g id="patch_28">
    <path d="M 44.57 283.768 
L 673.2 283.768 
" style="fill: none; stroke: #000000; stroke-width: 0.8; stroke-linejoin: miter; stroke-linecap: square"/>
   </g>
   <g id="text_23">
    <!-- RQ1 — Median throughput (request/s) per skenario M1–M4, rate r120_overload -->
    <g transform="translate(161.05375 19.4755) scale(0.1 -0.1)">
     <defs>
      <path id="DejaVuSans-52" d="M 2841 2188 
Q 3044 2119 3236 1894 
Q 3428 1669 3622 1275 
L 4263 0 
L 3584 0 
L 2988 1197 
Q 2756 1666 2539 1819 
Q 2322 1972 1947 1972 
L 1259 1972 
L 1259 0 
L 628 0 
L 628 4666 
L 2053 4666 
Q 2853 4666 3247 4331 
Q 3641 3997 3641 3322 
Q 3641 2881 3436 2590 
Q 3231 2300 2841 2188 
z
M 1259 4147 
L 1259 2491 
L 2053 2491 
Q 2509 2491 2742 2702 
Q 2975 2913 2975 3322 
Q 2975 3731 2742 3939 
Q 2509 4147 2053 4147 
L 1259 4147 
z
" transform="scale(0.015625)"/>
      <path id="DejaVuSans-51" d="M 2522 4238 
Q 1834 4238 1429 3725 
Q 1025 3213 1025 2328 
Q 1025 1447 1429 934 
Q 1834 422 2522 422 
Q 3209 422 3611 934 
Q 4013 1447 4013 2328 
Q 4013 3213 3611 3725 
Q 3209 4238 2522 4238 
z
M 3406 84 
L 4238 -825 
L 3475 -825 
L 2784 -78 
Q 2681 -84 2626 -87 
Q 2572 -91 2522 -91 
Q 1538 -91 948 567 
Q 359 1225 359 2328 
Q 359 3434 948 4092 
Q 1538 4750 2522 4750 
Q 3503 4750 4090 4092 
Q 4678 3434 4678 2328 
Q 4678 1516 4351 937 
Q 4025 359 3406 84 
z
" transform="scale(0.015625)"/>
      <path id="DejaVuSans-2014" d="M 313 1978 
L 6088 1978 
L 6088 1528 
L 313 1528 
L 313 1978 
z
" transform="scale(0.015625)"/>
      <path id="DejaVuSans-2013" d="M 313 1978 
L 2888 1978 
L 2888 1528 
L 313 1528 
L 313 1978 
z
" transform="scale(0.015625)"/>
      <path id="DejaVuSans-2c" d="M 750 794 
L 1409 794 
L 1409 256 
L 897 -744 
L 494 -744 
L 750 256 
L 750 794 
z
" transform="scale(0.015625)"/>
      <path id="DejaVuSans-5f" d="M 3263 -1063 
L 3263 -1509 
L -63 -1509 
L -63 -1063 
L 3263 -1063 
z
" transform="scale(0.015625)"/>
      <path id="DejaVuSans-76" d="M 191 3500 
L 800 3500 
L 1894 563 
L 2988 3500 
L 3597 3500 
L 2284 0 
L 1503 0 
L 191 3500 
z
" transform="scale(0.015625)"/>
     </defs>
     <use xlink:href="#DejaVuSans-52"/>
     <use xlink:href="#DejaVuSans-51" transform="translate(69.482422 0)"/>
     <use xlink:href="#DejaVuSans-31" transform="translate(148.193359 0)"/>
     <use xlink:href="#DejaVuSans-20" transform="translate(211.816406 0)"/>
     <use xlink:href="#DejaVuSans-2014" transform="translate(243.603516 0)"/>
     <use xlink:href="#DejaVuSans-20" transform="translate(343.603516 0)"/>
     <use xlink:href="#DejaVuSans-4d" transform="translate(375.390625 0)"/>
     <use xlink:href="#DejaVuSans-65" transform="translate(461.669922 0)"/>
     <use xlink:href="#DejaVuSans-64" transform="translate(523.193359 0)"/>
     <use xlink:href="#DejaVuSans-69" transform="translate(586.669922 0)"/>
     <use xlink:href="#DejaVuSans-61" transform="translate(614.453125 0)"/>
     <use xlink:href="#DejaVuSans-6e" transform="translate(675.732422 0)"/>
     <use xlink:href="#DejaVuSans-20" transform="translate(739.111328 0)"/>
     <use xlink:href="#DejaVuSans-74" transform="translate(770.898438 0)"/>
     <use xlink:href="#DejaVuSans-68" transform="translate(810.107422 0)"/>
     <use xlink:href="#DejaVuSans-72" transform="translate(873.486328 0)"/>
     <use xlink:href="#DejaVuSans-6f" transform="translate(912.349609 0)"/>
     <use xlink:href="#DejaVuSans-75" transform="translate(973.53125 0)"/>
     <use xlink:href="#DejaVuSans-67" transform="translate(1036.910156 0)"/>
     <use xlink:href="#DejaVuSans-68" transform="translate(1100.386719 0)"/>
     <use xlink:href="#DejaVuSans-70" transform="translate(1163.765625 0)"/>
     <use xlink:href="#DejaVuSans-75" transform="translate(1227.242188 0)"/>
     <use xlink:href="#DejaVuSans-74" transform="translate(1290.621094 0)"/>
     <use xlink:href="#DejaVuSans-20" transform="translate(1329.830078 0)"/>
     <use xlink:href="#DejaVuSans-28" transform="translate(1361.617188 0)"/>
     <use xlink:href="#DejaVuSans-72" transform="translate(1400.630859 0)"/>
     <use xlink:href="#DejaVuSans-65" transform="translate(1439.494141 0)"/>
     <use xlink:href="#DejaVuSans-71" transform="translate(1501.017578 0)"/>
     <use xlink:href="#DejaVuSans-75" transform="translate(1564.494141 0)"/>
     <use xlink:href="#DejaVuSans-65" transform="translate(1627.873047 0)"/>
     <use xlink:href="#DejaVuSans-73" transform="translate(1689.396484 0)"/>
     <use xlink:href="#DejaVuSans-74" transform="translate(1741.496094 0)"/>
     <use xlink:href="#DejaVuSans-2f" transform="translate(1780.705078 0)"/>
     <use xlink:href="#DejaVuSans-73" transform="translate(1814.396484 0)"/>
     <use xlink:href="#DejaVuSans-29" transform="translate(1866.496094 0)"/>
     <use xlink:href="#DejaVuSans-20" transform="translate(1905.509766 0)"/>
     <use xlink:href="#DejaVuSans-70" transform="translate(1937.296875 0)"/>
     <use xlink:href="#DejaVuSans-65" transform="translate(2000.773438 0)"/>
     <use xlink:href="#DejaVuSans-72" transform="translate(2062.296875 0)"/>
     <use xlink:href="#DejaVuSans-20" transform="translate(2103.410156 0)"/>
     <use xlink:href="#DejaVuSans-73" transform="translate(2135.197266 0)"/>
     <use xlink:href="#DejaVuSans-6b" transform="translate(2187.296875 0)"/>
     <use xlink:href="#DejaVuSans-65" transform="translate(2241.582031 0)"/>
     <use xlink:href="#DejaVuSans-6e" transform="translate(2303.105469 0)"/>
     <use xlink:href="#DejaVuSans-61" transform="translate(2366.484375 0)"/>
     <use xlink:href="#DejaVuSans-72" transform="translate(2427.763672 0)"/>
     <use xlink:href="#DejaVuSans-69" transform="translate(2468.876953 0)"/>
     <use xlink:href="#DejaVuSans-6f" transform="translate(2496.660156 0)"/>
     <use xlink:href="#DejaVuSans-20" transform="translate(2557.841797 0)"/>
     <use xlink:href="#DejaVuSans-4d" transform="translate(2589.628906 0)"/>
     <use xlink:href="#DejaVuSans-31" transform="translate(2675.908203 0)"/>
     <use xlink:href="#DejaVuSans-2013" transform="translate(2739.53125 0)"/>
     <use xlink:href="#DejaVuSans-4d" transform="translate(2789.53125 0)"/>
     <use xlink:href="#DejaVuSans-34" transform="translate(2875.810547 0)"/>
     <use xlink:href="#DejaVuSans-2c" transform="translate(2939.433594 0)"/>
     <use xlink:href="#DejaVuSans-20" transform="translate(2971.220703 0)"/>
     <use xlink:href="#DejaVuSans-72" transform="translate(3003.007812 0)"/>
     <use xlink:href="#DejaVuSans-61" transform="translate(3044.121094 0)"/>
     <use xlink:href="#DejaVuSans-74" transform="translate(3105.400391 0)"/>
     <use xlink:href="#DejaVuSans-65" transform="translate(3144.609375 0)"/>
     <use xlink:href="#DejaVuSans-20" transform="translate(3206.132812 0)"/>
     <use xlink:href="#DejaVuSans-72" transform="translate(3237.919922 0)"/>
     <use xlink:href="#DejaVuSans-31" transform="translate(3279.033203 0)"/>
     <use xlink:href="#DejaVuSans-32" transform="translate(3342.65625 0)"/>
     <use xlink:href="#DejaVuSans-30" transform="translate(3406.279297 0)"/>
     <use xlink:href="#DejaVuSans-5f" transform="translate(3469.902344 0)"/>
     <use xlink:href="#DejaVuSans-6f" transform="translate(3519.902344 0)"/>
     <use xlink:href="#DejaVuSans-76" transform="translate(3581.083984 0)"/>
     <use xlink:href="#DejaVuSans-65" transform="translate(3640.263672 0)"/>
     <use xlink:href="#DejaVuSans-72" transform="translate(3701.787109 0)"/>
     <use xlink:href="#DejaVuSans-6c" transform="translate(3742.900391 0)"/>
     <use xlink:href="#DejaVuSans-6f" transform="translate(3770.683594 0)"/>
     <use xlink:href="#DejaVuSans-61" transform="translate(3831.865234 0)"/>
     <use xlink:href="#DejaVuSans-64" transform="translate(3893.144531 0)"/>
    </g>
    <!-- — TIER OVERLOAD (r120): dianalisis TERPISAH, jangan bandingkan dengan r40/r80 -->
    <g transform="translate(150.42875 30.951438) scale(0.1 -0.1)">
     <defs>
      <path id="DejaVuSans-54" d="M -19 4666 
L 3928 4666 
L 3928 4134 
L 2272 4134 
L 2272 0 
L 1638 0 
L 1638 4134 
L -19 4134 
L -19 4666 
z
" transform="scale(0.015625)"/>
      <path id="DejaVuSans-49" d="M 628 4666 
L 1259 4666 
L 1259 0 
L 628 0 
L 628 4666 
z
" transform="scale(0.015625)"/>
      <path id="DejaVuSans-45" d="M 628 4666 
L 3578 4666 
L 3578 4134 
L 1259 4134 
L 1259 2753 
L 3481 2753 
L 3481 2222 
L 1259 2222 
L 1259 531 
L 3634 531 
L 3634 0 
L 628 0 
L 628 4666 
z
" transform="scale(0.015625)"/>
      <path id="DejaVuSans-4f" d="M 2522 4238 
Q 1834 4238 1429 3725 
Q 1025 3213 1025 2328 
Q 1025 1447 1429 934 
Q 1834 422 2522 422 
Q 3209 422 3611 934 
Q 4013 1447 4013 2328 
Q 4013 3213 3611 3725 
Q 3209 4238 2522 4238 
z
M 2522 4750 
Q 3503 4750 4090 4092 
Q 4678 3434 4678 2328 
Q 4678 1225 4090 567 
Q 3503 -91 2522 -91 
Q 1538 -91 948 565 
Q 359 1222 359 2328 
Q 359 3434 948 4092 
Q 1538 4750 2522 4750 
z
" transform="scale(0.015625)"/>
      <path id="DejaVuSans-56" d="M 1831 0 
L 50 4666 
L 709 4666 
L 2188 738 
L 3669 4666 
L 4325 4666 
L 2547 0 
L 1831 0 
z
" transform="scale(0.015625)"/>
      <path id="DejaVuSans-4c" d="M 628 4666 
L 1259 4666 
L 1259 531 
L 3531 531 
L 3531 0 
L 628 0 
L 628 4666 
z
" transform="scale(0.015625)"/>
      <path id="DejaVuSans-41" d="M 2188 4044 
L 1331 1722 
L 3047 1722 
L 2188 4044 
z
M 1831 4666 
L 2547 4666 
L 4325 0 
L 3669 0 
L 3244 1197 
L 1141 1197 
L 716 0 
L 50 0 
L 1831 4666 
z
" transform="scale(0.015625)"/>
      <path id="DejaVuSans-44" d="M 1259 4147 
L 1259 519 
L 2022 519 
Q 2988 519 3436 956 
Q 3884 1394 3884 2338 
Q 3884 3275 3436 3711 
Q 2988 4147 2022 4147 
L 1259 4147 
z
M 628 4666 
L 1925 4666 
Q 3281 4666 3915 4102 
Q 4550 3538 4550 2338 
Q 4550 1131 3912 565 
Q 3275 0 1925 0 
L 628 0 
L 628 4666 
z
" transform="scale(0.015625)"/>
      <path id="DejaVuSans-3a" d="M 750 794 
L 1409 794 
L 1409 0 
L 750 0 
L 750 794 
z
M 750 3309 
L 1409 3309 
L 1409 2516 
L 750 2516 
L 750 3309 
z
" transform="scale(0.015625)"/>
      <path id="DejaVuSans-50" d="M 1259 4147 
L 1259 2394 
L 2053 2394 
Q 2494 2394 2734 2622 
Q 2975 2850 2975 3272 
Q 2975 3691 2734 3919 
Q 2494 4147 2053 4147 
L 1259 4147 
z
M 628 4666 
L 2053 4666 
Q 2838 4666 3239 4311 
Q 3641 3956 3641 3272 
Q 3641 2581 3239 2228 
Q 2838 1875 2053 1875 
L 1259 1875 
L 1259 0 
L 628 0 
L 628 4666 
z
" transform="scale(0.015625)"/>
      <path id="DejaVuSans-48" d="M 628 4666 
L 1259 4666 
L 1259 2753 
L 3553 2753 
L 3553 4666 
L 4184 4666 
L 4184 0 
L 3553 0 
L 3553 2222 
L 1259 2222 
L 1259 0 
L 628 0 
L 628 4666 
z
" transform="scale(0.015625)"/>
      <path id="DejaVuSans-38" d="M 2034 2216 
Q 1584 2216 1326 1975 
Q 1069 1734 1069 1313 
Q 1069 891 1326 650 
Q 1584 409 2034 409 
Q 2484 409 2743 651 
Q 3003 894 3003 1313 
Q 3003 1734 2745 1975 
Q 2488 2216 2034 2216 
z
M 1403 2484 
Q 997 2584 770 2862 
Q 544 3141 544 3541 
Q 544 4100 942 4425 
Q 1341 4750 2034 4750 
Q 2731 4750 3128 4425 
Q 3525 4100 3525 3541 
Q 3525 3141 3298 2862 
Q 3072 2584 2669 2484 
Q 3125 2378 3379 2068 
Q 3634 1759 3634 1313 
Q 3634 634 3220 271 
Q 2806 -91 2034 -91 
Q 1263 -91 848 271 
Q 434 634 434 1313 
Q 434 1759 690 2068 
Q 947 2378 1403 2484 
z
M 1172 3481 
Q 1172 3119 1398 2916 
Q 1625 2713 2034 2713 
Q 2441 2713 2670 2916 
Q 2900 3119 2900 3481 
Q 2900 3844 2670 4047 
Q 2441 4250 2034 4250 
Q 1625 4250 1398 4047 
Q 1172 3844 1172 3481 
z
" transform="scale(0.015625)"/>
     </defs>
     <use xlink:href="#DejaVuSans-2014"/>
     <use xlink:href="#DejaVuSans-20" transform="translate(100 0)"/>
     <use xlink:href="#DejaVuSans-54" transform="translate(131.787109 0)"/>
     <use xlink:href="#DejaVuSans-49" transform="translate(192.871094 0)"/>
     <use xlink:href="#DejaVuSans-45" transform="translate(222.363281 0)"/>
     <use xlink:href="#DejaVuSans-52" transform="translate(285.546875 0)"/>
     <use xlink:href="#DejaVuSans-20" transform="translate(355.029297 0)"/>
     <use xlink:href="#DejaVuSans-4f" transform="translate(386.816406 0)"/>
     <use xlink:href="#DejaVuSans-56" transform="translate(463.777344 0)"/>
     <use xlink:href="#DejaVuSans-45" transform="translate(532.185547 0)"/>
     <use xlink:href="#DejaVuSans-52" transform="translate(595.369141 0)"/>
     <use xlink:href="#DejaVuSans-4c" transform="translate(664.851562 0)"/>
     <use xlink:href="#DejaVuSans-4f" transform="translate(716.939453 0)"/>
     <use xlink:href="#DejaVuSans-41" transform="translate(793.900391 0)"/>
     <use xlink:href="#DejaVuSans-44" transform="translate(862.308594 0)"/>
     <use xlink:href="#DejaVuSans-20" transform="translate(939.310547 0)"/>
     <use xlink:href="#DejaVuSans-28" transform="translate(971.097656 0)"/>
     <use xlink:href="#DejaVuSans-72" transform="translate(1010.111328 0)"/>
     <use xlink:href="#DejaVuSans-31" transform="translate(1051.224609 0)"/>
     <use xlink:href="#DejaVuSans-32" transform="translate(1114.847656 0)"/>
     <use xlink:href="#DejaVuSans-30" transform="translate(1178.470703 0)"/>
     <use xlink:href="#DejaVuSans-29" transform="translate(1242.09375 0)"/>
     <use xlink:href="#DejaVuSans-3a" transform="translate(1281.107422 0)"/>
     <use xlink:href="#DejaVuSans-20" transform="translate(1314.798828 0)"/>
     <use xlink:href="#DejaVuSans-64" transform="translate(1346.585938 0)"/>
     <use xlink:href="#DejaVuSans-69" transform="translate(1410.0625 0)"/>
     <use xlink:href="#DejaVuSans-61" transform="translate(1437.845703 0)"/>
     <use xlink:href="#DejaVuSans-6e" transform="translate(1499.125 0)"/>
     <use xlink:href="#DejaVuSans-61" transform="translate(1562.503906 0)"/>
     <use xlink:href="#DejaVuSans-6c" transform="translate(1623.783203 0)"/>
     <use xlink:href="#DejaVuSans-69" transform="translate(1651.566406 0)"/>
     <use xlink:href="#DejaVuSans-73" transform="translate(1679.349609 0)"/>
     <use xlink:href="#DejaVuSans-69" transform="translate(1731.449219 0)"/>
     <use xlink:href="#DejaVuSans-73" transform="translate(1759.232422 0)"/>
     <use xlink:href="#DejaVuSans-20" transform="translate(1811.332031 0)"/>
     <use xlink:href="#DejaVuSans-54" transform="translate(1843.119141 0)"/>
     <use xlink:href="#DejaVuSans-45" transform="translate(1904.203125 0)"/>
     <use xlink:href="#DejaVuSans-52" transform="translate(1967.386719 0)"/>
     <use xlink:href="#DejaVuSans-50" transform="translate(2036.869141 0)"/>
     <use xlink:href="#DejaVuSans-49" transform="translate(2097.171875 0)"/>
     <use xlink:href="#DejaVuSans-53" transform="translate(2126.664062 0)"/>
     <use xlink:href="#DejaVuSans-41" transform="translate(2192.015625 0)"/>
     <use xlink:href="#DejaVuSans-48" transform="translate(2260.423828 0)"/>
     <use xlink:href="#DejaVuSans-2c" transform="translate(2335.619141 0)"/>
     <use xlink:href="#DejaVuSans-20" transform="translate(2367.40625 0)"/>
     <use xlink:href="#DejaVuSans-6a" transform="translate(2399.193359 0)"/>
     <use xlink:href="#DejaVuSans-61" transform="translate(2426.976562 0)"/>
     <use xlink:href="#DejaVuSans-6e" transform="translate(2488.255859 0)"/>
     <use xlink:href="#DejaVuSans-67" transform="translate(2551.634766 0)"/>
     <use xlink:href="#DejaVuSans-61" transform="translate(2615.111328 0)"/>
     <use xlink:href="#DejaVuSans-6e" transform="translate(2676.390625 0)"/>
     <use xlink:href="#DejaVuSans-20" transform="translate(2739.769531 0)"/>
     <use xlink:href="#DejaVuSans-62" transform="translate(2771.556641 0)"/>
     <use xlink:href="#DejaVuSans-61" transform="translate(2835.033203 0)"/>
     <use xlink:href="#DejaVuSans-6e" transform="translate(2896.3125 0)"/>
     <use xlink:href="#DejaVuSans-64" transform="translate(2959.691406 0)"/>
     <use xlink:href="#DejaVuSans-69" transform="translate(3023.167969 0)"/>
     <use xlink:href="#DejaVuSans-6e" transform="translate(3050.951172 0)"/>
     <use xlink:href="#DejaVuSans-67" transform="translate(3114.330078 0)"/>
     <use xlink:href="#DejaVuSans-6b" transform="translate(3177.806641 0)"/>
     <use xlink:href="#DejaVuSans-61" transform="translate(3233.966797 0)"/>
     <use xlink:href="#DejaVuSans-6e" transform="translate(3295.246094 0)"/>
     <use xlink:href="#DejaVuSans-20" transform="translate(3358.625 0)"/>
     <use xlink:href="#DejaVuSans-64" transform="translate(3390.412109 0)"/>
     <use xlink:href="#DejaVuSans-65" transform="translate(3453.888672 0)"/>
     <use xlink:href="#DejaVuSans-6e" transform="translate(3515.412109 0)"/>
     <use xlink:href="#DejaVuSans-67" transform="translate(3578.791016 0)"/>
     <use xlink:href="#DejaVuSans-61" transform="translate(3642.267578 0)"/>
     <use xlink:href="#DejaVuSans-6e" transform="translate(3703.546875 0)"/>
     <use xlink:href="#DejaVuSans-20" transform="translate(3766.925781 0)"/>
     <use xlink:href="#DejaVuSans-72" transform="translate(3798.712891 0)"/>
     <use xlink:href="#DejaVuSans-34" transform="translate(3839.826172 0)"/>
     <use xlink:href="#DejaVuSans-30" transform="translate(3903.449219 0)"/>
     <use xlink:href="#DejaVuSans-2f" transform="translate(3967.072266 0)"/>
     <use xlink:href="#DejaVuSans-72" transform="translate(4000.763672 0)"/>
     <use xlink:href="#DejaVuSans-38" transform="translate(4041.876953 0)"/>
     <use xlink:href="#DejaVuSans-30" transform="translate(4105.5 0)"/>
    </g>
    <!-- n = 30 run per cell; whisker = IQR -->
    <g transform="translate(273.29125 42.14925) scale(0.1 -0.1)">
     <defs>
      <path id="DejaVuSans-3d" d="M 678 2906 
L 4684 2906 
L 4684 2381 
L 678 2381 
L 678 2906 
z
M 678 1631 
L 4684 1631 
L 4684 1100 
L 678 1100 
L 678 1631 
z
" transform="scale(0.015625)"/>
      <path id="DejaVuSans-63" d="M 3122 3366 
L 3122 2828 
Q 2878 2963 2633 3030 
Q 2388 3097 2138 3097 
Q 1578 3097 1268 2742 
Q 959 2388 959 1747 
Q 959 1106 1268 751 
Q 1578 397 2138 397 
Q 2388 397 2633 464 
Q 2878 531 3122 666 
L 3122 134 
Q 2881 22 2623 -34 
Q 2366 -91 2075 -91 
Q 1284 -91 818 406 
Q 353 903 353 1747 
Q 353 2603 823 3093 
Q 1294 3584 2113 3584 
Q 2378 3584 2631 3529 
Q 2884 3475 3122 3366 
z
" transform="scale(0.015625)"/>
      <path id="DejaVuSans-3b" d="M 750 3309 
L 1409 3309 
L 1409 2516 
L 750 2516 
L 750 3309 
z
M 750 794 
L 1409 794 
L 1409 256 
L 897 -744 
L 494 -744 
L 750 256 
L 750 794 
z
" transform="scale(0.015625)"/>
     </defs>
     <use xlink:href="#DejaVuSans-6e"/>
     <use xlink:href="#DejaVuSans-20" transform="translate(63.378906 0)"/>
     <use xlink:href="#DejaVuSans-3d" transform="translate(95.166016 0)"/>
     <use xlink:href="#DejaVuSans-20" transform="translate(178.955078 0)"/>
     <use xlink:href="#DejaVuSans-33" transform="translate(210.742188 0)"/>
     <use xlink:href="#DejaVuSans-30" transform="translate(274.365234 0)"/>
     <use xlink:href="#DejaVuSans-20" transform="translate(337.988281 0)"/>
     <use xlink:href="#DejaVuSans-72" transform="translate(369.775391 0)"/>
     <use xlink:href="#DejaVuSans-75" transform="translate(410.888672 0)"/>
     <use xlink:href="#DejaVuSans-6e" transform="translate(474.267578 0)"/>
     <use xlink:href="#DejaVuSans-20" transform="translate(537.646484 0)"/>
     <use xlink:href="#DejaVuSans-70" transform="translate(569.433594 0)"/>
     <use xlink:href="#DejaVuSans-65" transform="translate(632.910156 0)"/>
     <use xlink:href="#DejaVuSans-72" transform="translate(694.433594 0)"/>
     <use xlink:href="#DejaVuSans-20" transform="translate(735.546875 0)"/>
     <use xlink:href="#DejaVuSans-63" transform="translate(767.333984 0)"/>
     <use xlink:href="#DejaVuSans-65" transform="translate(822.314453 0)"/>
     <use xlink:href="#DejaVuSans-6c" transform="translate(883.837891 0)"/>
     <use xlink:href="#DejaVuSans-6c" transform="translate(911.621094 0)"/>
     <use xlink:href="#DejaVuSans-3b" transform="translate(939.404297 0)"/>
     <use xlink:href="#DejaVuSans-20" transform="translate(973.095703 0)"/>
     <use xlink:href="#DejaVuSans-77" transform="translate(1004.882812 0)"/>
     <use xlink:href="#DejaVuSans-68" transform="translate(1086.669922 0)"/>
     <use xlink:href="#DejaVuSans-69" transform="translate(1150.048828 0)"/>
     <use xlink:href="#DejaVuSans-73" transform="translate(1177.832031 0)"/>
     <use xlink:href="#DejaVuSans-6b" transform="translate(1229.931641 0)"/>
     <use xlink:href="#DejaVuSans-65" transform="translate(1284.216797 0)"/>
     <use xlink:href="#DejaVuSans-72" transform="translate(1345.740234 0)"/>
     <use xlink:href="#DejaVuSans-20" transform="translate(1386.853516 0)"/>
     <use xlink:href="#DejaVuSans-3d" transform="translate(1418.640625 0)"/>
     <use xlink:href="#DejaVuSans-20" transform="translate(1502.429688 0)"/>
     <use xlink:href="#DejaVuSans-49" transform="translate(1534.216797 0)"/>
     <use xlink:href="#DejaVuSans-51" transform="translate(1563.708984 0)"/>
     <use xlink:href="#DejaVuSans-52" transform="translate(1642.419922 0)"/>
    </g>
   </g>
   <g id="legend_1">
    <g id="patch_29">
     <path d="M 52.67 260.585969 
L 70.67 260.585969 
L 70.67 254.285969 
L 52.67 254.285969 
z
" style="fill: #1f77b4; stroke: #ffffff; stroke-width: 0.5; stroke-linejoin: miter"/>
    </g>
    <g id="text_24">
     <!-- REST -->
     <g transform="translate(77.87 260.585969) scale(0.09 -0.09)">
      <use xlink:href="#DejaVuSans-52"/>
      <use xlink:href="#DejaVuSans-45" transform="translate(69.482422 0)"/>
      <use xlink:href="#DejaVuSans-53" transform="translate(132.666016 0)"/>
      <use xlink:href="#DejaVuSans-54" transform="translate(196.142578 0)"/>
     </g>
    </g>
    <g id="patch_30">
     <path d="M 52.67 273.796281 
L 70.67 273.796281 
L 70.67 267.496281 
L 52.67 267.496281 
z
" style="fill: #ff7f0e; stroke: #ffffff; stroke-width: 0.5; stroke-linejoin: miter"/>
    </g>
    <g id="text_25">
     <!-- GraphQL -->
     <g transform="translate(77.87 273.796281) scale(0.09 -0.09)">
      <defs>
       <path id="DejaVuSans-47" d="M 3809 666 
L 3809 1919 
L 2778 1919 
L 2778 2438 
L 4434 2438 
L 4434 434 
Q 4069 175 3628 42 
Q 3188 -91 2688 -91 
Q 1594 -91 976 548 
Q 359 1188 359 2328 
Q 359 3472 976 4111 
Q 1594 4750 2688 4750 
Q 3144 4750 3555 4637 
Q 3966 4525 4313 4306 
L 4313 3634 
Q 3963 3931 3569 4081 
Q 3175 4231 2741 4231 
Q 1884 4231 1454 3753 
Q 1025 3275 1025 2328 
Q 1025 1384 1454 906 
Q 1884 428 2741 428 
Q 3075 428 3337 486 
Q 3600 544 3809 666 
z
" transform="scale(0.015625)"/>
      </defs>
      <use xlink:href="#DejaVuSans-47"/>
      <use xlink:href="#DejaVuSans-72" transform="translate(77.490234 0)"/>
      <use xlink:href="#DejaVuSans-61" transform="translate(118.603516 0)"/>
      <use xlink:href="#DejaVuSans-70" transform="translate(179.882812 0)"/>
      <use xlink:href="#DejaVuSans-68" transform="translate(243.359375 0)"/>
      <use xlink:href="#DejaVuSans-51" transform="translate(306.738281 0)"/>
      <use xlink:href="#DejaVuSans-4c" transform="translate(385.449219 0)"/>
     </g>
    </g>
   </g>
  </g>
 </g>
 <defs>
  <clipPath id="pa007ad7418">
   <rect x="44.57" y="48.14925" width="628.63" height="235.61875"/>
  </clipPath>
 </defs>
</svg>
