<?xml version="1.0" encoding="utf-8" standalone="no"?>
<!DOCTYPE svg PUBLIC "-//W3C//DTD SVG 1.1//EN"
  "http://www.w3.org/Graphics/SVG/1.1/DTD/svg11.dtd">
<svg xmlns:xlink="http://www.w3.org/1999/xlink" width="684pt" height="331.2pt" viewBox="0 0 684 331.2" xmlns="http://www.w3.org/2000/svg" version="1.1">
 <metadata>
  <rdf:RDF xmlns:dc="http://purl.org/dc/elements/1.1/" xmlns:cc="http://creativecommons.org/ns#" xmlns:rdf="http://www.w3.org/1999/02/22-rdf-syntax-ns#">
   <cc:Work>
    <dc:type rdf:resource="http://purl.org/dc/dcmitype/StillImage"/>
    <dc:date>2026-07-07T06:06:45.637814</dc:date>
    <dc:format>image/svg+xml</dc:format>
    <dc:creator>
     <cc:Agent>
      <dc:title>Matplotlib v3.10.9, https://matplotlib.org/</dc:title>
     </cc:Agent>
    </dc:creator>
   </cc:Work>
  </rdf:RDF>
 </metadata>
 <defs>
  <style type="text/css">*{stroke-linejoin: round; stroke-linecap: butt}</style>
 </defs>
 <g id="figure_1">
  <g id="patch_1">
   <path d="M 0 331.2 
L 684 331.2 
L 684 0 
L 0 0 
z
" style="fill: #ffffff"/>
  </g>
  <g id="axes_1">
   <g id="patch_2">
    <path d="M 50.87 283.768 
L 673.2 283.768 
L 673.2 48.14925 
L 50.87 48.14925 
z
" style="fill: #ffffff"/>
   </g>
   <g id="matplotlib.axis_1">
    <g id="xtick_1">
     <g id="line2d_1">
      <defs>
       <path id="m41c72e39d5" d="M 0 0 
L 0 3.5 
" style="stroke: #000000; stroke-width: 0.8"/>
      </defs>
      <g>
       <use xlink:href="#m41c72e39d5" x="97.663717" y="283.768" style="stroke: #000000; stroke-width: 0.8"/>
      </g>
     </g>
     <g id="text_1">
      <!-- M1 -->
      <g transform="translate(91.667467 296.84675) scale(0.08 -0.08)">
       <defs>
        <path id="DejaVuSans-4d" d="M 628 4666 
L 1569 4666 
L 2759 1491 
L 3956 4666 
L 4897 4666 
L 4897 0 
L 4281 0 
L 4281 4097 
L 3078 897 
L 2444 897 
L 1241 4097 
L 1241 0 
L 628 0 
L 628 4666 
z
" transform="scale(0.015625)"/>
        <path id="DejaVuSans-31" d="M 794 531 
L 1825 531 
L 1825 4091 
L 703 3866 
L 703 4441 
L 1819 4666 
L 2450 4666 
L 2450 531 
L 3481 531 
L 3481 0 
L 794 0 
L 794 531 
z
" transform="scale(0.015625)"/>
       </defs>
       <use xlink:href="#DejaVuSans-4d"/>
       <use xlink:href="#DejaVuSans-31" transform="translate(86.279297 0)"/>
      </g>
      <!-- low -->
      <g transform="translate(90.833717 305.805) scale(0.08 -0.08)">
       <defs>
        <path id="DejaVuSans-6c" d="M 603 4863 
L 1178 4863 
L 1178 0 
L 603 0 
L 603 4863 
z
" transform="scale(0.015625)"/>
        <path id="DejaVuSans-6f" d="M 1959 3097 
Q 1497 3097 1228 2736 
Q 959 2375 959 1747 
Q 959 1119 1226 758 
Q 1494 397 1959 397 
Q 2419 397 2687 759 
Q 2956 1122 2956 1747 
Q 2956 2369 2687 2733 
Q 2419 3097 1959 3097 
z
M 1959 3584 
Q 2709 3584 3137 3096 
Q 3566 2609 3566 1747 
Q 3566 888 3137 398 
Q 2709 -91 1959 -91 
Q 1206 -91 779 398 
Q 353 888 353 1747 
Q 353 2609 779 3096 
Q 1206 3584 1959 3584 
z
" transform="scale(0.015625)"/>
        <path id="DejaVuSans-77" d="M 269 3500 
L 844 3500 
L 1563 769 
L 2278 3500 
L 2956 3500 
L 3675 769 
L 4391 3500 
L 4966 3500 
L 4050 0 
L 3372 0 
L 2619 2869 
L 1863 0 
L 1184 0 
L 269 3500 
z
" transform="scale(0.015625)"/>
       </defs>
       <use xlink:href="#DejaVuSans-6c"/>
       <use xlink:href="#DejaVuSans-6f" transform="translate(27.783203 0)"/>
       <use xlink:href="#DejaVuSans-77" transform="translate(88.964844 0)"/>
      </g>
     </g>
    </g>
    <g id="xtick_2">
     <g id="line2d_2">
      <g>
       <use xlink:href="#m41c72e39d5" x="145.731223" y="283.768" style="stroke: #000000; stroke-width: 0.8"/>
      </g>
     </g>
     <g id="text_2">
      <!-- M1 -->
      <g transform="translate(139.734973 296.84675) scale(0.08 -0.08)">
       <use xlink:href="#DejaVuSans-4d"/>
       <use xlink:href="#DejaVuSans-31" transform="translate(86.279297 0)"/>
      </g>
      <!-- medium -->
      <g transform="translate(129.291848 305.805) scale(0.08 -0.08)">
       <defs>
        <path id="DejaVuSans-6d" d="M 3328 2828 
Q 3544 3216 3844 3400 
Q 4144 3584 4550 3584 
Q 5097 3584 5394 3201 
Q 5691 2819 5691 2113 
L 5691 0 
L 5113 0 
L 5113 2094 
Q 5113 2597 4934 2840 
Q 4756 3084 4391 3084 
Q 3944 3084 3684 2787 
Q 3425 2491 3425 1978 
L 3425 0 
L 2847 0 
L 2847 2094 
Q 2847 2600 2669 2842 
Q 2491 3084 2119 3084 
Q 1678 3084 1418 2786 
Q 1159 2488 1159 1978 
L 1159 0 
L 581 0 
L 581 3500 
L 1159 3500 
L 1159 2956 
Q 1356 3278 1631 3431 
Q 1906 3584 2284 3584 
Q 2666 3584 2933 3390 
Q 3200 3197 3328 2828 
z
" transform="scale(0.015625)"/>
        <path id="DejaVuSans-65" d="M 3597 1894 
L 3597 1613 
L 953 1613 
Q 991 1019 1311 708 
Q 1631 397 2203 397 
Q 2534 397 2845 478 
Q 3156 559 3463 722 
L 3463 178 
Q 3153 47 2828 -22 
Q 2503 -91 2169 -91 
Q 1331 -91 842 396 
Q 353 884 353 1716 
Q 353 2575 817 3079 
Q 1281 3584 2069 3584 
Q 2775 3584 3186 3129 
Q 3597 2675 3597 1894 
z
M 3022 2063 
Q 3016 2534 2758 2815 
Q 2500 3097 2075 3097 
Q 1594 3097 1305 2825 
Q 1016 2553 972 2059 
L 3022 2063 
z
" transform="scale(0.015625)"/>
        <path id="DejaVuSans-64" d="M 2906 2969 
L 2906 4863 
L 3481 4863 
L 3481 0 
L 2906 0 
L 2906 525 
Q 2725 213 2448 61 
Q 2172 -91 1784 -91 
Q 1150 -91 751 415 
Q 353 922 353 1747 
Q 353 2572 751 3078 
Q 1150 3584 1784 3584 
Q 2172 3584 2448 3432 
Q 2725 3281 2906 2969 
z
M 947 1747 
Q 947 1113 1208 752 
Q 1469 391 1925 391 
Q 2381 391 2643 752 
Q 2906 1113 2906 1747 
Q 2906 2381 2643 2742 
Q 2381 3103 1925 3103 
Q 1469 3103 1208 2742 
Q 947 2381 947 1747 
z
" transform="scale(0.015625)"/>
        <path id="DejaVuSans-69" d="M 603 3500 
L 1178 3500 
L 1178 0 
L 603 0 
L 603 3500 
z
M 603 4863 
L 1178 4863 
L 1178 4134 
L 603 4134 
L 603 4863 
z
" transform="scale(0.015625)"/>
        <path id="DejaVuSans-75" d="M 544 1381 
L 544 3500 
L 1119 3500 
L 1119 1403 
Q 1119 906 1312 657 
Q 1506 409 1894 409 
Q 2359 409 2629 706 
Q 2900 1003 2900 1516 
L 2900 3500 
L 3475 3500 
L 3475 0 
L 2900 0 
L 2900 538 
Q 2691 219 2414 64 
Q 2138 -91 1772 -91 
Q 1169 -91 856 284 
Q 544 659 544 1381 
z
M 1991 3584 
L 1991 3584 
z
" transform="scale(0.015625)"/>
       </defs>
       <use xlink:href="#DejaVuSans-6d"/>
       <use xlink:href="#DejaVuSans-65" transform="translate(97.412109 0)"/>
       <use xlink:href="#DejaVuSans-64" transform="translate(158.935547 0)"/>
       <use xlink:href="#DejaVuSans-69" transform="translate(222.412109 0)"/>
       <use xlink:href="#DejaVuSans-75" transform="translate(250.195312 0)"/>
       <use xlink:href="#DejaVuSans-6d" transform="translate(313.574219 0)"/>
      </g>
     </g>
    </g>
    <g id="xtick_3">
     <g id="line2d_3">
      <g>
       <use xlink:href="#m41c72e39d5" x="193.798729" y="283.768" style="stroke: #000000; stroke-width: 0.8"/>
      </g>
     </g>
     <g id="text_3">
      <!-- M1 -->
      <g transform="translate(187.802479 296.84675) scale(0.08 -0.08)">
       <use xlink:href="#DejaVuSans-4d"/>
       <use xlink:href="#DejaVuSans-31" transform="translate(86.279297 0)"/>
      </g>
      <!-- high -->
      <g transform="translate(185.078104 305.805) scale(0.08 -0.08)">
       <defs>
        <path id="DejaVuSans-68" d="M 3513 2113 
L 3513 0 
L 2938 0 
L 2938 2094 
Q 2938 2591 2744 2837 
Q 2550 3084 2163 3084 
Q 1697 3084 1428 2787 
Q 1159 2491 1159 1978 
L 1159 0 
L 581 0 
L 581 4863 
L 1159 4863 
L 1159 2956 
Q 1366 3272 1645 3428 
Q 1925 3584 2291 3584 
Q 2894 3584 3203 3211 
Q 3513 2838 3513 2113 
z
" transform="scale(0.015625)"/>
        <path id="DejaVuSans-67" d="M 2906 1791 
Q 2906 2416 2648 2759 
Q 2391 3103 1925 3103 
Q 1463 3103 1205 2759 
Q 947 2416 947 1791 
Q 947 1169 1205 825 
Q 1463 481 1925 481 
Q 2391 481 2648 825 
Q 2906 1169 2906 1791 
z
M 3481 434 
Q 3481 -459 3084 -895 
Q 2688 -1331 1869 -1331 
Q 1566 -1331 1297 -1286 
Q 1028 -1241 775 -1147 
L 775 -588 
Q 1028 -725 1275 -790 
Q 1522 -856 1778 -856 
Q 2344 -856 2625 -561 
Q 2906 -266 2906 331 
L 2906 616 
Q 2728 306 2450 153 
Q 2172 0 1784 0 
Q 1141 0 747 490 
Q 353 981 353 1791 
Q 353 2603 747 3093 
Q 1141 3584 1784 3584 
Q 2172 3584 2450 3431 
Q 2728 3278 2906 2969 
L 2906 3500 
L 3481 3500 
L 3481 434 
z
" transform="scale(0.015625)"/>
       </defs>
       <use xlink:href="#DejaVuSans-68"/>
       <use xlink:href="#DejaVuSans-69" transform="translate(63.378906 0)"/>
       <use xlink:href="#DejaVuSans-67" transform="translate(91.162109 0)"/>
       <use xlink:href="#DejaVuSans-68" transform="translate(154.638672 0)"/>
      </g>
     </g>
    </g>
    <g id="xtick_4">
     <g id="line2d_4">
      <g>
       <use xlink:href="#m41c72e39d5" x="241.866235" y="283.768" style="stroke: #000000; stroke-width: 0.8"/>
      </g>
     </g>
     <g id="text_4">
      <!-- M2 -->
      <g transform="translate(235.869985 296.84675) scale(0.08 -0.08)">
       <defs>
        <path id="DejaVuSans-32" d="M 1228 531 
L 3431 531 
L 3431 0 
L 469 0 
L 469 531 
Q 828 903 1448 1529 
Q 2069 2156 2228 2338 
Q 2531 2678 2651 2914 
Q 2772 3150 2772 3378 
Q 2772 3750 2511 3984 
Q 2250 4219 1831 4219 
Q 1534 4219 1204 4116 
Q 875 4013 500 3803 
L 500 4441 
Q 881 4594 1212 4672 
Q 1544 4750 1819 4750 
Q 2544 4750 2975 4387 
Q 3406 4025 3406 3419 
Q 3406 3131 3298 2873 
Q 3191 2616 2906 2266 
Q 2828 2175 2409 1742 
Q 1991 1309 1228 531 
z
" transform="scale(0.015625)"/>
       </defs>
       <use xlink:href="#DejaVuSans-4d"/>
       <use xlink:href="#DejaVuSans-32" transform="translate(86.279297 0)"/>
      </g>
      <!-- low -->
      <g transform="translate(235.036235 305.805) scale(0.08 -0.08)">
       <use xlink:href="#DejaVuSans-6c"/>
       <use xlink:href="#DejaVuSans-6f" transform="translate(27.783203 0)"/>
       <use xlink:href="#DejaVuSans-77" transform="translate(88.964844 0)"/>
      </g>
     </g>
    </g>
    <g id="xtick_5">
     <g id="line2d_5">
      <g>
       <use xlink:href="#m41c72e39d5" x="289.933741" y="283.768" style="stroke: #000000; stroke-width: 0.8"/>
      </g>
     </g>
     <g id="text_5">
      <!-- M2 -->
      <g transform="translate(283.937491 296.84675) scale(0.08 -0.08)">
       <use xlink:href="#DejaVuSans-4d"/>
       <use xlink:href="#DejaVuSans-32" transform="translate(86.279297 0)"/>
      </g>
      <!-- medium -->
      <g transform="translate(273.494366 305.805) scale(0.08 -0.08)">
       <use xlink:href="#DejaVuSans-6d"/>
       <use xlink:href="#DejaVuSans-65" transform="translate(97.412109 0)"/>
       <use xlink:href="#DejaVuSans-64" transform="translate(158.935547 0)"/>
       <use xlink:href="#DejaVuSans-69" transform="translate(222.412109 0)"/>
       <use xlink:href="#DejaVuSans-75" transform="translate(250.195312 0)"/>
       <use xlink:href="#DejaVuSans-6d" transform="translate(313.574219 0)"/>
      </g>
     </g>
    </g>
    <g id="xtick_6">
     <g id="line2d_6">
      <g>
       <use xlink:href="#m41c72e39d5" x="338.001247" y="283.768" style="stroke: #000000; stroke-width: 0.8"/>
      </g>
     </g>
     <g id="text_6">
      <!-- M2 -->
      <g transform="translate(332.004997 296.84675) scale(0.08 -0.08)">
       <use xlink:href="#DejaVuSans-4d"/>
       <use xlink:href="#DejaVuSans-32" transform="translate(86.279297 0)"/>
      </g>
      <!-- high -->
      <g transform="translate(329.280622 305.805) scale(0.08 -0.08)">
       <use xlink:href="#DejaVuSans-68"/>
       <use xlink:href="#DejaVuSans-69" transform="translate(63.378906 0)"/>
       <use xlink:href="#DejaVuSans-67" transform="translate(91.162109 0)"/>
       <use xlink:href="#DejaVuSans-68" transform="translate(154.638672 0)"/>
      </g>
     </g>
    </g>
    <g id="xtick_7">
     <g id="line2d_7">
      <g>
       <use xlink:href="#m41c72e39d5" x="386.068753" y="283.768" style="stroke: #000000; stroke-width: 0.8"/>
      </g>
     </g>
     <g id="text_7">
      <!-- M3 -->
      <g transform="translate(380.072503 296.84675) scale(0.08 -0.08)">
       <defs>
        <path id="DejaVuSans-33" d="M 2597 2516 
Q 3050 2419 3304 2112 
Q 3559 1806 3559 1356 
Q 3559 666 3084 287 
Q 2609 -91 1734 -91 
Q 1441 -91 1130 -33 
Q 819 25 488 141 
L 488 750 
Q 750 597 1062 519 
Q 1375 441 1716 441 
Q 2309 441 2620 675 
Q 2931 909 2931 1356 
Q 2931 1769 2642 2001 
Q 2353 2234 1838 2234 
L 1294 2234 
L 1294 2753 
L 1863 2753 
Q 2328 2753 2575 2939 
Q 2822 3125 2822 3475 
Q 2822 3834 2567 4026 
Q 2313 4219 1838 4219 
Q 1578 4219 1281 4162 
Q 984 4106 628 3988 
L 628 4550 
Q 988 4650 1302 4700 
Q 1616 4750 1894 4750 
Q 2613 4750 3031 4423 
Q 3450 4097 3450 3541 
Q 3450 3153 3228 2886 
Q 3006 2619 2597 2516 
z
" transform="scale(0.015625)"/>
       </defs>
       <use xlink:href="#DejaVuSans-4d"/>
       <use xlink:href="#DejaVuSans-33" transform="translate(86.279297 0)"/>
      </g>
      <!-- low -->
      <g transform="translate(379.238753 305.805) scale(0.08 -0.08)">
       <use xlink:href="#DejaVuSans-6c"/>
       <use xlink:href="#DejaVuSans-6f" transform="translate(27.783203 0)"/>
       <use xlink:href="#DejaVuSans-77" transform="translate(88.964844 0)"/>
      </g>
     </g>
    </g>
    <g id="xtick_8">
     <g id="line2d_8">
      <g>
       <use xlink:href="#m41c72e39d5" x="434.136259" y="283.768" style="stroke: #000000; stroke-width: 0.8"/>
      </g>
     </g>
     <g id="text_8">
      <!-- M3 -->
      <g transform="translate(428.140009 296.84675) scale(0.08 -0.08)">
       <use xlink:href="#DejaVuSans-4d"/>
       <use xlink:href="#DejaVuSans-33" transform="translate(86.279297 0)"/>
      </g>
      <!-- medium -->
      <g transform="translate(417.696884 305.805) scale(0.08 -0.08)">
       <use xlink:href="#DejaVuSans-6d"/>
       <use xlink:href="#DejaVuSans-65" transform="translate(97.412109 0)"/>
       <use xlink:href="#DejaVuSans-64" transform="translate(158.935547 0)"/>
       <use xlink:href="#DejaVuSans-69" transform="translate(222.412109 0)"/>
       <use xlink:href="#DejaVuSans-75" transform="translate(250.195312 0)"/>
       <use xlink:href="#DejaVuSans-6d" transform="translate(313.574219 0)"/>
      </g>
     </g>
    </g>
    <g id="xtick_9">
     <g id="line2d_9">
      <g>
       <use xlink:href="#m41c72e39d5" x="482.203765" y="283.768" style="stroke: #000000; stroke-width: 0.8"/>
      </g>
     </g>
     <g id="text_9">
      <!-- M3 -->
      <g transform="translate(476.207515 296.84675) scale(0.08 -0.08)">
       <use xlink:href="#DejaVuSans-4d"/>
       <use xlink:href="#DejaVuSans-33" transform="translate(86.279297 0)"/>
      </g>
      <!-- high -->
      <g transform="translate(473.48314 305.805) scale(0.08 -0.08)">
       <use xlink:href="#DejaVuSans-68"/>
       <use xlink:href="#DejaVuSans-69" transform="translate(63.378906 0)"/>
       <use xlink:href="#DejaVuSans-67" transform="translate(91.162109 0)"/>
       <use xlink:href="#DejaVuSans-68" transform="translate(154.638672 0)"/>
      </g>
     </g>
    </g>
    <g id="xtick_10">
     <g id="line2d_10">
      <g>
       <use xlink:href="#m41c72e39d5" x="530.271271" y="283.768" style="stroke: #000000; stroke-width: 0.8"/>
      </g>
     </g>
     <g id="text_10">
      <!-- M4 -->
      <g transform="translate(524.275021 296.84675) scale(0.08 -0.08)">
       <defs>
        <path id="DejaVuSans-34" d="M 2419 4116 
L 825 1625 
L 2419 1625 
L 2419 4116 
z
M 2253 4666 
L 3047 4666 
L 3047 1625 
L 3713 1625 
L 3713 1100 
L 3047 1100 
L 3047 0 
L 2419 0 
L 2419 1100 
L 313 1100 
L 313 1709 
L 2253 4666 
z
" transform="scale(0.015625)"/>
       </defs>
       <use xlink:href="#DejaVuSans-4d"/>
       <use xlink:href="#DejaVuSans-34" transform="translate(86.279297 0)"/>
      </g>
      <!-- low -->
      <g transform="translate(523.441271 305.805) scale(0.08 -0.08)">
       <use xlink:href="#DejaVuSans-6c"/>
       <use xlink:href="#DejaVuSans-6f" transform="translate(27.783203 0)"/>
       <use xlink:href="#DejaVuSans-77" transform="translate(88.964844 0)"/>
      </g>
     </g>
    </g>
    <g id="xtick_11">
     <g id="line2d_11">
      <g>
       <use xlink:href="#m41c72e39d5" x="578.338777" y="283.768" style="stroke: #000000; stroke-width: 0.8"/>
      </g>
     </g>
     <g id="text_11">
      <!-- M4 -->
      <g transform="translate(572.342527 296.84675) scale(0.08 -0.08)">
       <use xlink:href="#DejaVuSans-4d"/>
       <use xlink:href="#DejaVuSans-34" transform="translate(86.279297 0)"/>
      </g>
      <!-- medium -->
      <g transform="translate(561.899402 305.805) scale(0.08 -0.08)">
       <use xlink:href="#DejaVuSans-6d"/>
       <use xlink:href="#DejaVuSans-65" transform="translate(97.412109 0)"/>
       <use xlink:href="#DejaVuSans-64" transform="translate(158.935547 0)"/>
       <use xlink:href="#DejaVuSans-69" transform="translate(222.412109 0)"/>
       <use xlink:href="#DejaVuSans-75" transform="translate(250.195312 0)"/>
       <use xlink:href="#DejaVuSans-6d" transform="translate(313.574219 0)"/>
      </g>
     </g>
    </g>
    <g id="xtick_12">
     <g id="line2d_12">
      <g>
       <use xlink:href="#m41c72e39d5" x="626.406283" y="283.768" style="stroke: #000000; stroke-width: 0.8"/>
      </g>
     </g>
     <g id="text_12">
      <!-- M4 -->
      <g transform="translate(620.410033 296.84675) scale(0.08 -0.08)">
       <use xlink:href="#DejaVuSans-4d"/>
       <use xlink:href="#DejaVuSans-34" transform="translate(86.279297 0)"/>
      </g>
      <!-- high -->
      <g transform="translate(617.685658 305.805) scale(0.08 -0.08)">
       <use xlink:href="#DejaVuSans-68"/>
       <use xlink:href="#DejaVuSans-69" transform="translate(63.378906 0)"/>
       <use xlink:href="#DejaVuSans-67" transform="translate(91.162109 0)"/>
       <use xlink:href="#DejaVuSans-68" transform="translate(154.638672 0)"/>
      </g>
     </g>
    </g>
    <g id="text_13">
     <!-- Skenario × tier densitas objek -->
     <g transform="translate(286.669375 319.067187) scale(0.1 -0.1)">
      <defs>
       <path id="DejaVuSans-53" d="M 3425 4513 
L 3425 3897 
Q 3066 4069 2747 4153 
Q 2428 4238 2131 4238 
Q 1616 4238 1336 4038 
Q 1056 3838 1056 3469 
Q 1056 3159 1242 3001 
Q 1428 2844 1947 2747 
L 2328 2669 
Q 3034 2534 3370 2195 
Q 3706 1856 3706 1288 
Q 3706 609 3251 259 
Q 2797 -91 1919 -91 
Q 1588 -91 1214 -16 
Q 841 59 441 206 
L 441 856 
Q 825 641 1194 531 
Q 1563 422 1919 422 
Q 2459 422 2753 634 
Q 3047 847 3047 1241 
Q 3047 1584 2836 1778 
Q 2625 1972 2144 2069 
L 1759 2144 
Q 1053 2284 737 2584 
Q 422 2884 422 3419 
Q 422 4038 858 4394 
Q 1294 4750 2059 4750 
Q 2388 4750 2728 4690 
Q 3069 4631 3425 4513 
z
" transform="scale(0.015625)"/>
       <path id="DejaVuSans-6b" d="M 581 4863 
L 1159 4863 
L 1159 1991 
L 2875 3500 
L 3609 3500 
L 1753 1863 
L 3688 0 
L 2938 0 
L 1159 1709 
L 1159 0 
L 581 0 
L 581 4863 
z
" transform="scale(0.015625)"/>
       <path id="DejaVuSans-6e" d="M 3513 2113 
L 3513 0 
L 2938 0 
L 2938 2094 
Q 2938 2591 2744 2837 
Q 2550 3084 2163 3084 
Q 1697 3084 1428 2787 
Q 1159 2491 1159 1978 
L 1159 0 
L 581 0 
L 581 3500 
L 1159 3500 
L 1159 2956 
Q 1366 3272 1645 3428 
Q 1925 3584 2291 3584 
Q 2894 3584 3203 3211 
Q 3513 2838 3513 2113 
z
" transform="scale(0.015625)"/>
       <path id="DejaVuSans-61" d="M 2194 1759 
Q 1497 1759 1228 1600 
Q 959 1441 959 1056 
Q 959 750 1161 570 
Q 1363 391 1709 391 
Q 2188 391 2477 730 
Q 2766 1069 2766 1631 
L 2766 1759 
L 2194 1759 
z
M 3341 1997 
L 3341 0 
L 2766 0 
L 2766 531 
Q 2569 213 2275 61 
Q 1981 -91 1556 -91 
Q 1019 -91 701 211 
Q 384 513 384 1019 
Q 384 1609 779 1909 
Q 1175 2209 1959 2209 
L 2766 2209 
L 2766 2266 
Q 2766 2663 2505 2880 
Q 2244 3097 1772 3097 
Q 1472 3097 1187 3025 
Q 903 2953 641 2809 
L 641 3341 
Q 956 3463 1253 3523 
Q 1550 3584 1831 3584 
Q 2591 3584 2966 3190 
Q 3341 2797 3341 1997 
z
" transform="scale(0.015625)"/>
       <path id="DejaVuSans-72" d="M 2631 2963 
Q 2534 3019 2420 3045 
Q 2306 3072 2169 3072 
Q 1681 3072 1420 2755 
Q 1159 2438 1159 1844 
L 1159 0 
L 581 0 
L 581 3500 
L 1159 3500 
L 1159 2956 
Q 1341 3275 1631 3429 
Q 1922 3584 2338 3584 
Q 2397 3584 2469 3576 
Q 2541 3569 2628 3553 
L 2631 2963 
z
" transform="scale(0.015625)"/>
       <path id="DejaVuSans-20" transform="scale(0.015625)"/>
       <path id="DejaVuSans-d7" d="M 4488 3438 
L 3059 2003 
L 4488 575 
L 4116 197 
L 2681 1631 
L 1247 197 
L 878 575 
L 2303 2003 
L 878 3438 
L 1247 3816 
L 2681 2381 
L 4116 3816 
L 4488 3438 
z
" transform="scale(0.015625)"/>
       <path id="DejaVuSans-74" d="M 1172 4494 
L 1172 3500 
L 2356 3500 
L 2356 3053 
L 1172 3053 
L 1172 1153 
Q 1172 725 1289 603 
Q 1406 481 1766 481 
L 2356 481 
L 2356 0 
L 1766 0 
Q 1100 0 847 248 
Q 594 497 594 1153 
L 594 3053 
L 172 3053 
L 172 3500 
L 594 3500 
L 594 4494 
L 1172 4494 
z
" transform="scale(0.015625)"/>
       <path id="DejaVuSans-73" d="M 2834 3397 
L 2834 2853 
Q 2591 2978 2328 3040 
Q 2066 3103 1784 3103 
Q 1356 3103 1142 2972 
Q 928 2841 928 2578 
Q 928 2378 1081 2264 
Q 1234 2150 1697 2047 
L 1894 2003 
Q 2506 1872 2764 1633 
Q 3022 1394 3022 966 
Q 3022 478 2636 193 
Q 2250 -91 1575 -91 
Q 1294 -91 989 -36 
Q 684 19 347 128 
L 347 722 
Q 666 556 975 473 
Q 1284 391 1588 391 
Q 1994 391 2212 530 
Q 2431 669 2431 922 
Q 2431 1156 2273 1281 
Q 2116 1406 1581 1522 
L 1381 1569 
Q 847 1681 609 1914 
Q 372 2147 372 2553 
Q 372 3047 722 3315 
Q 1072 3584 1716 3584 
Q 2034 3584 2315 3537 
Q 2597 3491 2834 3397 
z
" transform="scale(0.015625)"/>
       <path id="DejaVuSans-62" d="M 3116 1747 
Q 3116 2381 2855 2742 
Q 2594 3103 2138 3103 
Q 1681 3103 1420 2742 
Q 1159 2381 1159 1747 
Q 1159 1113 1420 752 
Q 1681 391 2138 391 
Q 2594 391 2855 752 
Q 3116 1113 3116 1747 
z
M 1159 2969 
Q 1341 3281 1617 3432 
Q 1894 3584 2278 3584 
Q 2916 3584 3314 3078 
Q 3713 2572 3713 1747 
Q 3713 922 3314 415 
Q 2916 -91 2278 -91 
Q 1894 -91 1617 61 
Q 1341 213 1159 525 
L 1159 0 
L 581 0 
L 581 4863 
L 1159 4863 
L 1159 2969 
z
" transform="scale(0.015625)"/>
       <path id="DejaVuSans-6a" d="M 603 3500 
L 1178 3500 
L 1178 -63 
Q 1178 -731 923 -1031 
Q 669 -1331 103 -1331 
L -116 -1331 
L -116 -844 
L 38 -844 
Q 366 -844 484 -692 
Q 603 -541 603 -63 
L 603 3500 
z
M 603 4863 
L 1178 4863 
L 1178 4134 
L 603 4134 
L 603 4863 
z
" transform="scale(0.015625)"/>
      </defs>
      <use xlink:href="#DejaVuSans-53"/>
      <use xlink:href="#DejaVuSans-6b" transform="translate(63.476562 0)"/>
      <use xlink:href="#DejaVuSans-65" transform="translate(117.761719 0)"/>
      <use xlink:href="#DejaVuSans-6e" transform="translate(179.285156 0)"/>
      <use xlink:href="#DejaVuSans-61" transform="translate(242.664062 0)"/>
      <use xlink:href="#DejaVuSans-72" transform="translate(303.943359 0)"/>
      <use xlink:href="#DejaVuSans-69" transform="translate(345.056641 0)"/>
      <use xlink:href="#DejaVuSans-6f" transform="translate(372.839844 0)"/>
      <use xlink:href="#DejaVuSans-20" transform="translate(434.021484 0)"/>
      <use xlink:href="#DejaVuSans-d7" transform="translate(465.808594 0)"/>
      <use xlink:href="#DejaVuSans-20" transform="translate(549.597656 0)"/>
      <use xlink:href="#DejaVuSans-74" transform="translate(581.384766 0)"/>
      <use xlink:href="#DejaVuSans-69" transform="translate(620.59375 0)"/>
      <use xlink:href="#DejaVuSans-65" transform="translate(648.376953 0)"/>
      <use xlink:href="#DejaVuSans-72" transform="translate(709.900391 0)"/>
      <use xlink:href="#DejaVuSans-20" transform="translate(751.013672 0)"/>
      <use xlink:href="#DejaVuSans-64" transform="translate(782.800781 0)"/>
      <use xlink:href="#DejaVuSans-65" transform="translate(846.277344 0)"/>
      <use xlink:href="#DejaVuSans-6e" transform="translate(907.800781 0)"/>
      <use xlink:href="#DejaVuSans-73" transform="translate(971.179688 0)"/>
      <use xlink:href="#DejaVuSans-69" transform="translate(1023.279297 0)"/>
      <use xlink:href="#DejaVuSans-74" transform="translate(1051.0625 0)"/>
      <use xlink:href="#DejaVuSans-61" transform="translate(1090.271484 0)"/>
      <use xlink:href="#DejaVuSans-73" transform="translate(1151.550781 0)"/>
      <use xlink:href="#DejaVuSans-20" transform="translate(1203.650391 0)"/>
      <use xlink:href="#DejaVuSans-6f" transform="translate(1235.4375 0)"/>
      <use xlink:href="#DejaVuSans-62" transform="translate(1296.619141 0)"/>
      <use xlink:href="#DejaVuSans-6a" transform="translate(1360.095703 0)"/>
      <use xlink:href="#DejaVuSans-65" transform="translate(1387.878906 0)"/>
      <use xlink:href="#DejaVuSans-6b" transform="translate(1449.402344 0)"/>
     </g>
    </g>
   </g>
   <g id="matplotlib.axis_2">
    <g id="ytick_1">
     <g id="line2d_13">
      <path d="M 50.87 283.768 
L 673.2 283.768 
" clip-path="url(#pd7ca2feb90)" style="fill: none; stroke: #b0b0b0; stroke-opacity: 0.4; stroke-width: 0.4; stroke-linecap: square"/>
     </g>
     <g id="line2d_14">
      <defs>
       <path id="mf3ef1719ee" d="M 0 0 
L -3.5 0 
" style="stroke: #000000; stroke-width: 0.8"/>
      </defs>
      <g>
       <use xlink:href="#mf3ef1719ee" x="50.87" y="283.768" style="stroke: #000000; stroke-width: 0.8"/>
      </g>
     </g>
     <g id="text_14">
      <!-- 0 -->
      <g transform="translate(37.5075 287.567219) scale(0.1 -0.1)">
       <defs>
        <path id="DejaVuSans-30" d="M 2034 4250 
Q 1547 4250 1301 3770 
Q 1056 3291 1056 2328 
Q 1056 1369 1301 889 
Q 1547 409 2034 409 
Q 2525 409 2770 889 
Q 3016 1369 3016 2328 
Q 3016 3291 2770 3770 
Q 2525 4250 2034 4250 
z
M 2034 4750 
Q 2819 4750 3233 4129 
Q 3647 3509 3647 2328 
Q 3647 1150 3233 529 
Q 2819 -91 2034 -91 
Q 1250 -91 836 529 
Q 422 1150 422 2328 
Q 422 3509 836 4129 
Q 1250 4750 2034 4750 
z
" transform="scale(0.015625)"/>
       </defs>
       <use xlink:href="#DejaVuSans-30"/>
      </g>
     </g>
    </g>
    <g id="ytick_2">
     <g id="line2d_15">
      <path d="M 50.87 238.553804 
L 673.2 238.553804 
" clip-path="url(#pd7ca2feb90)" style="fill: none; stroke: #b0b0b0; stroke-opacity: 0.4; stroke-width: 0.4; stroke-linecap: square"/>
     </g>
     <g id="line2d_16">
      <g>
       <use xlink:href="#mf3ef1719ee" x="50.87" y="238.553804" style="stroke: #000000; stroke-width: 0.8"/>
      </g>
     </g>
     <g id="text_15">
      <!-- 20 -->
      <g transform="translate(31.145 242.353023) scale(0.1 -0.1)">
       <use xlink:href="#DejaVuSans-32"/>
       <use xlink:href="#DejaVuSans-30" transform="translate(63.623047 0)"/>
      </g>
     </g>
    </g>
    <g id="ytick_3">
     <g id="line2d_17">
      <path d="M 50.87 193.339608 
L 673.2 193.339608 
" clip-path="url(#pd7ca2feb90)" style="fill: none; stroke: #b0b0b0; stroke-opacity: 0.4; stroke-width: 0.4; stroke-linecap: square"/>
     </g>
     <g id="line2d_18">
      <g>
       <use xlink:href="#mf3ef1719ee" x="50.87" y="193.339608" style="stroke: #000000; stroke-width: 0.8"/>
      </g>
     </g>
     <g id="text_16">
      <!-- 40 -->
      <g transform="translate(31.145 197.138826) scale(0.1 -0.1)">
       <use xlink:href="#DejaVuSans-34"/>
       <use xlink:href="#DejaVuSans-30" transform="translate(63.623047 0)"/>
      </g>
     </g>
    </g>
    <g id="ytick_4">
     <g id="line2d_19">
      <path d="M 50.87 148.125411 
L 673.2 148.125411 
" clip-path="url(#pd7ca2feb90)" style="fill: none; stroke: #b0b0b0; stroke-opacity: 0.4; stroke-width: 0.4; stroke-linecap: square"/>
     </g>
     <g id="line2d_20">
      <g>
       <use xlink:href="#mf3ef1719ee" x="50.87" y="148.125411" style="stroke: #000000; stroke-width: 0.8"/>
      </g>
     </g>
     <g id="text_17">
      <!-- 60 -->
      <g transform="translate(31.145 151.92463) scale(0.1 -0.1)">
       <defs>
        <path id="DejaVuSans-36" d="M 2113 2584 
Q 1688 2584 1439 2293 
Q 1191 2003 1191 1497 
Q 1191 994 1439 701 
Q 1688 409 2113 409 
Q 2538 409 2786 701 
Q 3034 994 3034 1497 
Q 3034 2003 2786 2293 
Q 2538 2584 2113 2584 
z
M 3366 4563 
L 3366 3988 
Q 3128 4100 2886 4159 
Q 2644 4219 2406 4219 
Q 1781 4219 1451 3797 
Q 1122 3375 1075 2522 
Q 1259 2794 1537 2939 
Q 1816 3084 2150 3084 
Q 2853 3084 3261 2657 
Q 3669 2231 3669 1497 
Q 3669 778 3244 343 
Q 2819 -91 2113 -91 
Q 1303 -91 875 529 
Q 447 1150 447 2328 
Q 447 3434 972 4092 
Q 1497 4750 2381 4750 
Q 2619 4750 2861 4703 
Q 3103 4656 3366 4563 
z
" transform="scale(0.015625)"/>
       </defs>
       <use xlink:href="#DejaVuSans-36"/>
       <use xlink:href="#DejaVuSans-30" transform="translate(63.623047 0)"/>
      </g>
     </g>
    </g>
    <g id="ytick_5">
     <g id="line2d_21">
      <path d="M 50.87 102.911215 
L 673.2 102.911215 
" clip-path="url(#pd7ca2feb90)" style="fill: none; stroke: #b0b0b0; stroke-opacity: 0.4; stroke-width: 0.4; stroke-linecap: square"/>
     </g>
     <g id="line2d_22">
      <g>
       <use xlink:href="#mf3ef1719ee" x="50.87" y="102.911215" style="stroke: #000000; stroke-width: 0.8"/>
      </g>
     </g>
     <g id="text_18">
      <!-- 80 -->
      <g transform="translate(31.145 106.710434) scale(0.1 -0.1)">
       <defs>
        <path id="DejaVuSans-38" d="M 2034 2216 
Q 1584 2216 1326 1975 
Q 1069 1734 1069 1313 
Q 1069 891 1326 650 
Q 1584 409 2034 409 
Q 2484 409 2743 651 
Q 3003 894 3003 1313 
Q 3003 1734 2745 1975 
Q 2488 2216 2034 2216 
z
M 1403 2484 
Q 997 2584 770 2862 
Q 544 3141 544 3541 
Q 544 4100 942 4425 
Q 1341 4750 2034 4750 
Q 2731 4750 3128 4425 
Q 3525 4100 3525 3541 
Q 3525 3141 3298 2862 
Q 3072 2584 2669 2484 
Q 3125 2378 3379 2068 
Q 3634 1759 3634 1313 
Q 3634 634 3220 271 
Q 2806 -91 2034 -91 
Q 1263 -91 848 271 
Q 434 634 434 1313 
Q 434 1759 690 2068 
Q 947 2378 1403 2484 
z
M 1172 3481 
Q 1172 3119 1398 2916 
Q 1625 2713 2034 2713 
Q 2441 2713 2670 2916 
Q 2900 3119 2900 3481 
Q 2900 3844 2670 4047 
Q 2441 4250 2034 4250 
Q 1625 4250 1398 4047 
Q 1172 3844 1172 3481 
z
" transform="scale(0.015625)"/>
       </defs>
       <use xlink:href="#DejaVuSans-38"/>
       <use xlink:href="#DejaVuSans-30" transform="translate(63.623047 0)"/>
      </g>
     </g>
    </g>
    <g id="ytick_6">
     <g id="line2d_23">
      <path d="M 50.87 57.697019 
L 673.2 57.697019 
" clip-path="url(#pd7ca2feb90)" style="fill: none; stroke: #b0b0b0; stroke-opacity: 0.4; stroke-width: 0.4; stroke-linecap: square"/>
     </g>
     <g id="line2d_24">
      <g>
       <use xlink:href="#mf3ef1719ee" x="50.87" y="57.697019" style="stroke: #000000; stroke-width: 0.8"/>
      </g>
     </g>
     <g id="text_19">
      <!-- 100 -->
      <g transform="translate(24.7825 61.496238) scale(0.1 -0.1)">
       <use xlink:href="#DejaVuSans-31"/>
       <use xlink:href="#DejaVuSans-30" transform="translate(63.623047 0)"/>
       <use xlink:href="#DejaVuSans-30" transform="translate(127.246094 0)"/>
      </g>
     </g>
    </g>
    <g id="text_20">
     <!-- Median CPU server (%) -->
     <g transform="translate(18.702813 223.558625) rotate(-90) scale(0.1 -0.1)">
      <defs>
       <path id="DejaVuSans-43" d="M 4122 4306 
L 4122 3641 
Q 3803 3938 3442 4084 
Q 3081 4231 2675 4231 
Q 1875 4231 1450 3742 
Q 1025 3253 1025 2328 
Q 1025 1406 1450 917 
Q 1875 428 2675 428 
Q 3081 428 3442 575 
Q 3803 722 4122 1019 
L 4122 359 
Q 3791 134 3420 21 
Q 3050 -91 2638 -91 
Q 1578 -91 968 557 
Q 359 1206 359 2328 
Q 359 3453 968 4101 
Q 1578 4750 2638 4750 
Q 3056 4750 3426 4639 
Q 3797 4528 4122 4306 
z
" transform="scale(0.015625)"/>
       <path id="DejaVuSans-50" d="M 1259 4147 
L 1259 2394 
L 2053 2394 
Q 2494 2394 2734 2622 
Q 2975 2850 2975 3272 
Q 2975 3691 2734 3919 
Q 2494 4147 2053 4147 
L 1259 4147 
z
M 628 4666 
L 2053 4666 
Q 2838 4666 3239 4311 
Q 3641 3956 3641 3272 
Q 3641 2581 3239 2228 
Q 2838 1875 2053 1875 
L 1259 1875 
L 1259 0 
L 628 0 
L 628 4666 
z
" transform="scale(0.015625)"/>
       <path id="DejaVuSans-55" d="M 556 4666 
L 1191 4666 
L 1191 1831 
Q 1191 1081 1462 751 
Q 1734 422 2344 422 
Q 2950 422 3222 751 
Q 3494 1081 3494 1831 
L 3494 4666 
L 4128 4666 
L 4128 1753 
Q 4128 841 3676 375 
Q 3225 -91 2344 -91 
Q 1459 -91 1007 375 
Q 556 841 556 1753 
L 556 4666 
z
" transform="scale(0.015625)"/>
       <path id="DejaVuSans-76" d="M 191 3500 
L 800 3500 
L 1894 563 
L 2988 3500 
L 3597 3500 
L 2284 0 
L 1503 0 
L 191 3500 
z
" transform="scale(0.015625)"/>
       <path id="DejaVuSans-28" d="M 1984 4856 
Q 1566 4138 1362 3434 
Q 1159 2731 1159 2009 
Q 1159 1288 1364 580 
Q 1569 -128 1984 -844 
L 1484 -844 
Q 1016 -109 783 600 
Q 550 1309 550 2009 
Q 550 2706 781 3412 
Q 1013 4119 1484 4856 
L 1984 4856 
z
" transform="scale(0.015625)"/>
       <path id="DejaVuSans-25" d="M 4653 2053 
Q 4381 2053 4226 1822 
Q 4072 1591 4072 1178 
Q 4072 772 4226 539 
Q 4381 306 4653 306 
Q 4919 306 5073 539 
Q 5228 772 5228 1178 
Q 5228 1588 5073 1820 
Q 4919 2053 4653 2053 
z
M 4653 2450 
Q 5147 2450 5437 2106 
Q 5728 1763 5728 1178 
Q 5728 594 5436 251 
Q 5144 -91 4653 -91 
Q 4153 -91 3862 251 
Q 3572 594 3572 1178 
Q 3572 1766 3864 2108 
Q 4156 2450 4653 2450 
z
M 1428 4353 
Q 1159 4353 1004 4120 
Q 850 3888 850 3481 
Q 850 3069 1003 2837 
Q 1156 2606 1428 2606 
Q 1700 2606 1854 2837 
Q 2009 3069 2009 3481 
Q 2009 3884 1853 4118 
Q 1697 4353 1428 4353 
z
M 4250 4750 
L 4750 4750 
L 1831 -91 
L 1331 -91 
L 4250 4750 
z
M 1428 4750 
Q 1922 4750 2215 4408 
Q 2509 4066 2509 3481 
Q 2509 2891 2217 2550 
Q 1925 2209 1428 2209 
Q 931 2209 642 2551 
Q 353 2894 353 3481 
Q 353 4063 643 4406 
Q 934 4750 1428 4750 
z
" transform="scale(0.015625)"/>
       <path id="DejaVuSans-29" d="M 513 4856 
L 1013 4856 
Q 1481 4119 1714 3412 
Q 1947 2706 1947 2009 
Q 1947 1309 1714 600 
Q 1481 -109 1013 -844 
L 513 -844 
Q 928 -128 1133 580 
Q 1338 1288 1338 2009 
Q 1338 2731 1133 3434 
Q 928 4138 513 4856 
z
" transform="scale(0.015625)"/>
      </defs>
      <use xlink:href="#DejaVuSans-4d"/>
      <use xlink:href="#DejaVuSans-65" transform="translate(86.279297 0)"/>
      <use xlink:href="#DejaVuSans-64" transform="translate(147.802734 0)"/>
      <use xlink:href="#DejaVuSans-69" transform="translate(211.279297 0)"/>
      <use xlink:href="#DejaVuSans-61" transform="translate(239.0625 0)"/>
      <use xlink:href="#DejaVuSans-6e" transform="translate(300.341797 0)"/>
      <use xlink:href="#DejaVuSans-20" transform="translate(363.720703 0)"/>
      <use xlink:href="#DejaVuSans-43" transform="translate(395.507812 0)"/>
      <use xlink:href="#DejaVuSans-50" transform="translate(465.332031 0)"/>
      <use xlink:href="#DejaVuSans-55" transform="translate(525.634766 0)"/>
      <use xlink:href="#DejaVuSans-20" transform="translate(598.828125 0)"/>
      <use xlink:href="#DejaVuSans-73" transform="translate(630.615234 0)"/>
      <use xlink:href="#DejaVuSans-65" transform="translate(682.714844 0)"/>
      <use xlink:href="#DejaVuSans-72" transform="translate(744.238281 0)"/>
      <use xlink:href="#DejaVuSans-76" transform="translate(785.351562 0)"/>
      <use xlink:href="#DejaVuSans-65" transform="translate(844.53125 0)"/>
      <use xlink:href="#DejaVuSans-72" transform="translate(906.054688 0)"/>
      <use xlink:href="#DejaVuSans-20" transform="translate(947.167969 0)"/>
      <use xlink:href="#DejaVuSans-28" transform="translate(978.955078 0)"/>
      <use xlink:href="#DejaVuSans-25" transform="translate(1017.96875 0)"/>
      <use xlink:href="#DejaVuSans-29" transform="translate(1112.988281 0)"/>
     </g>
    </g>
   </g>
   <g id="patch_3">
    <path d="M 79.157727 283.768 
L 96.462029 283.768 
L 96.462029 249.6328 
L 79.157727 249.6328 
z
" clip-path="url(#pd7ca2feb90)" style="fill: #1f77b4; stroke: #ffffff; stroke-width: 0.5; stroke-linejoin: miter"/>
   </g>
   <g id="patch_4">
    <path d="M 98.865405 283.768 
L 116.169707 283.768 
L 116.169707 153.28132 
L 98.865405 153.28132 
z
" clip-path="url(#pd7ca2feb90)" style="fill: #ff7f0e; stroke: #ffffff; stroke-width: 0.5; stroke-linejoin: miter"/>
   </g>
   <g id="patch_5">
    <path d="M 127.225233 283.768 
L 144.529535 283.768 
L 144.529535 241.746125 
L 127.225233 241.746125 
z
" clip-path="url(#pd7ca2feb90)" style="fill: #1f77b4; stroke: #ffffff; stroke-width: 0.5; stroke-linejoin: miter"/>
   </g>
   <g id="patch_6">
    <path d="M 146.932911 283.768 
L 164.237213 283.768 
L 164.237213 108.837339 
L 146.932911 108.837339 
z
" clip-path="url(#pd7ca2feb90)" style="fill: #ff7f0e; stroke: #ffffff; stroke-width: 0.5; stroke-linejoin: miter"/>
   </g>
   <g id="patch_7">
    <path d="M 175.292739 283.768 
L 192.597041 283.768 
L 192.597041 223.965325 
L 175.292739 223.965325 
z
" clip-path="url(#pd7ca2feb90)" style="fill: #1f77b4; stroke: #ffffff; stroke-width: 0.5; stroke-linejoin: miter"/>
   </g>
   <g id="patch_8">
    <path d="M 195.000417 283.768 
L 212.304719 283.768 
L 212.304719 59.648064 
L 195.000417 59.648064 
z
" clip-path="url(#pd7ca2feb90)" style="fill: #ff7f0e; stroke: #ffffff; stroke-width: 0.5; stroke-linejoin: miter"/>
   </g>
   <g id="patch_9">
    <path d="M 223.360245 283.768 
L 240.664547 283.768 
L 240.664547 251.118823 
L 223.360245 251.118823 
z
" clip-path="url(#pd7ca2feb90)" style="fill: #1f77b4; stroke: #ffffff; stroke-width: 0.5; stroke-linejoin: miter"/>
   </g>
   <g id="patch_10">
    <path d="M 243.067923 283.768 
L 260.372225 283.768 
L 260.372225 167.970676 
L 243.067923 167.970676 
z
" clip-path="url(#pd7ca2feb90)" style="fill: #ff7f0e; stroke: #ffffff; stroke-width: 0.5; stroke-linejoin: miter"/>
   </g>
   <g id="patch_11">
    <path d="M 271.427751 283.768 
L 288.732053 283.768 
L 288.732053 244.242843 
L 271.427751 244.242843 
z
" clip-path="url(#pd7ca2feb90)" style="fill: #1f77b4; stroke: #ffffff; stroke-width: 0.5; stroke-linejoin: miter"/>
   </g>
   <g id="patch_12">
    <path d="M 291.135429 283.768 
L 308.439731 283.768 
L 308.439731 146.681359 
L 291.135429 146.681359 
z
" clip-path="url(#pd7ca2feb90)" style="fill: #ff7f0e; stroke: #ffffff; stroke-width: 0.5; stroke-linejoin: miter"/>
   </g>
   <g id="patch_13">
    <path d="M 319.495257 283.768 
L 336.799559 283.768 
L 336.799559 232.355484 
L 319.495257 232.355484 
z
" clip-path="url(#pd7ca2feb90)" style="fill: #1f77b4; stroke: #ffffff; stroke-width: 0.5; stroke-linejoin: miter"/>
   </g>
   <g id="patch_14">
    <path d="M 339.202935 283.768 
L 356.507237 283.768 
L 356.507237 103.819226 
L 339.202935 103.819226 
z
" clip-path="url(#pd7ca2feb90)" style="fill: #ff7f0e; stroke: #ffffff; stroke-width: 0.5; stroke-linejoin: miter"/>
   </g>
   <g id="patch_15">
    <path d="M 367.562763 283.768 
L 384.867065 283.768 
L 384.867065 250.652328 
L 367.562763 250.652328 
z
" clip-path="url(#pd7ca2feb90)" style="fill: #1f77b4; stroke: #ffffff; stroke-width: 0.5; stroke-linejoin: miter"/>
   </g>
   <g id="patch_16">
    <path d="M 387.270441 283.768 
L 404.574743 283.768 
L 404.574743 139.843678 
L 387.270441 139.843678 
z
" clip-path="url(#pd7ca2feb90)" style="fill: #ff7f0e; stroke: #ffffff; stroke-width: 0.5; stroke-linejoin: miter"/>
   </g>
   <g id="patch_17">
    <path d="M 415.630269 283.768 
L 432.934571 283.768 
L 432.934571 248.726998 
L 415.630269 248.726998 
z
" clip-path="url(#pd7ca2feb90)" style="fill: #1f77b4; stroke: #ffffff; stroke-width: 0.5; stroke-linejoin: miter"/>
   </g>
   <g id="patch_18">
    <path d="M 435.337947 283.768 
L 452.642249 283.768 
L 452.642249 134.485382 
L 435.337947 134.485382 
z
" clip-path="url(#pd7ca2feb90)" style="fill: #ff7f0e; stroke: #ffffff; stroke-width: 0.5; stroke-linejoin: miter"/>
   </g>
   <g id="patch_19">
    <path d="M 463.697775 283.768 
L 481.002077 283.768 
L 481.002077 242.466571 
L 463.697775 242.466571 
z
" clip-path="url(#pd7ca2feb90)" style="fill: #1f77b4; stroke: #ffffff; stroke-width: 0.5; stroke-linejoin: miter"/>
   </g>
   <g id="patch_20">
    <path d="M 483.405453 283.768 
L 500.709755 283.768 
L 500.709755 111.336127 
L 483.405453 111.336127 
z
" clip-path="url(#pd7ca2feb90)" style="fill: #ff7f0e; stroke: #ffffff; stroke-width: 0.5; stroke-linejoin: miter"/>
   </g>
   <g id="patch_21">
    <path d="M 511.765281 283.768 
L 529.069583 283.768 
L 529.069583 254.78461 
L 511.765281 254.78461 
z
" clip-path="url(#pd7ca2feb90)" style="fill: #1f77b4; stroke: #ffffff; stroke-width: 0.5; stroke-linejoin: miter"/>
   </g>
   <g id="patch_22">
    <path d="M 531.472959 283.768 
L 548.777261 283.768 
L 548.777261 184.746288 
L 531.472959 184.746288 
z
" clip-path="url(#pd7ca2feb90)" style="fill: #ff7f0e; stroke: #ffffff; stroke-width: 0.5; stroke-linejoin: miter"/>
   </g>
   <g id="patch_23">
    <path d="M 559.832787 283.768 
L 577.137089 283.768 
L 577.137089 248.652469 
L 559.832787 248.652469 
z
" clip-path="url(#pd7ca2feb90)" style="fill: #1f77b4; stroke: #ffffff; stroke-width: 0.5; stroke-linejoin: miter"/>
   </g>
   <g id="patch_24">
    <path d="M 579.540465 283.768 
L 596.844767 283.768 
L 596.844767 175.192084 
L 579.540465 175.192084 
z
" clip-path="url(#pd7ca2feb90)" style="fill: #ff7f0e; stroke: #ffffff; stroke-width: 0.5; stroke-linejoin: miter"/>
   </g>
   <g id="patch_25">
    <path d="M 607.900293 283.768 
L 625.204595 283.768 
L 625.204595 241.857918 
L 607.900293 241.857918 
z
" clip-path="url(#pd7ca2feb90)" style="fill: #1f77b4; stroke: #ffffff; stroke-width: 0.5; stroke-linejoin: miter"/>
   </g>
   <g id="patch_26">
    <path d="M 627.607971 283.768 
L 644.912273 283.768 
L 644.912273 168.179481 
L 627.607971 168.179481 
z
" clip-path="url(#pd7ca2feb90)" style="fill: #ff7f0e; stroke: #ffffff; stroke-width: 0.5; stroke-linejoin: miter"/>
   </g>
   <g id="LineCollection_1">
    <path d="M 87.809878 250.012621 
L 87.809878 249.292175 
" clip-path="url(#pd7ca2feb90)" style="fill: none; stroke: #404040; stroke-width: 0.9"/>
   </g>
   <g id="line2d_25">
    <defs>
     <path id="m101dfaa205" d="M 2 0 
L -2 -0 
" style="stroke: #404040"/>
    </defs>
    <g clip-path="url(#pd7ca2feb90)">
     <use xlink:href="#m101dfaa205" x="87.809878" y="250.012621" style="fill: #1f77b4; stroke: #404040"/>
    </g>
   </g>
   <g id="line2d_26">
    <g clip-path="url(#pd7ca2feb90)">
     <use xlink:href="#m101dfaa205" x="87.809878" y="249.292175" style="fill: #1f77b4; stroke: #404040"/>
    </g>
   </g>
   <g id="LineCollection_2">
    <path d="M 107.517556 153.816569 
L 107.517556 152.585862 
" clip-path="url(#pd7ca2feb90)" style="fill: none; stroke: #404040; stroke-width: 0.9"/>
   </g>
   <g id="line2d_27">
    <g clip-path="url(#pd7ca2feb90)">
     <use xlink:href="#m101dfaa205" x="107.517556" y="153.816569" style="fill: #1f77b4; stroke: #404040"/>
    </g>
   </g>
   <g id="line2d_28">
    <g clip-path="url(#pd7ca2feb90)">
     <use xlink:href="#m101dfaa205" x="107.517556" y="152.585862" style="fill: #1f77b4; stroke: #404040"/>
    </g>
   </g>
   <g id="LineCollection_3">
    <path d="M 135.877384 242.268448 
L 135.877384 241.536961 
" clip-path="url(#pd7ca2feb90)" style="fill: none; stroke: #404040; stroke-width: 0.9"/>
   </g>
   <g id="line2d_29">
    <g clip-path="url(#pd7ca2feb90)">
     <use xlink:href="#m101dfaa205" x="135.877384" y="242.268448" style="fill: #1f77b4; stroke: #404040"/>
    </g>
   </g>
   <g id="line2d_30">
    <g clip-path="url(#pd7ca2feb90)">
     <use xlink:href="#m101dfaa205" x="135.877384" y="241.536961" style="fill: #1f77b4; stroke: #404040"/>
    </g>
   </g>
   <g id="LineCollection_4">
    <path d="M 155.585062 109.73123 
L 155.585062 107.563681 
" clip-path="url(#pd7ca2feb90)" style="fill: none; stroke: #404040; stroke-width: 0.9"/>
   </g>
   <g id="line2d_31">
    <g clip-path="url(#pd7ca2feb90)">
     <use xlink:href="#m101dfaa205" x="155.585062" y="109.73123" style="fill: #1f77b4; stroke: #404040"/>
    </g>
   </g>
   <g id="line2d_32">
    <g clip-path="url(#pd7ca2feb90)">
     <use xlink:href="#m101dfaa205" x="155.585062" y="107.563681" style="fill: #1f77b4; stroke: #404040"/>
    </g>
   </g>
   <g id="LineCollection_5">
    <path d="M 183.94489 224.318785 
L 183.94489 223.624217 
" clip-path="url(#pd7ca2feb90)" style="fill: none; stroke: #404040; stroke-width: 0.9"/>
   </g>
   <g id="line2d_33">
    <g clip-path="url(#pd7ca2feb90)">
     <use xlink:href="#m101dfaa205" x="183.94489" y="224.318785" style="fill: #1f77b4; stroke: #404040"/>
    </g>
   </g>
   <g id="line2d_34">
    <g clip-path="url(#pd7ca2feb90)">
     <use xlink:href="#m101dfaa205" x="183.94489" y="223.624217" style="fill: #1f77b4; stroke: #404040"/>
    </g>
   </g>
   <g id="LineCollection_6">
    <path d="M 203.652568 59.965303 
L 203.652568 59.36919 
" clip-path="url(#pd7ca2feb90)" style="fill: none; stroke: #404040; stroke-width: 0.9"/>
   </g>
   <g id="line2d_35">
    <g clip-path="url(#pd7ca2feb90)">
     <use xlink:href="#m101dfaa205" x="203.652568" y="59.965303" style="fill: #1f77b4; stroke: #404040"/>
    </g>
   </g>
   <g id="line2d_36">
    <g clip-path="url(#pd7ca2feb90)">
     <use xlink:href="#m101dfaa205" x="203.652568" y="59.36919" style="fill: #1f77b4; stroke: #404040"/>
    </g>
   </g>
   <g id="LineCollection_7">
    <path d="M 232.012396 251.613543 
L 232.012396 250.840513 
" clip-path="url(#pd7ca2feb90)" style="fill: none; stroke: #404040; stroke-width: 0.9"/>
   </g>
   <g id="line2d_37">
    <g clip-path="url(#pd7ca2feb90)">
     <use xlink:href="#m101dfaa205" x="232.012396" y="251.613543" style="fill: #1f77b4; stroke: #404040"/>
    </g>
   </g>
   <g id="line2d_38">
    <g clip-path="url(#pd7ca2feb90)">
     <use xlink:href="#m101dfaa205" x="232.012396" y="250.840513" style="fill: #1f77b4; stroke: #404040"/>
    </g>
   </g>
   <g id="LineCollection_8">
    <path d="M 251.720074 168.509685 
L 251.720074 167.396921 
" clip-path="url(#pd7ca2feb90)" style="fill: none; stroke: #404040; stroke-width: 0.9"/>
   </g>
   <g id="line2d_39">
    <g clip-path="url(#pd7ca2feb90)">
     <use xlink:href="#m101dfaa205" x="251.720074" y="168.509685" style="fill: #1f77b4; stroke: #404040"/>
    </g>
   </g>
   <g id="line2d_40">
    <g clip-path="url(#pd7ca2feb90)">
     <use xlink:href="#m101dfaa205" x="251.720074" y="167.396921" style="fill: #1f77b4; stroke: #404040"/>
    </g>
   </g>
   <g id="LineCollection_9">
    <path d="M 280.079902 244.783177 
L 280.079902 243.423025 
" clip-path="url(#pd7ca2feb90)" style="fill: none; stroke: #404040; stroke-width: 0.9"/>
   </g>
   <g id="line2d_41">
    <g clip-path="url(#pd7ca2feb90)">
     <use xlink:href="#m101dfaa205" x="280.079902" y="244.783177" style="fill: #1f77b4; stroke: #404040"/>
    </g>
   </g>
   <g id="line2d_42">
    <g clip-path="url(#pd7ca2feb90)">
     <use xlink:href="#m101dfaa205" x="280.079902" y="243.423025" style="fill: #1f77b4; stroke: #404040"/>
    </g>
   </g>
   <g id="LineCollection_10">
    <path d="M 299.78758 147.039774 
L 299.78758 146.290469 
" clip-path="url(#pd7ca2feb90)" style="fill: none; stroke: #404040; stroke-width: 0.9"/>
   </g>
   <g id="line2d_43">
    <g clip-path="url(#pd7ca2feb90)">
     <use xlink:href="#m101dfaa205" x="299.78758" y="147.039774" style="fill: #1f77b4; stroke: #404040"/>
    </g>
   </g>
   <g id="line2d_44">
    <g clip-path="url(#pd7ca2feb90)">
     <use xlink:href="#m101dfaa205" x="299.78758" y="146.290469" style="fill: #1f77b4; stroke: #404040"/>
    </g>
   </g>
   <g id="LineCollection_11">
    <path d="M 328.147408 235.430422 
L 328.147408 228.976841 
" clip-path="url(#pd7ca2feb90)" style="fill: none; stroke: #404040; stroke-width: 0.9"/>
   </g>
   <g id="line2d_45">
    <g clip-path="url(#pd7ca2feb90)">
     <use xlink:href="#m101dfaa205" x="328.147408" y="235.430422" style="fill: #1f77b4; stroke: #404040"/>
    </g>
   </g>
   <g id="line2d_46">
    <g clip-path="url(#pd7ca2feb90)">
     <use xlink:href="#m101dfaa205" x="328.147408" y="228.976841" style="fill: #1f77b4; stroke: #404040"/>
    </g>
   </g>
   <g id="LineCollection_12">
    <path d="M 347.855086 104.082561 
L 347.855086 103.540446 
" clip-path="url(#pd7ca2feb90)" style="fill: none; stroke: #404040; stroke-width: 0.9"/>
   </g>
   <g id="line2d_47">
    <g clip-path="url(#pd7ca2feb90)">
     <use xlink:href="#m101dfaa205" x="347.855086" y="104.082561" style="fill: #1f77b4; stroke: #404040"/>
    </g>
   </g>
   <g id="line2d_48">
    <g clip-path="url(#pd7ca2feb90)">
     <use xlink:href="#m101dfaa205" x="347.855086" y="103.540446" style="fill: #1f77b4; stroke: #404040"/>
    </g>
   </g>
   <g id="LineCollection_13">
    <path d="M 376.214914 250.93119 
L 376.214914 250.207846 
" clip-path="url(#pd7ca2feb90)" style="fill: none; stroke: #404040; stroke-width: 0.9"/>
   </g>
   <g id="line2d_49">
    <g clip-path="url(#pd7ca2feb90)">
     <use xlink:href="#m101dfaa205" x="376.214914" y="250.93119" style="fill: #1f77b4; stroke: #404040"/>
    </g>
   </g>
   <g id="line2d_50">
    <g clip-path="url(#pd7ca2feb90)">
     <use xlink:href="#m101dfaa205" x="376.214914" y="250.207846" style="fill: #1f77b4; stroke: #404040"/>
    </g>
   </g>
   <g id="LineCollection_14">
    <path d="M 395.922592 140.560045 
L 395.922592 139.471986 
" clip-path="url(#pd7ca2feb90)" style="fill: none; stroke: #404040; stroke-width: 0.9"/>
   </g>
   <g id="line2d_51">
    <g clip-path="url(#pd7ca2feb90)">
     <use xlink:href="#m101dfaa205" x="395.922592" y="140.560045" style="fill: #1f77b4; stroke: #404040"/>
    </g>
   </g>
   <g id="line2d_52">
    <g clip-path="url(#pd7ca2feb90)">
     <use xlink:href="#m101dfaa205" x="395.922592" y="139.471986" style="fill: #1f77b4; stroke: #404040"/>
    </g>
   </g>
   <g id="LineCollection_15">
    <path d="M 424.28242 249.231931 
L 424.28242 248.217717 
" clip-path="url(#pd7ca2feb90)" style="fill: none; stroke: #404040; stroke-width: 0.9"/>
   </g>
   <g id="line2d_53">
    <g clip-path="url(#pd7ca2feb90)">
     <use xlink:href="#m101dfaa205" x="424.28242" y="249.231931" style="fill: #1f77b4; stroke: #404040"/>
    </g>
   </g>
   <g id="line2d_54">
    <g clip-path="url(#pd7ca2feb90)">
     <use xlink:href="#m101dfaa205" x="424.28242" y="248.217717" style="fill: #1f77b4; stroke: #404040"/>
    </g>
   </g>
   <g id="LineCollection_16">
    <path d="M 443.990098 135.065465 
L 443.990098 133.783623 
" clip-path="url(#pd7ca2feb90)" style="fill: none; stroke: #404040; stroke-width: 0.9"/>
   </g>
   <g id="line2d_55">
    <g clip-path="url(#pd7ca2feb90)">
     <use xlink:href="#m101dfaa205" x="443.990098" y="135.065465" style="fill: #1f77b4; stroke: #404040"/>
    </g>
   </g>
   <g id="line2d_56">
    <g clip-path="url(#pd7ca2feb90)">
     <use xlink:href="#m101dfaa205" x="443.990098" y="133.783623" style="fill: #1f77b4; stroke: #404040"/>
    </g>
   </g>
   <g id="LineCollection_17">
    <path d="M 472.349926 242.901323 
L 472.349926 241.861024 
" clip-path="url(#pd7ca2feb90)" style="fill: none; stroke: #404040; stroke-width: 0.9"/>
   </g>
   <g id="line2d_57">
    <g clip-path="url(#pd7ca2feb90)">
     <use xlink:href="#m101dfaa205" x="472.349926" y="242.901323" style="fill: #1f77b4; stroke: #404040"/>
    </g>
   </g>
   <g id="line2d_58">
    <g clip-path="url(#pd7ca2feb90)">
     <use xlink:href="#m101dfaa205" x="472.349926" y="241.861024" style="fill: #1f77b4; stroke: #404040"/>
    </g>
   </g>
   <g id="LineCollection_18">
    <path d="M 492.057604 111.845366 
L 492.057604 110.754388 
" clip-path="url(#pd7ca2feb90)" style="fill: none; stroke: #404040; stroke-width: 0.9"/>
   </g>
   <g id="line2d_59">
    <g clip-path="url(#pd7ca2feb90)">
     <use xlink:href="#m101dfaa205" x="492.057604" y="111.845366" style="fill: #1f77b4; stroke: #404040"/>
    </g>
   </g>
   <g id="line2d_60">
    <g clip-path="url(#pd7ca2feb90)">
     <use xlink:href="#m101dfaa205" x="492.057604" y="110.754388" style="fill: #1f77b4; stroke: #404040"/>
    </g>
   </g>
   <g id="LineCollection_19">
    <path d="M 520.417432 255.075618 
L 520.417432 254.516927 
" clip-path="url(#pd7ca2feb90)" style="fill: none; stroke: #404040; stroke-width: 0.9"/>
   </g>
   <g id="line2d_61">
    <g clip-path="url(#pd7ca2feb90)">
     <use xlink:href="#m101dfaa205" x="520.417432" y="255.075618" style="fill: #1f77b4; stroke: #404040"/>
    </g>
   </g>
   <g id="line2d_62">
    <g clip-path="url(#pd7ca2feb90)">
     <use xlink:href="#m101dfaa205" x="520.417432" y="254.516927" style="fill: #1f77b4; stroke: #404040"/>
    </g>
   </g>
   <g id="LineCollection_20">
    <path d="M 540.12511 184.885547 
L 540.12511 184.553479 
" clip-path="url(#pd7ca2feb90)" style="fill: none; stroke: #404040; stroke-width: 0.9"/>
   </g>
   <g id="line2d_63">
    <g clip-path="url(#pd7ca2feb90)">
     <use xlink:href="#m101dfaa205" x="540.12511" y="184.885547" style="fill: #1f77b4; stroke: #404040"/>
    </g>
   </g>
   <g id="line2d_64">
    <g clip-path="url(#pd7ca2feb90)">
     <use xlink:href="#m101dfaa205" x="540.12511" y="184.553479" style="fill: #1f77b4; stroke: #404040"/>
    </g>
   </g>
   <g id="LineCollection_21">
    <path d="M 568.484938 249.240626 
L 568.484938 247.842588 
" clip-path="url(#pd7ca2feb90)" style="fill: none; stroke: #404040; stroke-width: 0.9"/>
   </g>
   <g id="line2d_65">
    <g clip-path="url(#pd7ca2feb90)">
     <use xlink:href="#m101dfaa205" x="568.484938" y="249.240626" style="fill: #1f77b4; stroke: #404040"/>
    </g>
   </g>
   <g id="line2d_66">
    <g clip-path="url(#pd7ca2feb90)">
     <use xlink:href="#m101dfaa205" x="568.484938" y="247.842588" style="fill: #1f77b4; stroke: #404040"/>
    </g>
   </g>
   <g id="LineCollection_22">
    <path d="M 588.192616 176.292986 
L 588.192616 166.701738 
" clip-path="url(#pd7ca2feb90)" style="fill: none; stroke: #404040; stroke-width: 0.9"/>
   </g>
   <g id="line2d_67">
    <g clip-path="url(#pd7ca2feb90)">
     <use xlink:href="#m101dfaa205" x="588.192616" y="176.292986" style="fill: #1f77b4; stroke: #404040"/>
    </g>
   </g>
   <g id="line2d_68">
    <g clip-path="url(#pd7ca2feb90)">
     <use xlink:href="#m101dfaa205" x="588.192616" y="166.701738" style="fill: #1f77b4; stroke: #404040"/>
    </g>
   </g>
   <g id="LineCollection_23">
    <path d="M 616.552444 243.018913 
L 616.552444 240.958603 
" clip-path="url(#pd7ca2feb90)" style="fill: none; stroke: #404040; stroke-width: 0.9"/>
   </g>
   <g id="line2d_69">
    <g clip-path="url(#pd7ca2feb90)">
     <use xlink:href="#m101dfaa205" x="616.552444" y="243.018913" style="fill: #1f77b4; stroke: #404040"/>
    </g>
   </g>
   <g id="line2d_70">
    <g clip-path="url(#pd7ca2feb90)">
     <use xlink:href="#m101dfaa205" x="616.552444" y="240.958603" style="fill: #1f77b4; stroke: #404040"/>
    </g>
   </g>
   <g id="LineCollection_24">
    <path d="M 636.260122 168.521486 
L 636.260122 167.997713 
" clip-path="url(#pd7ca2feb90)" style="fill: none; stroke: #404040; stroke-width: 0.9"/>
   </g>
   <g id="line2d_71">
    <g clip-path="url(#pd7ca2feb90)">
     <use xlink:href="#m101dfaa205" x="636.260122" y="168.521486" style="fill: #1f77b4; stroke: #404040"/>
    </g>
   </g>
   <g id="line2d_72">
    <g clip-path="url(#pd7ca2feb90)">
     <use xlink:href="#m101dfaa205" x="636.260122" y="167.997713" style="fill: #1f77b4; stroke: #404040"/>
    </g>
   </g>
   <g id="patch_27">
    <path d="M 50.87 283.768 
L 50.87 48.14925 
" style="fill: none; stroke: #000000; stroke-width: 0.8; stroke-linejoin: miter; stroke-linecap: square"/>
   </g>
   <g id="patch_28">
    <path d="M 50.87 283.768 
L 673.2 283.768 
" style="fill: none; stroke: #000000; stroke-width: 0.8; stroke-linejoin: miter; stroke-linecap: square"/>
   </g>
   <g id="text_21">
    <!-- RQ1 — Median CPU server (%) per skenario M1–M4, rate r120_overload -->
    <g transform="translate(183.109219 19.4755) scale(0.1 -0.1)">
     <defs>
      <path id="DejaVuSans-52" d="M 2841 2188 
Q 3044 2119 3236 1894 
Q 3428 1669 3622 1275 
L 4263 0 
L 3584 0 
L 2988 1197 
Q 2756 1666 2539 1819 
Q 2322 1972 1947 1972 
L 1259 1972 
L 1259 0 
L 628 0 
L 628 4666 
L 2053 4666 
Q 2853 4666 3247 4331 
Q 3641 3997 3641 3322 
Q 3641 2881 3436 2590 
Q 3231 2300 2841 2188 
z
M 1259 4147 
L 1259 2491 
L 2053 2491 
Q 2509 2491 2742 2702 
Q 2975 2913 2975 3322 
Q 2975 3731 2742 3939 
Q 2509 4147 2053 4147 
L 1259 4147 
z
" transform="scale(0.015625)"/>
      <path id="DejaVuSans-51" d="M 2522 4238 
Q 1834 4238 1429 3725 
Q 1025 3213 1025 2328 
Q 1025 1447 1429 934 
Q 1834 422 2522 422 
Q 3209 422 3611 934 
Q 4013 1447 4013 2328 
Q 4013 3213 3611 3725 
Q 3209 4238 2522 4238 
z
M 3406 84 
L 4238 -825 
L 3475 -825 
L 2784 -78 
Q 2681 -84 2626 -87 
Q 2572 -91 2522 -91 
Q 1538 -91 948 567 
Q 359 1225 359 2328 
Q 359 3434 948 4092 
Q 1538 4750 2522 4750 
Q 3503 4750 4090 4092 
Q 4678 3434 4678 2328 
Q 4678 1516 4351 937 
Q 4025 359 3406 84 
z
" transform="scale(0.015625)"/>
      <path id="DejaVuSans-2014" d="M 313 1978 
L 6088 1978 
L 6088 1528 
L 313 1528 
L 313 1978 
z
" transform="scale(0.015625)"/>
      <path id="DejaVuSans-70" d="M 1159 525 
L 1159 -1331 
L 581 -1331 
L 581 3500 
L 1159 3500 
L 1159 2969 
Q 1341 3281 1617 3432 
Q 1894 3584 2278 3584 
Q 2916 3584 3314 3078 
Q 3713 2572 3713 1747 
Q 3713 922 3314 415 
Q 2916 -91 2278 -91 
Q 1894 -91 1617 61 
Q 1341 213 1159 525 
z
M 3116 1747 
Q 3116 2381 2855 2742 
Q 2594 3103 2138 3103 
Q 1681 3103 1420 2742 
Q 1159 2381 1159 1747 
Q 1159 1113 1420 752 
Q 1681 391 2138 391 
Q 2594 391 2855 752 
Q 3116 1113 3116 1747 
z
" transform="scale(0.015625)"/>
      <path id="DejaVuSans-2013" d="M 313 1978 
L 2888 1978 
L 2888 1528 
L 313 1528 
L 313 1978 
z
" transform="scale(0.015625)"/>
      <path id="DejaVuSans-2c" d="M 750 794 
L 1409 794 
L 1409 256 
L 897 -744 
L 494 -744 
L 750 256 
L 750 794 
z
" transform="scale(0.015625)"/>
      <path id="DejaVuSans-5f" d="M 3263 -1063 
L 3263 -1509 
L -63 -1509 
L -63 -1063 
L 3263 -1063 
z
" transform="scale(0.015625)"/>
     </defs>
     <use xlink:href="#DejaVuSans-52"/>
     <use xlink:href="#DejaVuSans-51" transform="translate(69.482422 0)"/>
     <use xlink:href="#DejaVuSans-31" transform="translate(148.193359 0)"/>
     <use xlink:href="#DejaVuSans-20" transform="translate(211.816406 0)"/>
     <use xlink:href="#DejaVuSans-2014" transform="translate(243.603516 0)"/>
     <use xlink:href="#DejaVuSans-20" transform="translate(343.603516 0)"/>
     <use xlink:href="#DejaVuSans-4d" transform="translate(375.390625 0)"/>
     <use xlink:href="#DejaVuSans-65" transform="translate(461.669922 0)"/>
     <use xlink:href="#DejaVuSans-64" transform="translate(523.193359 0)"/>
     <use xlink:href="#DejaVuSans-69" transform="translate(586.669922 0)"/>
     <use xlink:href="#DejaVuSans-61" transform="translate(614.453125 0)"/>
     <use xlink:href="#DejaVuSans-6e" transform="translate(675.732422 0)"/>
     <use xlink:href="#DejaVuSans-20" transform="translate(739.111328 0)"/>
     <use xlink:href="#DejaVuSans-43" transform="translate(770.898438 0)"/>
     <use xlink:href="#DejaVuSans-50" transform="translate(840.722656 0)"/>
     <use xlink:href="#DejaVuSans-55" transform="translate(901.025391 0)"/>
     <use xlink:href="#DejaVuSans-20" transform="translate(974.21875 0)"/>
     <use xlink:href="#DejaVuSans-73" transform="translate(1006.005859 0)"/>
     <use xlink:href="#DejaVuSans-65" transform="translate(1058.105469 0)"/>
     <use xlink:href="#DejaVuSans-72" transform="translate(1119.628906 0)"/>
     <use xlink:href="#DejaVuSans-76" transform="translate(1160.742188 0)"/>
     <use xlink:href="#DejaVuSans-65" transform="translate(1219.921875 0)"/>
     <use xlink:href="#DejaVuSans-72" transform="translate(1281.445312 0)"/>
     <use xlink:href="#DejaVuSans-20" transform="translate(1322.558594 0)"/>
     <use xlink:href="#DejaVuSans-28" transform="translate(1354.345703 0)"/>
     <use xlink:href="#DejaVuSans-25" transform="translate(1393.359375 0)"/>
     <use xlink:href="#DejaVuSans-29" transform="translate(1488.378906 0)"/>
     <use xlink:href="#DejaVuSans-20" transform="translate(1527.392578 0)"/>
     <use xlink:href="#DejaVuSans-70" transform="translate(1559.179688 0)"/>
     <use xlink:href="#DejaVuSans-65" transform="translate(1622.65625 0)"/>
     <use xlink:href="#DejaVuSans-72" transform="translate(1684.179688 0)"/>
     <use xlink:href="#DejaVuSans-20" transform="translate(1725.292969 0)"/>
     <use xlink:href="#DejaVuSans-73" transform="translate(1757.080078 0)"/>
     <use xlink:href="#DejaVuSans-6b" transform="translate(1809.179688 0)"/>
     <use xlink:href="#DejaVuSans-65" transform="translate(1863.464844 0)"/>
     <use xlink:href="#DejaVuSans-6e" transform="translate(1924.988281 0)"/>
     <use xlink:href="#DejaVuSans-61" transform="translate(1988.367188 0)"/>
     <use xlink:href="#DejaVuSans-72" transform="translate(2049.646484 0)"/>
     <use xlink:href="#DejaVuSans-69" transform="translate(2090.759766 0)"/>
     <use xlink:href="#DejaVuSans-6f" transform="translate(2118.542969 0)"/>
     <use xlink:href="#DejaVuSans-20" transform="translate(2179.724609 0)"/>
     <use xlink:href="#DejaVuSans-4d" transform="translate(2211.511719 0)"/>
     <use xlink:href="#DejaVuSans-31" transform="translate(2297.791016 0)"/>
     <use xlink:href="#DejaVuSans-2013" transform="translate(2361.414062 0)"/>
     <use xlink:href="#DejaVuSans-4d" transform="translate(2411.414062 0)"/>
     <use xlink:href="#DejaVuSans-34" transform="translate(2497.693359 0)"/>
     <use xlink:href="#DejaVuSans-2c" transform="translate(2561.316406 0)"/>
     <use xlink:href="#DejaVuSans-20" transform="translate(2593.103516 0)"/>
     <use xlink:href="#DejaVuSans-72" transform="translate(2624.890625 0)"/>
     <use xlink:href="#DejaVuSans-61" transform="translate(2666.003906 0)"/>
     <use xlink:href="#DejaVuSans-74" transform="translate(2727.283203 0)"/>
     <use xlink:href="#DejaVuSans-65" transform="translate(2766.492188 0)"/>
     <use xlink:href="#DejaVuSans-20" transform="translate(2828.015625 0)"/>
     <use xlink:href="#DejaVuSans-72" transform="translate(2859.802734 0)"/>
     <use xlink:href="#DejaVuSans-31" transform="translate(2900.916016 0)"/>
     <use xlink:href="#DejaVuSans-32" transform="translate(2964.539062 0)"/>
     <use xlink:href="#DejaVuSans-30" transform="translate(3028.162109 0)"/>
     <use xlink:href="#DejaVuSans-5f" transform="translate(3091.785156 0)"/>
     <use xlink:href="#DejaVuSans-6f" transform="translate(3141.785156 0)"/>
     <use xlink:href="#DejaVuSans-76" transform="translate(3202.966797 0)"/>
     <use xlink:href="#DejaVuSans-65" transform="translate(3262.146484 0)"/>
     <use xlink:href="#DejaVuSans-72" transform="translate(3323.669922 0)"/>
     <use xlink:href="#DejaVuSans-6c" transform="translate(3364.783203 0)"/>
     <use xlink:href="#DejaVuSans-6f" transform="translate(3392.566406 0)"/>
     <use xlink:href="#DejaVuSans-61" transform="translate(3453.748047 0)"/>
     <use xlink:href="#DejaVuSans-64" transform="translate(3515.027344 0)"/>
    </g>
    <!-- — TIER OVERLOAD (r120): dianalisis TERPISAH, jangan bandingkan dengan r40/r80 -->
    <g transform="translate(153.57875 30.951438) scale(0.1 -0.1)">
     <defs>
      <path id="DejaVuSans-54" d="M -19 4666 
L 3928 4666 
L 3928 4134 
L 2272 4134 
L 2272 0 
L 1638 0 
L 1638 4134 
L -19 4134 
L -19 4666 
z
" transform="scale(0.015625)"/>
      <path id="DejaVuSans-49" d="M 628 4666 
L 1259 4666 
L 1259 0 
L 628 0 
L 628 4666 
z
" transform="scale(0.015625)"/>
      <path id="DejaVuSans-45" d="M 628 4666 
L 3578 4666 
L 3578 4134 
L 1259 4134 
L 1259 2753 
L 3481 2753 
L 3481 2222 
L 1259 2222 
L 1259 531 
L 3634 531 
L 3634 0 
L 628 0 
L 628 4666 
z
" transform="scale(0.015625)"/>
      <path id="DejaVuSans-4f" d="M 2522 4238 
Q 1834 4238 1429 3725 
Q 1025 3213 1025 2328 
Q 1025 1447 1429 934 
Q 1834 422 2522 422 
Q 3209 422 3611 934 
Q 4013 1447 4013 2328 
Q 4013 3213 3611 3725 
Q 3209 4238 2522 4238 
z
M 2522 4750 
Q 3503 4750 4090 4092 
Q 4678 3434 4678 2328 
Q 4678 1225 4090 567 
Q 3503 -91 2522 -91 
Q 1538 -91 948 565 
Q 359 1222 359 2328 
Q 359 3434 948 4092 
Q 1538 4750 2522 4750 
z
" transform="scale(0.015625)"/>
      <path id="DejaVuSans-56" d="M 1831 0 
L 50 4666 
L 709 4666 
L 2188 738 
L 3669 4666 
L 4325 4666 
L 2547 0 
L 1831 0 
z
" transform="scale(0.015625)"/>
      <path id="DejaVuSans-4c" d="M 628 4666 
L 1259 4666 
L 1259 531 
L 3531 531 
L 3531 0 
L 628 0 
L 628 4666 
z
" transform="scale(0.015625)"/>
      <path id="DejaVuSans-41" d="M 2188 4044 
L 1331 1722 
L 3047 1722 
L 2188 4044 
z
M 1831 4666 
L 2547 4666 
L 4325 0 
L 3669 0 
L 3244 1197 
L 1141 1197 
L 716 0 
L 50 0 
L 1831 4666 
z
" transform="scale(0.015625)"/>
      <path id="DejaVuSans-44" d="M 1259 4147 
L 1259 519 
L 2022 519 
Q 2988 519 3436 956 
Q 3884 1394 3884 2338 
Q 3884 3275 3436 3711 
Q 2988 4147 2022 4147 
L 1259 4147 
z
M 628 4666 
L 1925 4666 
Q 3281 4666 3915 4102 
Q 4550 3538 4550 2338 
Q 4550 1131 3912 565 
Q 3275 0 1925 0 
L 628 0 
L 628 4666 
z
" transform="scale(0.015625)"/>
      <path id="DejaVuSans-3a" d="M 750 794 
L 1409 794 
L 1409 0 
L 750 0 
L 750 794 
z
M 750 3309 
L 1409 3309 
L 1409 2516 
L 750 2516 
L 750 3309 
z
" transform="scale(0.015625)"/>
      <path id="DejaVuSans-48" d="M 628 4666 
L 1259 4666 
L 1259 2753 
L 3553 2753 
L 3553 4666 
L 4184 4666 
L 4184 0 
L 3553 0 
L 3553 2222 
L 1259 2222 
L 1259 0 
L 628 0 
L 628 4666 
z
" transform="scale(0.015625)"/>
      <path id="DejaVuSans-2f" d="M 1625 4666 
L 2156 4666 
L 531 -594 
L 0 -594 
L 1625 4666 
z
" transform="scale(0.015625)"/>
     </defs>
     <use xlink:href="#DejaVuSans-2014"/>
     <use xlink:href="#DejaVuSans-20" transform="translate(100 0)"/>
     <use xlink:href="#DejaVuSans-54" transform="translate(131.787109 0)"/>
     <use xlink:href="#DejaVuSans-49" transform="translate(192.871094 0)"/>
     <use xlink:href="#DejaVuSans-45" transform="translate(222.363281 0)"/>
     <use xlink:href="#DejaVuSans-52" transform="translate(285.546875 0)"/>
     <use xlink:href="#DejaVuSans-20" transform="translate(355.029297 0)"/>
     <use xlink:href="#DejaVuSans-4f" transform="translate(386.816406 0)"/>
     <use xlink:href="#DejaVuSans-56" transform="translate(463.777344 0)"/>
     <use xlink:href="#DejaVuSans-45" transform="translate(532.185547 0)"/>
     <use xlink:href="#DejaVuSans-52" transform="translate(595.369141 0)"/>
     <use xlink:href="#DejaVuSans-4c" transform="translate(664.851562 0)"/>
     <use xlink:href="#DejaVuSans-4f" transform="translate(716.939453 0)"/>
     <use xlink:href="#DejaVuSans-41" transform="translate(793.900391 0)"/>
     <use xlink:href="#DejaVuSans-44" transform="translate(862.308594 0)"/>
     <use xlink:href="#DejaVuSans-20" transform="translate(939.310547 0)"/>
     <use xlink:href="#DejaVuSans-28" transform="translate(971.097656 0)"/>
     <use xlink:href="#DejaVuSans-72" transform="translate(1010.111328 0)"/>
     <use xlink:href="#DejaVuSans-31" transform="translate(1051.224609 0)"/>
     <use xlink:href="#DejaVuSans-32" transform="translate(1114.847656 0)"/>
     <use xlink:href="#DejaVuSans-30" transform="translate(1178.470703 0)"/>
     <use xlink:href="#DejaVuSans-29" transform="translate(1242.09375 0)"/>
     <use xlink:href="#DejaVuSans-3a" transform="translate(1281.107422 0)"/>
     <use xlink:href="#DejaVuSans-20" transform="translate(1314.798828 0)"/>
     <use xlink:href="#DejaVuSans-64" transform="translate(1346.585938 0)"/>
     <use xlink:href="#DejaVuSans-69" transform="translate(1410.0625 0)"/>
     <use xlink:href="#DejaVuSans-61" transform="translate(1437.845703 0)"/>
     <use xlink:href="#DejaVuSans-6e" transform="translate(1499.125 0)"/>
     <use xlink:href="#DejaVuSans-61" transform="translate(1562.503906 0)"/>
     <use xlink:href="#DejaVuSans-6c" transform="translate(1623.783203 0)"/>
     <use xlink:href="#DejaVuSans-69" transform="translate(1651.566406 0)"/>
     <use xlink:href="#DejaVuSans-73" transform="translate(1679.349609 0)"/>
     <use xlink:href="#DejaVuSans-69" transform="translate(1731.449219 0)"/>
     <use xlink:href="#DejaVuSans-73" transform="translate(1759.232422 0)"/>
     <use xlink:href="#DejaVuSans-20" transform="translate(1811.332031 0)"/>
     <use xlink:href="#DejaVuSans-54" transform="translate(1843.119141 0)"/>
     <use xlink:href="#DejaVuSans-45" transform="translate(1904.203125 0)"/>
     <use xlink:href="#DejaVuSans-52" transform="translate(1967.386719 0)"/>
     <use xlink:href="#DejaVuSans-50" transform="translate(2036.869141 0)"/>
     <use xlink:href="#DejaVuSans-49" transform="translate(2097.171875 0)"/>
     <use xlink:href="#DejaVuSans-53" transform="translate(2126.664062 0)"/>
     <use xlink:href="#DejaVuSans-41" transform="translate(2192.015625 0)"/>
     <use xlink:href="#DejaVuSans-48" transform="translate(2260.423828 0)"/>
     <use xlink:href="#DejaVuSans-2c" transform="translate(2335.619141 0)"/>
     <use xlink:href="#DejaVuSans-20" transform="translate(2367.40625 0)"/>
     <use xlink:href="#DejaVuSans-6a" transform="translate(2399.193359 0)"/>
     <use xlink:href="#DejaVuSans-61" transform="translate(2426.976562 0)"/>
     <use xlink:href="#DejaVuSans-6e" transform="translate(2488.255859 0)"/>
     <use xlink:href="#DejaVuSans-67" transform="translate(2551.634766 0)"/>
     <use xlink:href="#DejaVuSans-61" transform="translate(2615.111328 0)"/>
     <use xlink:href="#DejaVuSans-6e" transform="translate(2676.390625 0)"/>
     <use xlink:href="#DejaVuSans-20" transform="translate(2739.769531 0)"/>
     <use xlink:href="#DejaVuSans-62" transform="translate(2771.556641 0)"/>
     <use xlink:href="#DejaVuSans-61" transform="translate(2835.033203 0)"/>
     <use xlink:href="#DejaVuSans-6e" transform="translate(2896.3125 0)"/>
     <use xlink:href="#DejaVuSans-64" transform="translate(2959.691406 0)"/>
     <use xlink:href="#DejaVuSans-69" transform="translate(3023.167969 0)"/>
     <use xlink:href="#DejaVuSans-6e" transform="translate(3050.951172 0)"/>
     <use xlink:href="#DejaVuSans-67" transform="translate(3114.330078 0)"/>
     <use xlink:href="#DejaVuSans-6b" transform="translate(3177.806641 0)"/>
     <use xlink:href="#DejaVuSans-61" transform="translate(3233.966797 0)"/>
     <use xlink:href="#DejaVuSans-6e" transform="translate(3295.246094 0)"/>
     <use xlink:href="#DejaVuSans-20" transform="translate(3358.625 0)"/>
     <use xlink:href="#DejaVuSans-64" transform="translate(3390.412109 0)"/>
     <use xlink:href="#DejaVuSans-65" transform="translate(3453.888672 0)"/>
     <use xlink:href="#DejaVuSans-6e" transform="translate(3515.412109 0)"/>
     <use xlink:href="#DejaVuSans-67" transform="translate(3578.791016 0)"/>
     <use xlink:href="#DejaVuSans-61" transform="translate(3642.267578 0)"/>
     <use xlink:href="#DejaVuSans-6e" transform="translate(3703.546875 0)"/>
     <use xlink:href="#DejaVuSans-20" transform="translate(3766.925781 0)"/>
     <use xlink:href="#DejaVuSans-72" transform="translate(3798.712891 0)"/>
     <use xlink:href="#DejaVuSans-34" transform="translate(3839.826172 0)"/>
     <use xlink:href="#DejaVuSans-30" transform="translate(3903.449219 0)"/>
     <use xlink:href="#DejaVuSans-2f" transform="translate(3967.072266 0)"/>
     <use xlink:href="#DejaVuSans-72" transform="translate(4000.763672 0)"/>
     <use xlink:href="#DejaVuSans-38" transform="translate(4041.876953 0)"/>
     <use xlink:href="#DejaVuSans-30" transform="translate(4105.5 0)"/>
    </g>
    <!-- n = 30 run per cell; whisker = IQR -->
    <g transform="translate(276.44125 42.14925) scale(0.1 -0.1)">
     <defs>
      <path id="DejaVuSans-3d" d="M 678 2906 
L 4684 2906 
L 4684 2381 
L 678 2381 
L 678 2906 
z
M 678 1631 
L 4684 1631 
L 4684 1100 
L 678 1100 
L 678 1631 
z
" transform="scale(0.015625)"/>
      <path id="DejaVuSans-63" d="M 3122 3366 
L 3122 2828 
Q 2878 2963 2633 3030 
Q 2388 3097 2138 3097 
Q 1578 3097 1268 2742 
Q 959 2388 959 1747 
Q 959 1106 1268 751 
Q 1578 397 2138 397 
Q 2388 397 2633 464 
Q 2878 531 3122 666 
L 3122 134 
Q 2881 22 2623 -34 
Q 2366 -91 2075 -91 
Q 1284 -91 818 406 
Q 353 903 353 1747 
Q 353 2603 823 3093 
Q 1294 3584 2113 3584 
Q 2378 3584 2631 3529 
Q 2884 3475 3122 3366 
z
" transform="scale(0.015625)"/>
      <path id="DejaVuSans-3b" d="M 750 3309 
L 1409 3309 
L 1409 2516 
L 750 2516 
L 750 3309 
z
M 750 794 
L 1409 794 
L 1409 256 
L 897 -744 
L 494 -744 
L 750 256 
L 750 794 
z
" transform="scale(0.015625)"/>
     </defs>
     <use xlink:href="#DejaVuSans-6e"/>
     <use xlink:href="#DejaVuSans-20" transform="translate(63.378906 0)"/>
     <use xlink:href="#DejaVuSans-3d" transform="translate(95.166016 0)"/>
     <use xlink:href="#DejaVuSans-20" transform="translate(178.955078 0)"/>
     <use xlink:href="#DejaVuSans-33" transform="translate(210.742188 0)"/>
     <use xlink:href="#DejaVuSans-30" transform="translate(274.365234 0)"/>
     <use xlink:href="#DejaVuSans-20" transform="translate(337.988281 0)"/>
     <use xlink:href="#DejaVuSans-72" transform="translate(369.775391 0)"/>
     <use xlink:href="#DejaVuSans-75" transform="translate(410.888672 0)"/>
     <use xlink:href="#DejaVuSans-6e" transform="translate(474.267578 0)"/>
     <use xlink:href="#DejaVuSans-20" transform="translate(537.646484 0)"/>
     <use xlink:href="#DejaVuSans-70" transform="translate(569.433594 0)"/>
     <use xlink:href="#DejaVuSans-65" transform="translate(632.910156 0)"/>
     <use xlink:href="#DejaVuSans-72" transform="translate(694.433594 0)"/>
     <use xlink:href="#DejaVuSans-20" transform="translate(735.546875 0)"/>
     <use xlink:href="#DejaVuSans-63" transform="translate(767.333984 0)"/>
     <use xlink:href="#DejaVuSans-65" transform="translate(822.314453 0)"/>
     <use xlink:href="#DejaVuSans-6c" transform="translate(883.837891 0)"/>
     <use xlink:href="#DejaVuSans-6c" transform="translate(911.621094 0)"/>
     <use xlink:href="#DejaVuSans-3b" transform="translate(939.404297 0)"/>
     <use xlink:href="#DejaVuSans-20" transform="translate(973.095703 0)"/>
     <use xlink:href="#DejaVuSans-77" transform="translate(1004.882812 0)"/>
     <use xlink:href="#DejaVuSans-68" transform="translate(1086.669922 0)"/>
     <use xlink:href="#DejaVuSans-69" transform="translate(1150.048828 0)"/>
     <use xlink:href="#DejaVuSans-73" transform="translate(1177.832031 0)"/>
     <use xlink:href="#DejaVuSans-6b" transform="translate(1229.931641 0)"/>
     <use xlink:href="#DejaVuSans-65" transform="translate(1284.216797 0)"/>
     <use xlink:href="#DejaVuSans-72" transform="translate(1345.740234 0)"/>
     <use xlink:href="#DejaVuSans-20" transform="translate(1386.853516 0)"/>
     <use xlink:href="#DejaVuSans-3d" transform="translate(1418.640625 0)"/>
     <use xlink:href="#DejaVuSans-20" transform="translate(1502.429688 0)"/>
     <use xlink:href="#DejaVuSans-49" transform="translate(1534.216797 0)"/>
     <use xlink:href="#DejaVuSans-51" transform="translate(1563.708984 0)"/>
     <use xlink:href="#DejaVuSans-52" transform="translate(1642.419922 0)"/>
    </g>
   </g>
   <g id="legend_1">
    <g id="patch_29">
     <path d="M 600.194531 63.087844 
L 618.194531 63.087844 
L 618.194531 56.787844 
L 600.194531 56.787844 
z
" style="fill: #1f77b4; stroke: #ffffff; stroke-width: 0.5; stroke-linejoin: miter"/>
    </g>
    <g id="text_22">
     <!-- REST -->
     <g transform="translate(625.394531 63.087844) scale(0.09 -0.09)">
      <use xlink:href="#DejaVuSans-52"/>
      <use xlink:href="#DejaVuSans-45" transform="translate(69.482422 0)"/>
      <use xlink:href="#DejaVuSans-53" transform="translate(132.666016 0)"/>
      <use xlink:href="#DejaVuSans-54" transform="translate(196.142578 0)"/>
     </g>
    </g>
    <g id="patch_30">
     <path d="M 600.194531 76.298156 
L 618.194531 76.298156 
L 618.194531 69.998156 
L 600.194531 69.998156 
z
" style="fill: #ff7f0e; stroke: #ffffff; stroke-width: 0.5; stroke-linejoin: miter"/>
    </g>
    <g id="text_23">
     <!-- GraphQL -->
     <g transform="translate(625.394531 76.298156) scale(0.09 -0.09)">
      <defs>
       <path id="DejaVuSans-47" d="M 3809 666 
L 3809 1919 
L 2778 1919 
L 2778 2438 
L 4434 2438 
L 4434 434 
Q 4069 175 3628 42 
Q 3188 -91 2688 -91 
Q 1594 -91 976 548 
Q 359 1188 359 2328 
Q 359 3472 976 4111 
Q 1594 4750 2688 4750 
Q 3144 4750 3555 4637 
Q 3966 4525 4313 4306 
L 4313 3634 
Q 3963 3931 3569 4081 
Q 3175 4231 2741 4231 
Q 1884 4231 1454 3753 
Q 1025 3275 1025 2328 
Q 1025 1384 1454 906 
Q 1884 428 2741 428 
Q 3075 428 3337 486 
Q 3600 544 3809 666 
z
" transform="scale(0.015625)"/>
      </defs>
      <use xlink:href="#DejaVuSans-47"/>
      <use xlink:href="#DejaVuSans-72" transform="translate(77.490234 0)"/>
      <use xlink:href="#DejaVuSans-61" transform="translate(118.603516 0)"/>
      <use xlink:href="#DejaVuSans-70" transform="translate(179.882812 0)"/>
      <use xlink:href="#DejaVuSans-68" transform="translate(243.359375 0)"/>
      <use xlink:href="#DejaVuSans-51" transform="translate(306.738281 0)"/>
      <use xlink:href="#DejaVuSans-4c" transform="translate(385.449219 0)"/>
     </g>
    </g>
   </g>
  </g>
 </g>
 <defs>
  <clipPath id="pd7ca2feb90">
   <rect x="50.87" y="48.14925" width="622.33" height="235.61875"/>
  </clipPath>
 </defs>
</svg>
