<?xml version="1.0" encoding="utf-8" standalone="no"?>
<!DOCTYPE svg PUBLIC "-//W3C//DTD SVG 1.1//EN"
  "http://www.w3.org/Graphics/SVG/1.1/DTD/svg11.dtd">
<svg xmlns:xlink="http://www.w3.org/1999/xlink" width="590.4pt" height="316.8pt" viewBox="0 0 590.4 316.8" xmlns="http://www.w3.org/2000/svg" version="1.1">
 <metadata>
  <rdf:RDF xmlns:dc="http://purl.org/dc/elements/1.1/" xmlns:cc="http://creativecommons.org/ns#" xmlns:rdf="http://www.w3.org/1999/02/22-rdf-syntax-ns#">
   <cc:Work>
    <dc:type rdf:resource="http://purl.org/dc/dcmitype/StillImage"/>
    <dc:date>2026-07-04T15:25:51.333367</dc:date>
    <dc:format>image/svg+xml</dc:format>
    <dc:creator>
     <cc:Agent>
      <dc:title>Matplotlib v3.10.9, https://matplotlib.org/</dc:title>
     </cc:Agent>
    </dc:creator>
   </cc:Work>
  </rdf:RDF>
 </metadata>
 <defs>
  <style type="text/css">*{stroke-linejoin: round; stroke-linecap: butt}</style>
 </defs>
 <g id="figure_1">
  <g id="patch_1">
   <path d="M 0 316.8 
L 590.4 316.8 
L 590.4 0 
L 0 0 
z
" style="fill: #ffffff"/>
  </g>
  <g id="axes_1">
   <g id="patch_2">
    <path d="M 58.304 274.84 
L 579.6 274.84 
L 579.6 36.384 
L 58.304 36.384 
z
" style="fill: #ffffff"/>
   </g>
   <g id="matplotlib.axis_1">
    <g id="xtick_1">
     <g id="line2d_1">
      <defs>
       <path id="ma240c1dab7" d="M 0 0 
L 0 3.5 
" style="stroke: #000000; stroke-width: 0.8"/>
      </defs>
      <g>
       <use xlink:href="#ma240c1dab7" x="152.669384" y="274.84" style="stroke: #000000; stroke-width: 0.8"/>
      </g>
     </g>
     <g id="text_1">
      <!-- Zipfian -->
      <g transform="translate(135.299072 289.438438) scale(0.1 -0.1)">
       <defs>
        <path id="DejaVuSans-5a" d="M 359 4666 
L 4025 4666 
L 4025 4184 
L 1075 531 
L 4097 531 
L 4097 0 
L 288 0 
L 288 481 
L 3238 4134 
L 359 4134 
L 359 4666 
z
" transform="scale(0.015625)"/>
        <path id="DejaVuSans-69" d="M 603 3500 
L 1178 3500 
L 1178 0 
L 603 0 
L 603 3500 
z
M 603 4863 
L 1178 4863 
L 1178 4134 
L 603 4134 
L 603 4863 
z
" transform="scale(0.015625)"/>
        <path id="DejaVuSans-70" d="M 1159 525 
L 1159 -1331 
L 581 -1331 
L 581 3500 
L 1159 3500 
L 1159 2969 
Q 1341 3281 1617 3432 
Q 1894 3584 2278 3584 
Q 2916 3584 3314 3078 
Q 3713 2572 3713 1747 
Q 3713 922 3314 415 
Q 2916 -91 2278 -91 
Q 1894 -91 1617 61 
Q 1341 213 1159 525 
z
M 3116 1747 
Q 3116 2381 2855 2742 
Q 2594 3103 2138 3103 
Q 1681 3103 1420 2742 
Q 1159 2381 1159 1747 
Q 1159 1113 1420 752 
Q 1681 391 2138 391 
Q 2594 391 2855 752 
Q 3116 1113 3116 1747 
z
" transform="scale(0.015625)"/>
        <path id="DejaVuSans-66" d="M 2375 4863 
L 2375 4384 
L 1825 4384 
Q 1516 4384 1395 4259 
Q 1275 4134 1275 3809 
L 1275 3500 
L 2222 3500 
L 2222 3053 
L 1275 3053 
L 1275 0 
L 697 0 
L 697 3053 
L 147 3053 
L 147 3500 
L 697 3500 
L 697 3744 
Q 697 4328 969 4595 
Q 1241 4863 1831 4863 
L 2375 4863 
z
" transform="scale(0.015625)"/>
        <path id="DejaVuSans-61" d="M 2194 1759 
Q 1497 1759 1228 1600 
Q 959 1441 959 1056 
Q 959 750 1161 570 
Q 1363 391 1709 391 
Q 2188 391 2477 730 
Q 2766 1069 2766 1631 
L 2766 1759 
L 2194 1759 
z
M 3341 1997 
L 3341 0 
L 2766 0 
L 2766 531 
Q 2569 213 2275 61 
Q 1981 -91 1556 -91 
Q 1019 -91 701 211 
Q 384 513 384 1019 
Q 384 1609 779 1909 
Q 1175 2209 1959 2209 
L 2766 2209 
L 2766 2266 
Q 2766 2663 2505 2880 
Q 2244 3097 1772 3097 
Q 1472 3097 1187 3025 
Q 903 2953 641 2809 
L 641 3341 
Q 956 3463 1253 3523 
Q 1550 3584 1831 3584 
Q 2591 3584 2966 3190 
Q 3341 2797 3341 1997 
z
" transform="scale(0.015625)"/>
        <path id="DejaVuSans-6e" d="M 3513 2113 
L 3513 0 
L 2938 0 
L 2938 2094 
Q 2938 2591 2744 2837 
Q 2550 3084 2163 3084 
Q 1697 3084 1428 2787 
Q 1159 2491 1159 1978 
L 1159 0 
L 581 0 
L 581 3500 
L 1159 3500 
L 1159 2956 
Q 1366 3272 1645 3428 
Q 1925 3584 2291 3584 
Q 2894 3584 3203 3211 
Q 3513 2838 3513 2113 
z
" transform="scale(0.015625)"/>
       </defs>
       <use xlink:href="#DejaVuSans-5a"/>
       <use xlink:href="#DejaVuSans-69" transform="translate(68.505859 0)"/>
       <use xlink:href="#DejaVuSans-70" transform="translate(96.289062 0)"/>
       <use xlink:href="#DejaVuSans-66" transform="translate(159.765625 0)"/>
       <use xlink:href="#DejaVuSans-69" transform="translate(194.970703 0)"/>
       <use xlink:href="#DejaVuSans-61" transform="translate(222.753906 0)"/>
       <use xlink:href="#DejaVuSans-6e" transform="translate(284.033203 0)"/>
      </g>
     </g>
    </g>
    <g id="xtick_2">
     <g id="line2d_2">
      <g>
       <use xlink:href="#ma240c1dab7" x="318.952" y="274.84" style="stroke: #000000; stroke-width: 0.8"/>
      </g>
     </g>
     <g id="text_2">
      <!-- Uniform -->
      <g transform="translate(299.077 289.438438) scale(0.1 -0.1)">
       <defs>
        <path id="DejaVuSans-55" d="M 556 4666 
L 1191 4666 
L 1191 1831 
Q 1191 1081 1462 751 
Q 1734 422 2344 422 
Q 2950 422 3222 751 
Q 3494 1081 3494 1831 
L 3494 4666 
L 4128 4666 
L 4128 1753 
Q 4128 841 3676 375 
Q 3225 -91 2344 -91 
Q 1459 -91 1007 375 
Q 556 841 556 1753 
L 556 4666 
z
" transform="scale(0.015625)"/>
        <path id="DejaVuSans-6f" d="M 1959 3097 
Q 1497 3097 1228 2736 
Q 959 2375 959 1747 
Q 959 1119 1226 758 
Q 1494 397 1959 397 
Q 2419 397 2687 759 
Q 2956 1122 2956 1747 
Q 2956 2369 2687 2733 
Q 2419 3097 1959 3097 
z
M 1959 3584 
Q 2709 3584 3137 3096 
Q 3566 2609 3566 1747 
Q 3566 888 3137 398 
Q 2709 -91 1959 -91 
Q 1206 -91 779 398 
Q 353 888 353 1747 
Q 353 2609 779 3096 
Q 1206 3584 1959 3584 
z
" transform="scale(0.015625)"/>
        <path id="DejaVuSans-72" d="M 2631 2963 
Q 2534 3019 2420 3045 
Q 2306 3072 2169 3072 
Q 1681 3072 1420 2755 
Q 1159 2438 1159 1844 
L 1159 0 
L 581 0 
L 581 3500 
L 1159 3500 
L 1159 2956 
Q 1341 3275 1631 3429 
Q 1922 3584 2338 3584 
Q 2397 3584 2469 3576 
Q 2541 3569 2628 3553 
L 2631 2963 
z
" transform="scale(0.015625)"/>
        <path id="DejaVuSans-6d" d="M 3328 2828 
Q 3544 3216 3844 3400 
Q 4144 3584 4550 3584 
Q 5097 3584 5394 3201 
Q 5691 2819 5691 2113 
L 5691 0 
L 5113 0 
L 5113 2094 
Q 5113 2597 4934 2840 
Q 4756 3084 4391 3084 
Q 3944 3084 3684 2787 
Q 3425 2491 3425 1978 
L 3425 0 
L 2847 0 
L 2847 2094 
Q 2847 2600 2669 2842 
Q 2491 3084 2119 3084 
Q 1678 3084 1418 2786 
Q 1159 2488 1159 1978 
L 1159 0 
L 581 0 
L 581 3500 
L 1159 3500 
L 1159 2956 
Q 1356 3278 1631 3431 
Q 1906 3584 2284 3584 
Q 2666 3584 2933 3390 
Q 3200 3197 3328 2828 
z
" transform="scale(0.015625)"/>
       </defs>
       <use xlink:href="#DejaVuSans-55"/>
       <use xlink:href="#DejaVuSans-6e" transform="translate(73.193359 0)"/>
       <use xlink:href="#DejaVuSans-69" transform="translate(136.572266 0)"/>
       <use xlink:href="#DejaVuSans-66" transform="translate(164.355469 0)"/>
       <use xlink:href="#DejaVuSans-6f" transform="translate(199.560547 0)"/>
       <use xlink:href="#DejaVuSans-72" transform="translate(260.742188 0)"/>
       <use xlink:href="#DejaVuSans-6d" transform="translate(300.105469 0)"/>
      </g>
     </g>
    </g>
    <g id="xtick_3">
     <g id="line2d_3">
      <g>
       <use xlink:href="#ma240c1dab7" x="485.234616" y="274.84" style="stroke: #000000; stroke-width: 0.8"/>
      </g>
     </g>
     <g id="text_3">
      <!-- Unique -->
      <g transform="translate(467.597897 289.438438) scale(0.1 -0.1)">
       <defs>
        <path id="DejaVuSans-71" d="M 947 1747 
Q 947 1113 1208 752 
Q 1469 391 1925 391 
Q 2381 391 2643 752 
Q 2906 1113 2906 1747 
Q 2906 2381 2643 2742 
Q 2381 3103 1925 3103 
Q 1469 3103 1208 2742 
Q 947 2381 947 1747 
z
M 2906 525 
Q 2725 213 2448 61 
Q 2172 -91 1784 -91 
Q 1150 -91 751 415 
Q 353 922 353 1747 
Q 353 2572 751 3078 
Q 1150 3584 1784 3584 
Q 2172 3584 2448 3432 
Q 2725 3281 2906 2969 
L 2906 3500 
L 3481 3500 
L 3481 -1331 
L 2906 -1331 
L 2906 525 
z
" transform="scale(0.015625)"/>
        <path id="DejaVuSans-75" d="M 544 1381 
L 544 3500 
L 1119 3500 
L 1119 1403 
Q 1119 906 1312 657 
Q 1506 409 1894 409 
Q 2359 409 2629 706 
Q 2900 1003 2900 1516 
L 2900 3500 
L 3475 3500 
L 3475 0 
L 2900 0 
L 2900 538 
Q 2691 219 2414 64 
Q 2138 -91 1772 -91 
Q 1169 -91 856 284 
Q 544 659 544 1381 
z
M 1991 3584 
L 1991 3584 
z
" transform="scale(0.015625)"/>
        <path id="DejaVuSans-65" d="M 3597 1894 
L 3597 1613 
L 953 1613 
Q 991 1019 1311 708 
Q 1631 397 2203 397 
Q 2534 397 2845 478 
Q 3156 559 3463 722 
L 3463 178 
Q 3153 47 2828 -22 
Q 2503 -91 2169 -91 
Q 1331 -91 842 396 
Q 353 884 353 1716 
Q 353 2575 817 3079 
Q 1281 3584 2069 3584 
Q 2775 3584 3186 3129 
Q 3597 2675 3597 1894 
z
M 3022 2063 
Q 3016 2534 2758 2815 
Q 2500 3097 2075 3097 
Q 1594 3097 1305 2825 
Q 1016 2553 972 2059 
L 3022 2063 
z
" transform="scale(0.015625)"/>
       </defs>
       <use xlink:href="#DejaVuSans-55"/>
       <use xlink:href="#DejaVuSans-6e" transform="translate(73.193359 0)"/>
       <use xlink:href="#DejaVuSans-69" transform="translate(136.572266 0)"/>
       <use xlink:href="#DejaVuSans-71" transform="translate(164.355469 0)"/>
       <use xlink:href="#DejaVuSans-75" transform="translate(227.832031 0)"/>
       <use xlink:href="#DejaVuSans-65" transform="translate(291.210938 0)"/>
      </g>
     </g>
    </g>
    <g id="text_4">
     <!-- Pola akses -->
     <g transform="translate(292.771531 303.116562) scale(0.1 -0.1)">
      <defs>
       <path id="DejaVuSans-50" d="M 1259 4147 
L 1259 2394 
L 2053 2394 
Q 2494 2394 2734 2622 
Q 2975 2850 2975 3272 
Q 2975 3691 2734 3919 
Q 2494 4147 2053 4147 
L 1259 4147 
z
M 628 4666 
L 2053 4666 
Q 2838 4666 3239 4311 
Q 3641 3956 3641 3272 
Q 3641 2581 3239 2228 
Q 2838 1875 2053 1875 
L 1259 1875 
L 1259 0 
L 628 0 
L 628 4666 
z
" transform="scale(0.015625)"/>
       <path id="DejaVuSans-6c" d="M 603 4863 
L 1178 4863 
L 1178 0 
L 603 0 
L 603 4863 
z
" transform="scale(0.015625)"/>
       <path id="DejaVuSans-20" transform="scale(0.015625)"/>
       <path id="DejaVuSans-6b" d="M 581 4863 
L 1159 4863 
L 1159 1991 
L 2875 3500 
L 3609 3500 
L 1753 1863 
L 3688 0 
L 2938 0 
L 1159 1709 
L 1159 0 
L 581 0 
L 581 4863 
z
" transform="scale(0.015625)"/>
       <path id="DejaVuSans-73" d="M 2834 3397 
L 2834 2853 
Q 2591 2978 2328 3040 
Q 2066 3103 1784 3103 
Q 1356 3103 1142 2972 
Q 928 2841 928 2578 
Q 928 2378 1081 2264 
Q 1234 2150 1697 2047 
L 1894 2003 
Q 2506 1872 2764 1633 
Q 3022 1394 3022 966 
Q 3022 478 2636 193 
Q 2250 -91 1575 -91 
Q 1294 -91 989 -36 
Q 684 19 347 128 
L 347 722 
Q 666 556 975 473 
Q 1284 391 1588 391 
Q 1994 391 2212 530 
Q 2431 669 2431 922 
Q 2431 1156 2273 1281 
Q 2116 1406 1581 1522 
L 1381 1569 
Q 847 1681 609 1914 
Q 372 2147 372 2553 
Q 372 3047 722 3315 
Q 1072 3584 1716 3584 
Q 2034 3584 2315 3537 
Q 2597 3491 2834 3397 
z
" transform="scale(0.015625)"/>
      </defs>
      <use xlink:href="#DejaVuSans-50"/>
      <use xlink:href="#DejaVuSans-6f" transform="translate(56.677734 0)"/>
      <use xlink:href="#DejaVuSans-6c" transform="translate(117.859375 0)"/>
      <use xlink:href="#DejaVuSans-61" transform="translate(145.642578 0)"/>
      <use xlink:href="#DejaVuSans-20" transform="translate(206.921875 0)"/>
      <use xlink:href="#DejaVuSans-61" transform="translate(238.708984 0)"/>
      <use xlink:href="#DejaVuSans-6b" transform="translate(299.988281 0)"/>
      <use xlink:href="#DejaVuSans-73" transform="translate(357.898438 0)"/>
      <use xlink:href="#DejaVuSans-65" transform="translate(409.998047 0)"/>
      <use xlink:href="#DejaVuSans-73" transform="translate(471.521484 0)"/>
     </g>
    </g>
   </g>
   <g id="matplotlib.axis_2">
    <g id="ytick_1">
     <g id="line2d_4">
      <path d="M 58.304 238.450621 
L 579.6 238.450621 
" clip-path="url(#pa6b2af6e1d)" style="fill: none; stroke: #b0b0b0; stroke-opacity: 0.4; stroke-width: 0.4; stroke-linecap: square"/>
     </g>
     <g id="line2d_5">
      <defs>
       <path id="maa52178c4b" d="M 0 0 
L -3.5 0 
" style="stroke: #000000; stroke-width: 0.8"/>
      </defs>
      <g>
       <use xlink:href="#maa52178c4b" x="58.304" y="238.450621" style="stroke: #000000; stroke-width: 0.8"/>
      </g>
     </g>
     <g id="text_5">
      <!-- −3 -->
      <g transform="translate(36.561813 242.24984) scale(0.1 -0.1)">
       <defs>
        <path id="DejaVuSans-2212" d="M 678 2272 
L 4684 2272 
L 4684 1741 
L 678 1741 
L 678 2272 
z
" transform="scale(0.015625)"/>
        <path id="DejaVuSans-33" d="M 2597 2516 
Q 3050 2419 3304 2112 
Q 3559 1806 3559 1356 
Q 3559 666 3084 287 
Q 2609 -91 1734 -91 
Q 1441 -91 1130 -33 
Q 819 25 488 141 
L 488 750 
Q 750 597 1062 519 
Q 1375 441 1716 441 
Q 2309 441 2620 675 
Q 2931 909 2931 1356 
Q 2931 1769 2642 2001 
Q 2353 2234 1838 2234 
L 1294 2234 
L 1294 2753 
L 1863 2753 
Q 2328 2753 2575 2939 
Q 2822 3125 2822 3475 
Q 2822 3834 2567 4026 
Q 2313 4219 1838 4219 
Q 1578 4219 1281 4162 
Q 984 4106 628 3988 
L 628 4550 
Q 988 4650 1302 4700 
Q 1616 4750 1894 4750 
Q 2613 4750 3031 4423 
Q 3450 4097 3450 3541 
Q 3450 3153 3228 2886 
Q 3006 2619 2597 2516 
z
" transform="scale(0.015625)"/>
       </defs>
       <use xlink:href="#DejaVuSans-2212"/>
       <use xlink:href="#DejaVuSans-33" transform="translate(83.789062 0)"/>
      </g>
     </g>
    </g>
    <g id="ytick_2">
     <g id="line2d_6">
      <path d="M 58.304 197.05201 
L 579.6 197.05201 
" clip-path="url(#pa6b2af6e1d)" style="fill: none; stroke: #b0b0b0; stroke-opacity: 0.4; stroke-width: 0.4; stroke-linecap: square"/>
     </g>
     <g id="line2d_7">
      <g>
       <use xlink:href="#maa52178c4b" x="58.304" y="197.05201" style="stroke: #000000; stroke-width: 0.8"/>
      </g>
     </g>
     <g id="text_6">
      <!-- −2 -->
      <g transform="translate(36.561813 200.851228) scale(0.1 -0.1)">
       <defs>
        <path id="DejaVuSans-32" d="M 1228 531 
L 3431 531 
L 3431 0 
L 469 0 
L 469 531 
Q 828 903 1448 1529 
Q 2069 2156 2228 2338 
Q 2531 2678 2651 2914 
Q 2772 3150 2772 3378 
Q 2772 3750 2511 3984 
Q 2250 4219 1831 4219 
Q 1534 4219 1204 4116 
Q 875 4013 500 3803 
L 500 4441 
Q 881 4594 1212 4672 
Q 1544 4750 1819 4750 
Q 2544 4750 2975 4387 
Q 3406 4025 3406 3419 
Q 3406 3131 3298 2873 
Q 3191 2616 2906 2266 
Q 2828 2175 2409 1742 
Q 1991 1309 1228 531 
z
" transform="scale(0.015625)"/>
       </defs>
       <use xlink:href="#DejaVuSans-2212"/>
       <use xlink:href="#DejaVuSans-32" transform="translate(83.789062 0)"/>
      </g>
     </g>
    </g>
    <g id="ytick_3">
     <g id="line2d_8">
      <path d="M 58.304 155.653399 
L 579.6 155.653399 
" clip-path="url(#pa6b2af6e1d)" style="fill: none; stroke: #b0b0b0; stroke-opacity: 0.4; stroke-width: 0.4; stroke-linecap: square"/>
     </g>
     <g id="line2d_9">
      <g>
       <use xlink:href="#maa52178c4b" x="58.304" y="155.653399" style="stroke: #000000; stroke-width: 0.8"/>
      </g>
     </g>
     <g id="text_7">
      <!-- −1 -->
      <g transform="translate(36.561813 159.452617) scale(0.1 -0.1)">
       <defs>
        <path id="DejaVuSans-31" d="M 794 531 
L 1825 531 
L 1825 4091 
L 703 3866 
L 703 4441 
L 1819 4666 
L 2450 4666 
L 2450 531 
L 3481 531 
L 3481 0 
L 794 0 
L 794 531 
z
" transform="scale(0.015625)"/>
       </defs>
       <use xlink:href="#DejaVuSans-2212"/>
       <use xlink:href="#DejaVuSans-31" transform="translate(83.789062 0)"/>
      </g>
     </g>
    </g>
    <g id="ytick_4">
     <g id="line2d_10">
      <path d="M 58.304 114.254787 
L 579.6 114.254787 
" clip-path="url(#pa6b2af6e1d)" style="fill: none; stroke: #b0b0b0; stroke-opacity: 0.4; stroke-width: 0.4; stroke-linecap: square"/>
     </g>
     <g id="line2d_11">
      <g>
       <use xlink:href="#maa52178c4b" x="58.304" y="114.254787" style="stroke: #000000; stroke-width: 0.8"/>
      </g>
     </g>
     <g id="text_8">
      <!-- 0 -->
      <g transform="translate(44.9415 118.054006) scale(0.1 -0.1)">
       <defs>
        <path id="DejaVuSans-30" d="M 2034 4250 
Q 1547 4250 1301 3770 
Q 1056 3291 1056 2328 
Q 1056 1369 1301 889 
Q 1547 409 2034 409 
Q 2525 409 2770 889 
Q 3016 1369 3016 2328 
Q 3016 3291 2770 3770 
Q 2525 4250 2034 4250 
z
M 2034 4750 
Q 2819 4750 3233 4129 
Q 3647 3509 3647 2328 
Q 3647 1150 3233 529 
Q 2819 -91 2034 -91 
Q 1250 -91 836 529 
Q 422 1150 422 2328 
Q 422 3509 836 4129 
Q 1250 4750 2034 4750 
z
" transform="scale(0.015625)"/>
       </defs>
       <use xlink:href="#DejaVuSans-30"/>
      </g>
     </g>
    </g>
    <g id="ytick_5">
     <g id="line2d_12">
      <path d="M 58.304 72.856176 
L 579.6 72.856176 
" clip-path="url(#pa6b2af6e1d)" style="fill: none; stroke: #b0b0b0; stroke-opacity: 0.4; stroke-width: 0.4; stroke-linecap: square"/>
     </g>
     <g id="line2d_13">
      <g>
       <use xlink:href="#maa52178c4b" x="58.304" y="72.856176" style="stroke: #000000; stroke-width: 0.8"/>
      </g>
     </g>
     <g id="text_9">
      <!-- 1 -->
      <g transform="translate(44.9415 76.655395) scale(0.1 -0.1)">
       <use xlink:href="#DejaVuSans-31"/>
      </g>
     </g>
    </g>
    <g id="text_10">
     <!-- Δ median waktu respons p50 (ms) -->
     <g transform="translate(19.284313 241.442469) rotate(-90) scale(0.1 -0.1)">
      <defs>
       <path id="DejaVuSans-394" d="M 2188 4044 
L 906 525 
L 3472 525 
L 2188 4044 
z
M 50 0 
L 1831 4666 
L 2547 4666 
L 4325 0 
L 50 0 
z
" transform="scale(0.015625)"/>
       <path id="DejaVuSans-64" d="M 2906 2969 
L 2906 4863 
L 3481 4863 
L 3481 0 
L 2906 0 
L 2906 525 
Q 2725 213 2448 61 
Q 2172 -91 1784 -91 
Q 1150 -91 751 415 
Q 353 922 353 1747 
Q 353 2572 751 3078 
Q 1150 3584 1784 3584 
Q 2172 3584 2448 3432 
Q 2725 3281 2906 2969 
z
M 947 1747 
Q 947 1113 1208 752 
Q 1469 391 1925 391 
Q 2381 391 2643 752 
Q 2906 1113 2906 1747 
Q 2906 2381 2643 2742 
Q 2381 3103 1925 3103 
Q 1469 3103 1208 2742 
Q 947 2381 947 1747 
z
" transform="scale(0.015625)"/>
       <path id="DejaVuSans-77" d="M 269 3500 
L 844 3500 
L 1563 769 
L 2278 3500 
L 2956 3500 
L 3675 769 
L 4391 3500 
L 4966 3500 
L 4050 0 
L 3372 0 
L 2619 2869 
L 1863 0 
L 1184 0 
L 269 3500 
z
" transform="scale(0.015625)"/>
       <path id="DejaVuSans-74" d="M 1172 4494 
L 1172 3500 
L 2356 3500 
L 2356 3053 
L 1172 3053 
L 1172 1153 
Q 1172 725 1289 603 
Q 1406 481 1766 481 
L 2356 481 
L 2356 0 
L 1766 0 
Q 1100 0 847 248 
Q 594 497 594 1153 
L 594 3053 
L 172 3053 
L 172 3500 
L 594 3500 
L 594 4494 
L 1172 4494 
z
" transform="scale(0.015625)"/>
       <path id="DejaVuSans-35" d="M 691 4666 
L 3169 4666 
L 3169 4134 
L 1269 4134 
L 1269 2991 
Q 1406 3038 1543 3061 
Q 1681 3084 1819 3084 
Q 2600 3084 3056 2656 
Q 3513 2228 3513 1497 
Q 3513 744 3044 326 
Q 2575 -91 1722 -91 
Q 1428 -91 1123 -41 
Q 819 9 494 109 
L 494 744 
Q 775 591 1075 516 
Q 1375 441 1709 441 
Q 2250 441 2565 725 
Q 2881 1009 2881 1497 
Q 2881 1984 2565 2268 
Q 2250 2553 1709 2553 
Q 1456 2553 1204 2497 
Q 953 2441 691 2322 
L 691 4666 
z
" transform="scale(0.015625)"/>
       <path id="DejaVuSans-28" d="M 1984 4856 
Q 1566 4138 1362 3434 
Q 1159 2731 1159 2009 
Q 1159 1288 1364 580 
Q 1569 -128 1984 -844 
L 1484 -844 
Q 1016 -109 783 600 
Q 550 1309 550 2009 
Q 550 2706 781 3412 
Q 1013 4119 1484 4856 
L 1984 4856 
z
" transform="scale(0.015625)"/>
       <path id="DejaVuSans-29" d="M 513 4856 
L 1013 4856 
Q 1481 4119 1714 3412 
Q 1947 2706 1947 2009 
Q 1947 1309 1714 600 
Q 1481 -109 1013 -844 
L 513 -844 
Q 928 -128 1133 580 
Q 1338 1288 1338 2009 
Q 1338 2731 1133 3434 
Q 928 4138 513 4856 
z
" transform="scale(0.015625)"/>
      </defs>
      <use xlink:href="#DejaVuSans-394"/>
      <use xlink:href="#DejaVuSans-20" transform="translate(68.408203 0)"/>
      <use xlink:href="#DejaVuSans-6d" transform="translate(100.195312 0)"/>
      <use xlink:href="#DejaVuSans-65" transform="translate(197.607422 0)"/>
      <use xlink:href="#DejaVuSans-64" transform="translate(259.130859 0)"/>
      <use xlink:href="#DejaVuSans-69" transform="translate(322.607422 0)"/>
      <use xlink:href="#DejaVuSans-61" transform="translate(350.390625 0)"/>
      <use xlink:href="#DejaVuSans-6e" transform="translate(411.669922 0)"/>
      <use xlink:href="#DejaVuSans-20" transform="translate(475.048828 0)"/>
      <use xlink:href="#DejaVuSans-77" transform="translate(506.835938 0)"/>
      <use xlink:href="#DejaVuSans-61" transform="translate(588.623047 0)"/>
      <use xlink:href="#DejaVuSans-6b" transform="translate(649.902344 0)"/>
      <use xlink:href="#DejaVuSans-74" transform="translate(707.8125 0)"/>
      <use xlink:href="#DejaVuSans-75" transform="translate(747.021484 0)"/>
      <use xlink:href="#DejaVuSans-20" transform="translate(810.400391 0)"/>
      <use xlink:href="#DejaVuSans-72" transform="translate(842.1875 0)"/>
      <use xlink:href="#DejaVuSans-65" transform="translate(881.050781 0)"/>
      <use xlink:href="#DejaVuSans-73" transform="translate(942.574219 0)"/>
      <use xlink:href="#DejaVuSans-70" transform="translate(994.673828 0)"/>
      <use xlink:href="#DejaVuSans-6f" transform="translate(1058.150391 0)"/>
      <use xlink:href="#DejaVuSans-6e" transform="translate(1119.332031 0)"/>
      <use xlink:href="#DejaVuSans-73" transform="translate(1182.710938 0)"/>
      <use xlink:href="#DejaVuSans-20" transform="translate(1234.810547 0)"/>
      <use xlink:href="#DejaVuSans-70" transform="translate(1266.597656 0)"/>
      <use xlink:href="#DejaVuSans-35" transform="translate(1330.074219 0)"/>
      <use xlink:href="#DejaVuSans-30" transform="translate(1393.697266 0)"/>
      <use xlink:href="#DejaVuSans-20" transform="translate(1457.320312 0)"/>
      <use xlink:href="#DejaVuSans-28" transform="translate(1489.107422 0)"/>
      <use xlink:href="#DejaVuSans-6d" transform="translate(1528.121094 0)"/>
      <use xlink:href="#DejaVuSans-73" transform="translate(1625.533203 0)"/>
      <use xlink:href="#DejaVuSans-29" transform="translate(1677.632812 0)"/>
     </g>
     <!-- caching aktif − caching nonaktif -->
     <g transform="translate(30.482125 236.619031) rotate(-90) scale(0.1 -0.1)">
      <defs>
       <path id="DejaVuSans-63" d="M 3122 3366 
L 3122 2828 
Q 2878 2963 2633 3030 
Q 2388 3097 2138 3097 
Q 1578 3097 1268 2742 
Q 959 2388 959 1747 
Q 959 1106 1268 751 
Q 1578 397 2138 397 
Q 2388 397 2633 464 
Q 2878 531 3122 666 
L 3122 134 
Q 2881 22 2623 -34 
Q 2366 -91 2075 -91 
Q 1284 -91 818 406 
Q 353 903 353 1747 
Q 353 2603 823 3093 
Q 1294 3584 2113 3584 
Q 2378 3584 2631 3529 
Q 2884 3475 3122 3366 
z
" transform="scale(0.015625)"/>
       <path id="DejaVuSans-68" d="M 3513 2113 
L 3513 0 
L 2938 0 
L 2938 2094 
Q 2938 2591 2744 2837 
Q 2550 3084 2163 3084 
Q 1697 3084 1428 2787 
Q 1159 2491 1159 1978 
L 1159 0 
L 581 0 
L 581 4863 
L 1159 4863 
L 1159 2956 
Q 1366 3272 1645 3428 
Q 1925 3584 2291 3584 
Q 2894 3584 3203 3211 
Q 3513 2838 3513 2113 
z
" transform="scale(0.015625)"/>
       <path id="DejaVuSans-67" d="M 2906 1791 
Q 2906 2416 2648 2759 
Q 2391 3103 1925 3103 
Q 1463 3103 1205 2759 
Q 947 2416 947 1791 
Q 947 1169 1205 825 
Q 1463 481 1925 481 
Q 2391 481 2648 825 
Q 2906 1169 2906 1791 
z
M 3481 434 
Q 3481 -459 3084 -895 
Q 2688 -1331 1869 -1331 
Q 1566 -1331 1297 -1286 
Q 1028 -1241 775 -1147 
L 775 -588 
Q 1028 -725 1275 -790 
Q 1522 -856 1778 -856 
Q 2344 -856 2625 -561 
Q 2906 -266 2906 331 
L 2906 616 
Q 2728 306 2450 153 
Q 2172 0 1784 0 
Q 1141 0 747 490 
Q 353 981 353 1791 
Q 353 2603 747 3093 
Q 1141 3584 1784 3584 
Q 2172 3584 2450 3431 
Q 2728 3278 2906 2969 
L 2906 3500 
L 3481 3500 
L 3481 434 
z
" transform="scale(0.015625)"/>
      </defs>
      <use xlink:href="#DejaVuSans-63"/>
      <use xlink:href="#DejaVuSans-61" transform="translate(54.980469 0)"/>
      <use xlink:href="#DejaVuSans-63" transform="translate(116.259766 0)"/>
      <use xlink:href="#DejaVuSans-68" transform="translate(171.240234 0)"/>
      <use xlink:href="#DejaVuSans-69" transform="translate(234.619141 0)"/>
      <use xlink:href="#DejaVuSans-6e" transform="translate(262.402344 0)"/>
      <use xlink:href="#DejaVuSans-67" transform="translate(325.78125 0)"/>
      <use xlink:href="#DejaVuSans-20" transform="translate(389.257812 0)"/>
      <use xlink:href="#DejaVuSans-61" transform="translate(421.044922 0)"/>
      <use xlink:href="#DejaVuSans-6b" transform="translate(482.324219 0)"/>
      <use xlink:href="#DejaVuSans-74" transform="translate(540.234375 0)"/>
      <use xlink:href="#DejaVuSans-69" transform="translate(579.443359 0)"/>
      <use xlink:href="#DejaVuSans-66" transform="translate(607.226562 0)"/>
      <use xlink:href="#DejaVuSans-20" transform="translate(642.431641 0)"/>
      <use xlink:href="#DejaVuSans-2212" transform="translate(674.21875 0)"/>
      <use xlink:href="#DejaVuSans-20" transform="translate(758.007812 0)"/>
      <use xlink:href="#DejaVuSans-63" transform="translate(789.794922 0)"/>
      <use xlink:href="#DejaVuSans-61" transform="translate(844.775391 0)"/>
      <use xlink:href="#DejaVuSans-63" transform="translate(906.054688 0)"/>
      <use xlink:href="#DejaVuSans-68" transform="translate(961.035156 0)"/>
      <use xlink:href="#DejaVuSans-69" transform="translate(1024.414062 0)"/>
      <use xlink:href="#DejaVuSans-6e" transform="translate(1052.197266 0)"/>
      <use xlink:href="#DejaVuSans-67" transform="translate(1115.576172 0)"/>
      <use xlink:href="#DejaVuSans-20" transform="translate(1179.052734 0)"/>
      <use xlink:href="#DejaVuSans-6e" transform="translate(1210.839844 0)"/>
      <use xlink:href="#DejaVuSans-6f" transform="translate(1274.21875 0)"/>
      <use xlink:href="#DejaVuSans-6e" transform="translate(1335.400391 0)"/>
      <use xlink:href="#DejaVuSans-61" transform="translate(1398.779297 0)"/>
      <use xlink:href="#DejaVuSans-6b" transform="translate(1460.058594 0)"/>
      <use xlink:href="#DejaVuSans-74" transform="translate(1517.96875 0)"/>
      <use xlink:href="#DejaVuSans-69" transform="translate(1557.177734 0)"/>
      <use xlink:href="#DejaVuSans-66" transform="translate(1584.960938 0)"/>
     </g>
    </g>
   </g>
   <g id="patch_3">
    <path d="M 81.999273 114.254787 
L 113.59297 114.254787 
L 113.59297 131.290865 
L 81.999273 131.290865 
z
" clip-path="url(#pa6b2af6e1d)" style="fill: url(#hb6236dc831); stroke: #ffffff; stroke-width: 0.6; stroke-linejoin: miter"/>
   </g>
   <g id="patch_4">
    <path d="M 118.581448 114.254787 
L 150.175145 114.254787 
L 150.175145 125.443518 
L 118.581448 125.443518 
z
" clip-path="url(#pa6b2af6e1d)" style="fill: #1f77b4; stroke: #ffffff; stroke-width: 0.6; stroke-linejoin: miter"/>
   </g>
   <g id="patch_5">
    <path d="M 155.163624 114.254787 
L 186.757321 114.254787 
L 186.757321 242.127832 
L 155.163624 242.127832 
z
" clip-path="url(#pa6b2af6e1d)" style="fill: url(#h3e611ac64f); stroke: #ffffff; stroke-width: 0.6; stroke-linejoin: miter"/>
   </g>
   <g id="patch_6">
    <path d="M 191.745799 114.254787 
L 223.339496 114.254787 
L 223.339496 205.954491 
L 191.745799 205.954491 
z
" clip-path="url(#pa6b2af6e1d)" style="fill: #ff7f0e; stroke: #ffffff; stroke-width: 0.6; stroke-linejoin: miter"/>
   </g>
   <g id="patch_7">
    <path d="M 248.281888 114.254787 
L 279.875585 114.254787 
L 279.875585 86.296898 
L 248.281888 86.296898 
z
" clip-path="url(#pa6b2af6e1d)" style="fill: url(#hb6236dc831); stroke: #ffffff; stroke-width: 0.6; stroke-linejoin: miter"/>
   </g>
   <g id="patch_8">
    <path d="M 284.864064 114.254787 
L 316.457761 114.254787 
L 316.457761 73.209783 
L 284.864064 73.209783 
z
" clip-path="url(#pa6b2af6e1d)" style="fill: #1f77b4; stroke: #ffffff; stroke-width: 0.6; stroke-linejoin: miter"/>
   </g>
   <g id="patch_9">
    <path d="M 321.446239 114.254787 
L 353.039936 114.254787 
L 353.039936 78.080019 
L 321.446239 78.080019 
z
" clip-path="url(#pa6b2af6e1d)" style="fill: url(#h3e611ac64f); stroke: #ffffff; stroke-width: 0.6; stroke-linejoin: miter"/>
   </g>
   <g id="patch_10">
    <path d="M 358.028415 114.254787 
L 389.622112 114.254787 
L 389.622112 76.621804 
L 358.028415 76.621804 
z
" clip-path="url(#pa6b2af6e1d)" style="fill: #ff7f0e; stroke: #ffffff; stroke-width: 0.6; stroke-linejoin: miter"/>
   </g>
   <g id="patch_11">
    <path d="M 414.564504 114.254787 
L 446.158201 114.254787 
L 446.158201 72.239979 
L 414.564504 72.239979 
z
" clip-path="url(#pa6b2af6e1d)" style="fill: url(#hb6236dc831); stroke: #ffffff; stroke-width: 0.6; stroke-linejoin: miter"/>
   </g>
   <g id="patch_12">
    <path d="M 451.146679 114.254787 
L 482.740376 114.254787 
L 482.740376 75.423718 
L 451.146679 75.423718 
z
" clip-path="url(#pa6b2af6e1d)" style="fill: #1f77b4; stroke: #ffffff; stroke-width: 0.6; stroke-linejoin: miter"/>
   </g>
   <g id="patch_13">
    <path d="M 487.728855 114.254787 
L 519.322552 114.254787 
L 519.322552 78.411187 
L 487.728855 78.411187 
z
" clip-path="url(#pa6b2af6e1d)" style="fill: url(#h3e611ac64f); stroke: #ffffff; stroke-width: 0.6; stroke-linejoin: miter"/>
   </g>
   <g id="patch_14">
    <path d="M 524.31103 114.254787 
L 555.904727 114.254787 
L 555.904727 69.922878 
L 524.31103 69.922878 
z
" clip-path="url(#pa6b2af6e1d)" style="fill: #ff7f0e; stroke: #ffffff; stroke-width: 0.6; stroke-linejoin: miter"/>
   </g>
   <g id="LineCollection_1">
    <path d="M 97.796121 137.195943 
L 97.796121 127.283686 
" clip-path="url(#pa6b2af6e1d)" style="fill: none; stroke: #404040"/>
   </g>
   <g id="line2d_14">
    <defs>
     <path id="m60a3df65dd" d="M 2.5 0 
L -2.5 -0 
" style="stroke: #404040"/>
    </defs>
    <g clip-path="url(#pa6b2af6e1d)">
     <use xlink:href="#m60a3df65dd" x="97.796121" y="137.195943" style="fill: #1f77b4; stroke: #404040"/>
    </g>
   </g>
   <g id="line2d_15">
    <g clip-path="url(#pa6b2af6e1d)">
     <use xlink:href="#m60a3df65dd" x="97.796121" y="127.283686" style="fill: #1f77b4; stroke: #404040"/>
    </g>
   </g>
   <g id="LineCollection_2">
    <path d="M 134.378297 129.251123 
L 134.378297 119.356463 
" clip-path="url(#pa6b2af6e1d)" style="fill: none; stroke: #404040"/>
   </g>
   <g id="line2d_16">
    <g clip-path="url(#pa6b2af6e1d)">
     <use xlink:href="#m60a3df65dd" x="134.378297" y="129.251123" style="fill: #1f77b4; stroke: #404040"/>
    </g>
   </g>
   <g id="line2d_17">
    <g clip-path="url(#pa6b2af6e1d)">
     <use xlink:href="#m60a3df65dd" x="134.378297" y="119.356463" style="fill: #1f77b4; stroke: #404040"/>
    </g>
   </g>
   <g id="LineCollection_3">
    <path d="M 170.960472 249.983842 
L 170.960472 233.048298 
" clip-path="url(#pa6b2af6e1d)" style="fill: none; stroke: #404040"/>
   </g>
   <g id="line2d_18">
    <g clip-path="url(#pa6b2af6e1d)">
     <use xlink:href="#m60a3df65dd" x="170.960472" y="249.983842" style="fill: #1f77b4; stroke: #404040"/>
    </g>
   </g>
   <g id="line2d_19">
    <g clip-path="url(#pa6b2af6e1d)">
     <use xlink:href="#m60a3df65dd" x="170.960472" y="233.048298" style="fill: #1f77b4; stroke: #404040"/>
    </g>
   </g>
   <g id="LineCollection_4">
    <path d="M 207.542648 212.624476 
L 207.542648 195.844376 
" clip-path="url(#pa6b2af6e1d)" style="fill: none; stroke: #404040"/>
   </g>
   <g id="line2d_20">
    <g clip-path="url(#pa6b2af6e1d)">
     <use xlink:href="#m60a3df65dd" x="207.542648" y="212.624476" style="fill: #1f77b4; stroke: #404040"/>
    </g>
   </g>
   <g id="line2d_21">
    <g clip-path="url(#pa6b2af6e1d)">
     <use xlink:href="#m60a3df65dd" x="207.542648" y="195.844376" style="fill: #1f77b4; stroke: #404040"/>
    </g>
   </g>
   <g id="LineCollection_5">
    <path d="M 264.078737 92.285526 
L 264.078737 79.438643 
" clip-path="url(#pa6b2af6e1d)" style="fill: none; stroke: #404040"/>
   </g>
   <g id="line2d_22">
    <g clip-path="url(#pa6b2af6e1d)">
     <use xlink:href="#m60a3df65dd" x="264.078737" y="92.285526" style="fill: #1f77b4; stroke: #404040"/>
    </g>
   </g>
   <g id="line2d_23">
    <g clip-path="url(#pa6b2af6e1d)">
     <use xlink:href="#m60a3df65dd" x="264.078737" y="79.438643" style="fill: #1f77b4; stroke: #404040"/>
    </g>
   </g>
   <g id="LineCollection_6">
    <path d="M 300.660912 78.006787 
L 300.660912 69.018558 
" clip-path="url(#pa6b2af6e1d)" style="fill: none; stroke: #404040"/>
   </g>
   <g id="line2d_24">
    <g clip-path="url(#pa6b2af6e1d)">
     <use xlink:href="#m60a3df65dd" x="300.660912" y="78.006787" style="fill: #1f77b4; stroke: #404040"/>
    </g>
   </g>
   <g id="line2d_25">
    <g clip-path="url(#pa6b2af6e1d)">
     <use xlink:href="#m60a3df65dd" x="300.660912" y="69.018558" style="fill: #1f77b4; stroke: #404040"/>
    </g>
   </g>
   <g id="LineCollection_7">
    <path d="M 337.243088 92.652322 
L 337.243088 73.911713 
" clip-path="url(#pa6b2af6e1d)" style="fill: none; stroke: #404040"/>
   </g>
   <g id="line2d_26">
    <g clip-path="url(#pa6b2af6e1d)">
     <use xlink:href="#m60a3df65dd" x="337.243088" y="92.652322" style="fill: #1f77b4; stroke: #404040"/>
    </g>
   </g>
   <g id="line2d_27">
    <g clip-path="url(#pa6b2af6e1d)">
     <use xlink:href="#m60a3df65dd" x="337.243088" y="73.911713" style="fill: #1f77b4; stroke: #404040"/>
    </g>
   </g>
   <g id="LineCollection_8">
    <path d="M 373.825263 81.993519 
L 373.825263 69.44758 
" clip-path="url(#pa6b2af6e1d)" style="fill: none; stroke: #404040"/>
   </g>
   <g id="line2d_28">
    <g clip-path="url(#pa6b2af6e1d)">
     <use xlink:href="#m60a3df65dd" x="373.825263" y="81.993519" style="fill: #1f77b4; stroke: #404040"/>
    </g>
   </g>
   <g id="line2d_29">
    <g clip-path="url(#pa6b2af6e1d)">
     <use xlink:href="#m60a3df65dd" x="373.825263" y="69.44758" style="fill: #1f77b4; stroke: #404040"/>
    </g>
   </g>
   <g id="LineCollection_9">
    <path d="M 430.361352 78.709503 
L 430.361352 60.729374 
" clip-path="url(#pa6b2af6e1d)" style="fill: none; stroke: #404040"/>
   </g>
   <g id="line2d_30">
    <g clip-path="url(#pa6b2af6e1d)">
     <use xlink:href="#m60a3df65dd" x="430.361352" y="78.709503" style="fill: #1f77b4; stroke: #404040"/>
    </g>
   </g>
   <g id="line2d_31">
    <g clip-path="url(#pa6b2af6e1d)">
     <use xlink:href="#m60a3df65dd" x="430.361352" y="60.729374" style="fill: #1f77b4; stroke: #404040"/>
    </g>
   </g>
   <g id="LineCollection_10">
    <path d="M 466.943528 79.882636 
L 466.943528 69.918769 
" clip-path="url(#pa6b2af6e1d)" style="fill: none; stroke: #404040"/>
   </g>
   <g id="line2d_32">
    <g clip-path="url(#pa6b2af6e1d)">
     <use xlink:href="#m60a3df65dd" x="466.943528" y="79.882636" style="fill: #1f77b4; stroke: #404040"/>
    </g>
   </g>
   <g id="line2d_33">
    <g clip-path="url(#pa6b2af6e1d)">
     <use xlink:href="#m60a3df65dd" x="466.943528" y="69.918769" style="fill: #1f77b4; stroke: #404040"/>
    </g>
   </g>
   <g id="LineCollection_11">
    <path d="M 503.525703 87.746849 
L 503.525703 57.101974 
" clip-path="url(#pa6b2af6e1d)" style="fill: none; stroke: #404040"/>
   </g>
   <g id="line2d_34">
    <g clip-path="url(#pa6b2af6e1d)">
     <use xlink:href="#m60a3df65dd" x="503.525703" y="87.746849" style="fill: #1f77b4; stroke: #404040"/>
    </g>
   </g>
   <g id="line2d_35">
    <g clip-path="url(#pa6b2af6e1d)">
     <use xlink:href="#m60a3df65dd" x="503.525703" y="57.101974" style="fill: #1f77b4; stroke: #404040"/>
    </g>
   </g>
   <g id="LineCollection_12">
    <path d="M 540.107879 76.000393 
L 540.107879 62.02832 
" clip-path="url(#pa6b2af6e1d)" style="fill: none; stroke: #404040"/>
   </g>
   <g id="line2d_36">
    <g clip-path="url(#pa6b2af6e1d)">
     <use xlink:href="#m60a3df65dd" x="540.107879" y="76.000393" style="fill: #1f77b4; stroke: #404040"/>
    </g>
   </g>
   <g id="line2d_37">
    <g clip-path="url(#pa6b2af6e1d)">
     <use xlink:href="#m60a3df65dd" x="540.107879" y="62.02832" style="fill: #1f77b4; stroke: #404040"/>
    </g>
   </g>
   <g id="line2d_38">
    <path d="M 58.304 114.254787 
L 579.6 114.254787 
" clip-path="url(#pa6b2af6e1d)" style="fill: none; stroke: #333333; stroke-width: 0.8; stroke-linecap: square"/>
   </g>
   <g id="patch_15">
    <path d="M 58.304 274.84 
L 58.304 36.384 
" style="fill: none; stroke: #000000; stroke-width: 0.8; stroke-linejoin: miter; stroke-linecap: square"/>
   </g>
   <g id="patch_16">
    <path d="M 58.304 274.84 
L 579.6 274.84 
" style="fill: none; stroke: #000000; stroke-width: 0.8; stroke-linejoin: miter; stroke-linecap: square"/>
   </g>
   <g id="text_11">
    <!-- -0.4 -->
    <g transform="translate(89.991746 150.369615) scale(0.08 -0.08)">
     <defs>
      <path id="DejaVuSans-2d" d="M 313 2009 
L 1997 2009 
L 1997 1497 
L 313 1497 
L 313 2009 
z
" transform="scale(0.015625)"/>
      <path id="DejaVuSans-2e" d="M 684 794 
L 1344 794 
L 1344 0 
L 684 0 
L 684 794 
z
" transform="scale(0.015625)"/>
      <path id="DejaVuSans-34" d="M 2419 4116 
L 825 1625 
L 2419 1625 
L 2419 4116 
z
M 2253 4666 
L 3047 4666 
L 3047 1625 
L 3713 1625 
L 3713 1100 
L 3047 1100 
L 3047 0 
L 2419 0 
L 2419 1100 
L 313 1100 
L 313 1709 
L 2253 4666 
z
" transform="scale(0.015625)"/>
     </defs>
     <use xlink:href="#DejaVuSans-2d"/>
     <use xlink:href="#DejaVuSans-30" transform="translate(36.083984 0)"/>
     <use xlink:href="#DejaVuSans-2e" transform="translate(99.707031 0)"/>
     <use xlink:href="#DejaVuSans-34" transform="translate(131.494141 0)"/>
    </g>
   </g>
   <g id="text_12">
    <!-- -0.3 -->
    <g transform="translate(126.573922 144.522268) scale(0.08 -0.08)">
     <use xlink:href="#DejaVuSans-2d"/>
     <use xlink:href="#DejaVuSans-30" transform="translate(36.083984 0)"/>
     <use xlink:href="#DejaVuSans-2e" transform="translate(99.707031 0)"/>
     <use xlink:href="#DejaVuSans-33" transform="translate(131.494141 0)"/>
    </g>
   </g>
   <g id="text_13">
    <!-- -3.1 -->
    <g transform="translate(163.156097 261.206582) scale(0.08 -0.08)">
     <use xlink:href="#DejaVuSans-2d"/>
     <use xlink:href="#DejaVuSans-33" transform="translate(36.083984 0)"/>
     <use xlink:href="#DejaVuSans-2e" transform="translate(99.707031 0)"/>
     <use xlink:href="#DejaVuSans-31" transform="translate(131.494141 0)"/>
    </g>
   </g>
   <g id="text_14">
    <!-- -2.2 -->
    <g transform="translate(199.738273 225.033241) scale(0.08 -0.08)">
     <use xlink:href="#DejaVuSans-2d"/>
     <use xlink:href="#DejaVuSans-32" transform="translate(36.083984 0)"/>
     <use xlink:href="#DejaVuSans-2e" transform="translate(99.707031 0)"/>
     <use xlink:href="#DejaVuSans-32" transform="translate(131.494141 0)"/>
    </g>
   </g>
   <g id="text_15">
    <!-- +0.7 -->
    <g transform="translate(254.365612 71.633148) scale(0.08 -0.08)">
     <defs>
      <path id="DejaVuSans-2b" d="M 2944 4013 
L 2944 2272 
L 4684 2272 
L 4684 1741 
L 2944 1741 
L 2944 0 
L 2419 0 
L 2419 1741 
L 678 1741 
L 678 2272 
L 2419 2272 
L 2419 4013 
L 2944 4013 
z
" transform="scale(0.015625)"/>
      <path id="DejaVuSans-37" d="M 525 4666 
L 3525 4666 
L 3525 4397 
L 1831 0 
L 1172 0 
L 2766 4134 
L 525 4134 
L 525 4666 
z
" transform="scale(0.015625)"/>
     </defs>
     <use xlink:href="#DejaVuSans-2b"/>
     <use xlink:href="#DejaVuSans-30" transform="translate(83.789062 0)"/>
     <use xlink:href="#DejaVuSans-2e" transform="translate(147.412109 0)"/>
     <use xlink:href="#DejaVuSans-37" transform="translate(179.199219 0)"/>
    </g>
   </g>
   <g id="text_16">
    <!-- +1.0 -->
    <g transform="translate(290.947787 58.546033) scale(0.08 -0.08)">
     <use xlink:href="#DejaVuSans-2b"/>
     <use xlink:href="#DejaVuSans-31" transform="translate(83.789062 0)"/>
     <use xlink:href="#DejaVuSans-2e" transform="translate(147.412109 0)"/>
     <use xlink:href="#DejaVuSans-30" transform="translate(179.199219 0)"/>
    </g>
   </g>
   <g id="text_17">
    <!-- +0.9 -->
    <g transform="translate(327.529963 63.416269) scale(0.08 -0.08)">
     <defs>
      <path id="DejaVuSans-39" d="M 703 97 
L 703 672 
Q 941 559 1184 500 
Q 1428 441 1663 441 
Q 2288 441 2617 861 
Q 2947 1281 2994 2138 
Q 2813 1869 2534 1725 
Q 2256 1581 1919 1581 
Q 1219 1581 811 2004 
Q 403 2428 403 3163 
Q 403 3881 828 4315 
Q 1253 4750 1959 4750 
Q 2769 4750 3195 4129 
Q 3622 3509 3622 2328 
Q 3622 1225 3098 567 
Q 2575 -91 1691 -91 
Q 1453 -91 1209 -44 
Q 966 3 703 97 
z
M 1959 2075 
Q 2384 2075 2632 2365 
Q 2881 2656 2881 3163 
Q 2881 3666 2632 3958 
Q 2384 4250 1959 4250 
Q 1534 4250 1286 3958 
Q 1038 3666 1038 3163 
Q 1038 2656 1286 2365 
Q 1534 2075 1959 2075 
z
" transform="scale(0.015625)"/>
     </defs>
     <use xlink:href="#DejaVuSans-2b"/>
     <use xlink:href="#DejaVuSans-30" transform="translate(83.789062 0)"/>
     <use xlink:href="#DejaVuSans-2e" transform="translate(147.412109 0)"/>
     <use xlink:href="#DejaVuSans-39" transform="translate(179.199219 0)"/>
    </g>
   </g>
   <g id="text_18">
    <!-- +0.9 -->
    <g transform="translate(364.112138 61.958054) scale(0.08 -0.08)">
     <use xlink:href="#DejaVuSans-2b"/>
     <use xlink:href="#DejaVuSans-30" transform="translate(83.789062 0)"/>
     <use xlink:href="#DejaVuSans-2e" transform="translate(147.412109 0)"/>
     <use xlink:href="#DejaVuSans-39" transform="translate(179.199219 0)"/>
    </g>
   </g>
   <g id="text_19">
    <!-- +1.0 -->
    <g transform="translate(420.648227 57.576229) scale(0.08 -0.08)">
     <use xlink:href="#DejaVuSans-2b"/>
     <use xlink:href="#DejaVuSans-31" transform="translate(83.789062 0)"/>
     <use xlink:href="#DejaVuSans-2e" transform="translate(147.412109 0)"/>
     <use xlink:href="#DejaVuSans-30" transform="translate(179.199219 0)"/>
    </g>
   </g>
   <g id="text_20">
    <!-- +0.9 -->
    <g transform="translate(457.230403 60.759968) scale(0.08 -0.08)">
     <use xlink:href="#DejaVuSans-2b"/>
     <use xlink:href="#DejaVuSans-30" transform="translate(83.789062 0)"/>
     <use xlink:href="#DejaVuSans-2e" transform="translate(147.412109 0)"/>
     <use xlink:href="#DejaVuSans-39" transform="translate(179.199219 0)"/>
    </g>
   </g>
   <g id="text_21">
    <!-- +0.9 -->
    <g transform="translate(493.812578 63.747437) scale(0.08 -0.08)">
     <use xlink:href="#DejaVuSans-2b"/>
     <use xlink:href="#DejaVuSans-30" transform="translate(83.789062 0)"/>
     <use xlink:href="#DejaVuSans-2e" transform="translate(147.412109 0)"/>
     <use xlink:href="#DejaVuSans-39" transform="translate(179.199219 0)"/>
    </g>
   </g>
   <g id="text_22">
    <!-- +1.1 -->
    <g transform="translate(530.394754 55.259128) scale(0.08 -0.08)">
     <use xlink:href="#DejaVuSans-2b"/>
     <use xlink:href="#DejaVuSans-31" transform="translate(83.789062 0)"/>
     <use xlink:href="#DejaVuSans-2e" transform="translate(147.412109 0)"/>
     <use xlink:href="#DejaVuSans-31" transform="translate(179.199219 0)"/>
    </g>
   </g>
   <g id="text_23">
    <!-- Efek caching terhadap waktu respons per pola akses -->
    <g transform="translate(186.777 19.186188) scale(0.1 -0.1)">
     <defs>
      <path id="DejaVuSans-45" d="M 628 4666 
L 3578 4666 
L 3578 4134 
L 1259 4134 
L 1259 2753 
L 3481 2753 
L 3481 2222 
L 1259 2222 
L 1259 531 
L 3634 531 
L 3634 0 
L 628 0 
L 628 4666 
z
" transform="scale(0.015625)"/>
     </defs>
     <use xlink:href="#DejaVuSans-45"/>
     <use xlink:href="#DejaVuSans-66" transform="translate(63.183594 0)"/>
     <use xlink:href="#DejaVuSans-65" transform="translate(98.388672 0)"/>
     <use xlink:href="#DejaVuSans-6b" transform="translate(159.912109 0)"/>
     <use xlink:href="#DejaVuSans-20" transform="translate(217.822266 0)"/>
     <use xlink:href="#DejaVuSans-63" transform="translate(249.609375 0)"/>
     <use xlink:href="#DejaVuSans-61" transform="translate(304.589844 0)"/>
     <use xlink:href="#DejaVuSans-63" transform="translate(365.869141 0)"/>
     <use xlink:href="#DejaVuSans-68" transform="translate(420.849609 0)"/>
     <use xlink:href="#DejaVuSans-69" transform="translate(484.228516 0)"/>
     <use xlink:href="#DejaVuSans-6e" transform="translate(512.011719 0)"/>
     <use xlink:href="#DejaVuSans-67" transform="translate(575.390625 0)"/>
     <use xlink:href="#DejaVuSans-20" transform="translate(638.867188 0)"/>
     <use xlink:href="#DejaVuSans-74" transform="translate(670.654297 0)"/>
     <use xlink:href="#DejaVuSans-65" transform="translate(709.863281 0)"/>
     <use xlink:href="#DejaVuSans-72" transform="translate(771.386719 0)"/>
     <use xlink:href="#DejaVuSans-68" transform="translate(810.75 0)"/>
     <use xlink:href="#DejaVuSans-61" transform="translate(874.128906 0)"/>
     <use xlink:href="#DejaVuSans-64" transform="translate(935.408203 0)"/>
     <use xlink:href="#DejaVuSans-61" transform="translate(998.884766 0)"/>
     <use xlink:href="#DejaVuSans-70" transform="translate(1060.164062 0)"/>
     <use xlink:href="#DejaVuSans-20" transform="translate(1123.640625 0)"/>
     <use xlink:href="#DejaVuSans-77" transform="translate(1155.427734 0)"/>
     <use xlink:href="#DejaVuSans-61" transform="translate(1237.214844 0)"/>
     <use xlink:href="#DejaVuSans-6b" transform="translate(1298.494141 0)"/>
     <use xlink:href="#DejaVuSans-74" transform="translate(1356.404297 0)"/>
     <use xlink:href="#DejaVuSans-75" transform="translate(1395.613281 0)"/>
     <use xlink:href="#DejaVuSans-20" transform="translate(1458.992188 0)"/>
     <use xlink:href="#DejaVuSans-72" transform="translate(1490.779297 0)"/>
     <use xlink:href="#DejaVuSans-65" transform="translate(1529.642578 0)"/>
     <use xlink:href="#DejaVuSans-73" transform="translate(1591.166016 0)"/>
     <use xlink:href="#DejaVuSans-70" transform="translate(1643.265625 0)"/>
     <use xlink:href="#DejaVuSans-6f" transform="translate(1706.742188 0)"/>
     <use xlink:href="#DejaVuSans-6e" transform="translate(1767.923828 0)"/>
     <use xlink:href="#DejaVuSans-73" transform="translate(1831.302734 0)"/>
     <use xlink:href="#DejaVuSans-20" transform="translate(1883.402344 0)"/>
     <use xlink:href="#DejaVuSans-70" transform="translate(1915.189453 0)"/>
     <use xlink:href="#DejaVuSans-65" transform="translate(1978.666016 0)"/>
     <use xlink:href="#DejaVuSans-72" transform="translate(2040.189453 0)"/>
     <use xlink:href="#DejaVuSans-20" transform="translate(2081.302734 0)"/>
     <use xlink:href="#DejaVuSans-70" transform="translate(2113.089844 0)"/>
     <use xlink:href="#DejaVuSans-6f" transform="translate(2176.566406 0)"/>
     <use xlink:href="#DejaVuSans-6c" transform="translate(2237.748047 0)"/>
     <use xlink:href="#DejaVuSans-61" transform="translate(2265.53125 0)"/>
     <use xlink:href="#DejaVuSans-20" transform="translate(2326.810547 0)"/>
     <use xlink:href="#DejaVuSans-61" transform="translate(2358.597656 0)"/>
     <use xlink:href="#DejaVuSans-6b" transform="translate(2419.876953 0)"/>
     <use xlink:href="#DejaVuSans-73" transform="translate(2477.787109 0)"/>
     <use xlink:href="#DejaVuSans-65" transform="translate(2529.886719 0)"/>
     <use xlink:href="#DejaVuSans-73" transform="translate(2591.410156 0)"/>
    </g>
    <!-- negatif = caching mempercepat; n = 30 run per kondisi per cell; whisker = CI bootstrap 95% selisih median -->
    <g transform="translate(48.025438 30.384) scale(0.1 -0.1)">
     <defs>
      <path id="DejaVuSans-3d" d="M 678 2906 
L 4684 2906 
L 4684 2381 
L 678 2381 
L 678 2906 
z
M 678 1631 
L 4684 1631 
L 4684 1100 
L 678 1100 
L 678 1631 
z
" transform="scale(0.015625)"/>
      <path id="DejaVuSans-3b" d="M 750 3309 
L 1409 3309 
L 1409 2516 
L 750 2516 
L 750 3309 
z
M 750 794 
L 1409 794 
L 1409 256 
L 897 -744 
L 494 -744 
L 750 256 
L 750 794 
z
" transform="scale(0.015625)"/>
      <path id="DejaVuSans-43" d="M 4122 4306 
L 4122 3641 
Q 3803 3938 3442 4084 
Q 3081 4231 2675 4231 
Q 1875 4231 1450 3742 
Q 1025 3253 1025 2328 
Q 1025 1406 1450 917 
Q 1875 428 2675 428 
Q 3081 428 3442 575 
Q 3803 722 4122 1019 
L 4122 359 
Q 3791 134 3420 21 
Q 3050 -91 2638 -91 
Q 1578 -91 968 557 
Q 359 1206 359 2328 
Q 359 3453 968 4101 
Q 1578 4750 2638 4750 
Q 3056 4750 3426 4639 
Q 3797 4528 4122 4306 
z
" transform="scale(0.015625)"/>
      <path id="DejaVuSans-49" d="M 628 4666 
L 1259 4666 
L 1259 0 
L 628 0 
L 628 4666 
z
" transform="scale(0.015625)"/>
      <path id="DejaVuSans-62" d="M 3116 1747 
Q 3116 2381 2855 2742 
Q 2594 3103 2138 3103 
Q 1681 3103 1420 2742 
Q 1159 2381 1159 1747 
Q 1159 1113 1420 752 
Q 1681 391 2138 391 
Q 2594 391 2855 752 
Q 3116 1113 3116 1747 
z
M 1159 2969 
Q 1341 3281 1617 3432 
Q 1894 3584 2278 3584 
Q 2916 3584 3314 3078 
Q 3713 2572 3713 1747 
Q 3713 922 3314 415 
Q 2916 -91 2278 -91 
Q 1894 -91 1617 61 
Q 1341 213 1159 525 
L 1159 0 
L 581 0 
L 581 4863 
L 1159 4863 
L 1159 2969 
z
" transform="scale(0.015625)"/>
      <path id="DejaVuSans-25" d="M 4653 2053 
Q 4381 2053 4226 1822 
Q 4072 1591 4072 1178 
Q 4072 772 4226 539 
Q 4381 306 4653 306 
Q 4919 306 5073 539 
Q 5228 772 5228 1178 
Q 5228 1588 5073 1820 
Q 4919 2053 4653 2053 
z
M 4653 2450 
Q 5147 2450 5437 2106 
Q 5728 1763 5728 1178 
Q 5728 594 5436 251 
Q 5144 -91 4653 -91 
Q 4153 -91 3862 251 
Q 3572 594 3572 1178 
Q 3572 1766 3864 2108 
Q 4156 2450 4653 2450 
z
M 1428 4353 
Q 1159 4353 1004 4120 
Q 850 3888 850 3481 
Q 850 3069 1003 2837 
Q 1156 2606 1428 2606 
Q 1700 2606 1854 2837 
Q 2009 3069 2009 3481 
Q 2009 3884 1853 4118 
Q 1697 4353 1428 4353 
z
M 4250 4750 
L 4750 4750 
L 1831 -91 
L 1331 -91 
L 4250 4750 
z
M 1428 4750 
Q 1922 4750 2215 4408 
Q 2509 4066 2509 3481 
Q 2509 2891 2217 2550 
Q 1925 2209 1428 2209 
Q 931 2209 642 2551 
Q 353 2894 353 3481 
Q 353 4063 643 4406 
Q 934 4750 1428 4750 
z
" transform="scale(0.015625)"/>
     </defs>
     <use xlink:href="#DejaVuSans-6e"/>
     <use xlink:href="#DejaVuSans-65" transform="translate(63.378906 0)"/>
     <use xlink:href="#DejaVuSans-67" transform="translate(124.902344 0)"/>
     <use xlink:href="#DejaVuSans-61" transform="translate(188.378906 0)"/>
     <use xlink:href="#DejaVuSans-74" transform="translate(249.658203 0)"/>
     <use xlink:href="#DejaVuSans-69" transform="translate(288.867188 0)"/>
     <use xlink:href="#DejaVuSans-66" transform="translate(316.650391 0)"/>
     <use xlink:href="#DejaVuSans-20" transform="translate(351.855469 0)"/>
     <use xlink:href="#DejaVuSans-3d" transform="translate(383.642578 0)"/>
     <use xlink:href="#DejaVuSans-20" transform="translate(467.431641 0)"/>
     <use xlink:href="#DejaVuSans-63" transform="translate(499.21875 0)"/>
     <use xlink:href="#DejaVuSans-61" transform="translate(554.199219 0)"/>
     <use xlink:href="#DejaVuSans-63" transform="translate(615.478516 0)"/>
     <use xlink:href="#DejaVuSans-68" transform="translate(670.458984 0)"/>
     <use xlink:href="#DejaVuSans-69" transform="translate(733.837891 0)"/>
     <use xlink:href="#DejaVuSans-6e" transform="translate(761.621094 0)"/>
     <use xlink:href="#DejaVuSans-67" transform="translate(825 0)"/>
     <use xlink:href="#DejaVuSans-20" transform="translate(888.476562 0)"/>
     <use xlink:href="#DejaVuSans-6d" transform="translate(920.263672 0)"/>
     <use xlink:href="#DejaVuSans-65" transform="translate(1017.675781 0)"/>
     <use xlink:href="#DejaVuSans-6d" transform="translate(1079.199219 0)"/>
     <use xlink:href="#DejaVuSans-70" transform="translate(1176.611328 0)"/>
     <use xlink:href="#DejaVuSans-65" transform="translate(1240.087891 0)"/>
     <use xlink:href="#DejaVuSans-72" transform="translate(1301.611328 0)"/>
     <use xlink:href="#DejaVuSans-63" transform="translate(1340.474609 0)"/>
     <use xlink:href="#DejaVuSans-65" transform="translate(1395.455078 0)"/>
     <use xlink:href="#DejaVuSans-70" transform="translate(1456.978516 0)"/>
     <use xlink:href="#DejaVuSans-61" transform="translate(1520.455078 0)"/>
     <use xlink:href="#DejaVuSans-74" transform="translate(1581.734375 0)"/>
     <use xlink:href="#DejaVuSans-3b" transform="translate(1620.943359 0)"/>
     <use xlink:href="#DejaVuSans-20" transform="translate(1654.634766 0)"/>
     <use xlink:href="#DejaVuSans-6e" transform="translate(1686.421875 0)"/>
     <use xlink:href="#DejaVuSans-20" transform="translate(1749.800781 0)"/>
     <use xlink:href="#DejaVuSans-3d" transform="translate(1781.587891 0)"/>
     <use xlink:href="#DejaVuSans-20" transform="translate(1865.376953 0)"/>
     <use xlink:href="#DejaVuSans-33" transform="translate(1897.164062 0)"/>
     <use xlink:href="#DejaVuSans-30" transform="translate(1960.787109 0)"/>
     <use xlink:href="#DejaVuSans-20" transform="translate(2024.410156 0)"/>
     <use xlink:href="#DejaVuSans-72" transform="translate(2056.197266 0)"/>
     <use xlink:href="#DejaVuSans-75" transform="translate(2097.310547 0)"/>
     <use xlink:href="#DejaVuSans-6e" transform="translate(2160.689453 0)"/>
     <use xlink:href="#DejaVuSans-20" transform="translate(2224.068359 0)"/>
     <use xlink:href="#DejaVuSans-70" transform="translate(2255.855469 0)"/>
     <use xlink:href="#DejaVuSans-65" transform="translate(2319.332031 0)"/>
     <use xlink:href="#DejaVuSans-72" transform="translate(2380.855469 0)"/>
     <use xlink:href="#DejaVuSans-20" transform="translate(2421.96875 0)"/>
     <use xlink:href="#DejaVuSans-6b" transform="translate(2453.755859 0)"/>
     <use xlink:href="#DejaVuSans-6f" transform="translate(2508.041016 0)"/>
     <use xlink:href="#DejaVuSans-6e" transform="translate(2569.222656 0)"/>
     <use xlink:href="#DejaVuSans-64" transform="translate(2632.601562 0)"/>
     <use xlink:href="#DejaVuSans-69" transform="translate(2696.078125 0)"/>
     <use xlink:href="#DejaVuSans-73" transform="translate(2723.861328 0)"/>
     <use xlink:href="#DejaVuSans-69" transform="translate(2775.960938 0)"/>
     <use xlink:href="#DejaVuSans-20" transform="translate(2803.744141 0)"/>
     <use xlink:href="#DejaVuSans-70" transform="translate(2835.53125 0)"/>
     <use xlink:href="#DejaVuSans-65" transform="translate(2899.007812 0)"/>
     <use xlink:href="#DejaVuSans-72" transform="translate(2960.53125 0)"/>
     <use xlink:href="#DejaVuSans-20" transform="translate(3001.644531 0)"/>
     <use xlink:href="#DejaVuSans-63" transform="translate(3033.431641 0)"/>
     <use xlink:href="#DejaVuSans-65" transform="translate(3088.412109 0)"/>
     <use xlink:href="#DejaVuSans-6c" transform="translate(3149.935547 0)"/>
     <use xlink:href="#DejaVuSans-6c" transform="translate(3177.71875 0)"/>
     <use xlink:href="#DejaVuSans-3b" transform="translate(3205.501953 0)"/>
     <use xlink:href="#DejaVuSans-20" transform="translate(3239.193359 0)"/>
     <use xlink:href="#DejaVuSans-77" transform="translate(3270.980469 0)"/>
     <use xlink:href="#DejaVuSans-68" transform="translate(3352.767578 0)"/>
     <use xlink:href="#DejaVuSans-69" transform="translate(3416.146484 0)"/>
     <use xlink:href="#DejaVuSans-73" transform="translate(3443.929688 0)"/>
     <use xlink:href="#DejaVuSans-6b" transform="translate(3496.029297 0)"/>
     <use xlink:href="#DejaVuSans-65" transform="translate(3550.314453 0)"/>
     <use xlink:href="#DejaVuSans-72" transform="translate(3611.837891 0)"/>
     <use xlink:href="#DejaVuSans-20" transform="translate(3652.951172 0)"/>
     <use xlink:href="#DejaVuSans-3d" transform="translate(3684.738281 0)"/>
     <use xlink:href="#DejaVuSans-20" transform="translate(3768.527344 0)"/>
     <use xlink:href="#DejaVuSans-43" transform="translate(3800.314453 0)"/>
     <use xlink:href="#DejaVuSans-49" transform="translate(3870.138672 0)"/>
     <use xlink:href="#DejaVuSans-20" transform="translate(3899.630859 0)"/>
     <use xlink:href="#DejaVuSans-62" transform="translate(3931.417969 0)"/>
     <use xlink:href="#DejaVuSans-6f" transform="translate(3994.894531 0)"/>
     <use xlink:href="#DejaVuSans-6f" transform="translate(4056.076172 0)"/>
     <use xlink:href="#DejaVuSans-74" transform="translate(4117.257812 0)"/>
     <use xlink:href="#DejaVuSans-73" transform="translate(4156.466797 0)"/>
     <use xlink:href="#DejaVuSans-74" transform="translate(4208.566406 0)"/>
     <use xlink:href="#DejaVuSans-72" transform="translate(4247.775391 0)"/>
     <use xlink:href="#DejaVuSans-61" transform="translate(4288.888672 0)"/>
     <use xlink:href="#DejaVuSans-70" transform="translate(4350.167969 0)"/>
     <use xlink:href="#DejaVuSans-20" transform="translate(4413.644531 0)"/>
     <use xlink:href="#DejaVuSans-39" transform="translate(4445.431641 0)"/>
     <use xlink:href="#DejaVuSans-35" transform="translate(4509.054688 0)"/>
     <use xlink:href="#DejaVuSans-25" transform="translate(4572.677734 0)"/>
     <use xlink:href="#DejaVuSans-20" transform="translate(4667.697266 0)"/>
     <use xlink:href="#DejaVuSans-73" transform="translate(4699.484375 0)"/>
     <use xlink:href="#DejaVuSans-65" transform="translate(4751.583984 0)"/>
     <use xlink:href="#DejaVuSans-6c" transform="translate(4813.107422 0)"/>
     <use xlink:href="#DejaVuSans-69" transform="translate(4840.890625 0)"/>
     <use xlink:href="#DejaVuSans-73" transform="translate(4868.673828 0)"/>
     <use xlink:href="#DejaVuSans-69" transform="translate(4920.773438 0)"/>
     <use xlink:href="#DejaVuSans-68" transform="translate(4948.556641 0)"/>
     <use xlink:href="#DejaVuSans-20" transform="translate(5011.935547 0)"/>
     <use xlink:href="#DejaVuSans-6d" transform="translate(5043.722656 0)"/>
     <use xlink:href="#DejaVuSans-65" transform="translate(5141.134766 0)"/>
     <use xlink:href="#DejaVuSans-64" transform="translate(5202.658203 0)"/>
     <use xlink:href="#DejaVuSans-69" transform="translate(5266.134766 0)"/>
     <use xlink:href="#DejaVuSans-61" transform="translate(5293.917969 0)"/>
     <use xlink:href="#DejaVuSans-6e" transform="translate(5355.197266 0)"/>
    </g>
   </g>
   <g id="legend_1">
    <g id="patch_17">
     <path d="M 65.504 49.66275 
L 81.504 49.66275 
L 81.504 44.06275 
L 65.504 44.06275 
z
" style="fill: url(#hb6236dc831); stroke: #ffffff; stroke-width: 0.6; stroke-linejoin: miter"/>
    </g>
    <g id="text_24">
     <!-- REST — payload ringan -->
     <g transform="translate(87.904 49.66275) scale(0.08 -0.08)">
      <defs>
       <path id="DejaVuSans-52" d="M 2841 2188 
Q 3044 2119 3236 1894 
Q 3428 1669 3622 1275 
L 4263 0 
L 3584 0 
L 2988 1197 
Q 2756 1666 2539 1819 
Q 2322 1972 1947 1972 
L 1259 1972 
L 1259 0 
L 628 0 
L 628 4666 
L 2053 4666 
Q 2853 4666 3247 4331 
Q 3641 3997 3641 3322 
Q 3641 2881 3436 2590 
Q 3231 2300 2841 2188 
z
M 1259 4147 
L 1259 2491 
L 2053 2491 
Q 2509 2491 2742 2702 
Q 2975 2913 2975 3322 
Q 2975 3731 2742 3939 
Q 2509 4147 2053 4147 
L 1259 4147 
z
" transform="scale(0.015625)"/>
       <path id="DejaVuSans-53" d="M 3425 4513 
L 3425 3897 
Q 3066 4069 2747 4153 
Q 2428 4238 2131 4238 
Q 1616 4238 1336 4038 
Q 1056 3838 1056 3469 
Q 1056 3159 1242 3001 
Q 1428 2844 1947 2747 
L 2328 2669 
Q 3034 2534 3370 2195 
Q 3706 1856 3706 1288 
Q 3706 609 3251 259 
Q 2797 -91 1919 -91 
Q 1588 -91 1214 -16 
Q 841 59 441 206 
L 441 856 
Q 825 641 1194 531 
Q 1563 422 1919 422 
Q 2459 422 2753 634 
Q 3047 847 3047 1241 
Q 3047 1584 2836 1778 
Q 2625 1972 2144 2069 
L 1759 2144 
Q 1053 2284 737 2584 
Q 422 2884 422 3419 
Q 422 4038 858 4394 
Q 1294 4750 2059 4750 
Q 2388 4750 2728 4690 
Q 3069 4631 3425 4513 
z
" transform="scale(0.015625)"/>
       <path id="DejaVuSans-54" d="M -19 4666 
L 3928 4666 
L 3928 4134 
L 2272 4134 
L 2272 0 
L 1638 0 
L 1638 4134 
L -19 4134 
L -19 4666 
z
" transform="scale(0.015625)"/>
       <path id="DejaVuSans-2014" d="M 313 1978 
L 6088 1978 
L 6088 1528 
L 313 1528 
L 313 1978 
z
" transform="scale(0.015625)"/>
       <path id="DejaVuSans-79" d="M 2059 -325 
Q 1816 -950 1584 -1140 
Q 1353 -1331 966 -1331 
L 506 -1331 
L 506 -850 
L 844 -850 
Q 1081 -850 1212 -737 
Q 1344 -625 1503 -206 
L 1606 56 
L 191 3500 
L 800 3500 
L 1894 763 
L 2988 3500 
L 3597 3500 
L 2059 -325 
z
" transform="scale(0.015625)"/>
      </defs>
      <use xlink:href="#DejaVuSans-52"/>
      <use xlink:href="#DejaVuSans-45" transform="translate(69.482422 0)"/>
      <use xlink:href="#DejaVuSans-53" transform="translate(132.666016 0)"/>
      <use xlink:href="#DejaVuSans-54" transform="translate(196.142578 0)"/>
      <use xlink:href="#DejaVuSans-20" transform="translate(257.226562 0)"/>
      <use xlink:href="#DejaVuSans-2014" transform="translate(289.013672 0)"/>
      <use xlink:href="#DejaVuSans-20" transform="translate(389.013672 0)"/>
      <use xlink:href="#DejaVuSans-70" transform="translate(420.800781 0)"/>
      <use xlink:href="#DejaVuSans-61" transform="translate(484.277344 0)"/>
      <use xlink:href="#DejaVuSans-79" transform="translate(545.556641 0)"/>
      <use xlink:href="#DejaVuSans-6c" transform="translate(604.736328 0)"/>
      <use xlink:href="#DejaVuSans-6f" transform="translate(632.519531 0)"/>
      <use xlink:href="#DejaVuSans-61" transform="translate(693.701172 0)"/>
      <use xlink:href="#DejaVuSans-64" transform="translate(754.980469 0)"/>
      <use xlink:href="#DejaVuSans-20" transform="translate(818.457031 0)"/>
      <use xlink:href="#DejaVuSans-72" transform="translate(850.244141 0)"/>
      <use xlink:href="#DejaVuSans-69" transform="translate(891.357422 0)"/>
      <use xlink:href="#DejaVuSans-6e" transform="translate(919.140625 0)"/>
      <use xlink:href="#DejaVuSans-67" transform="translate(982.519531 0)"/>
      <use xlink:href="#DejaVuSans-61" transform="translate(1045.996094 0)"/>
      <use xlink:href="#DejaVuSans-6e" transform="translate(1107.275391 0)"/>
     </g>
    </g>
    <g id="patch_18">
     <path d="M 65.504 61.40525 
L 81.504 61.40525 
L 81.504 55.80525 
L 65.504 55.80525 
z
" style="fill: #1f77b4; stroke: #ffffff; stroke-width: 0.6; stroke-linejoin: miter"/>
    </g>
    <g id="text_25">
     <!-- REST — payload berat -->
     <g transform="translate(87.904 61.40525) scale(0.08 -0.08)">
      <use xlink:href="#DejaVuSans-52"/>
      <use xlink:href="#DejaVuSans-45" transform="translate(69.482422 0)"/>
      <use xlink:href="#DejaVuSans-53" transform="translate(132.666016 0)"/>
      <use xlink:href="#DejaVuSans-54" transform="translate(196.142578 0)"/>
      <use xlink:href="#DejaVuSans-20" transform="translate(257.226562 0)"/>
      <use xlink:href="#DejaVuSans-2014" transform="translate(289.013672 0)"/>
      <use xlink:href="#DejaVuSans-20" transform="translate(389.013672 0)"/>
      <use xlink:href="#DejaVuSans-70" transform="translate(420.800781 0)"/>
      <use xlink:href="#DejaVuSans-61" transform="translate(484.277344 0)"/>
      <use xlink:href="#DejaVuSans-79" transform="translate(545.556641 0)"/>
      <use xlink:href="#DejaVuSans-6c" transform="translate(604.736328 0)"/>
      <use xlink:href="#DejaVuSans-6f" transform="translate(632.519531 0)"/>
      <use xlink:href="#DejaVuSans-61" transform="translate(693.701172 0)"/>
      <use xlink:href="#DejaVuSans-64" transform="translate(754.980469 0)"/>
      <use xlink:href="#DejaVuSans-20" transform="translate(818.457031 0)"/>
      <use xlink:href="#DejaVuSans-62" transform="translate(850.244141 0)"/>
      <use xlink:href="#DejaVuSans-65" transform="translate(913.720703 0)"/>
      <use xlink:href="#DejaVuSans-72" transform="translate(975.244141 0)"/>
      <use xlink:href="#DejaVuSans-61" transform="translate(1016.357422 0)"/>
      <use xlink:href="#DejaVuSans-74" transform="translate(1077.636719 0)"/>
     </g>
    </g>
    <g id="patch_19">
     <path d="M 65.504 73.14775 
L 81.504 73.14775 
L 81.504 67.54775 
L 65.504 67.54775 
z
" style="fill: url(#h3e611ac64f); stroke: #ffffff; stroke-width: 0.6; stroke-linejoin: miter"/>
    </g>
    <g id="text_26">
     <!-- GraphQL — payload ringan -->
     <g transform="translate(87.904 73.14775) scale(0.08 -0.08)">
      <defs>
       <path id="DejaVuSans-47" d="M 3809 666 
L 3809 1919 
L 2778 1919 
L 2778 2438 
L 4434 2438 
L 4434 434 
Q 4069 175 3628 42 
Q 3188 -91 2688 -91 
Q 1594 -91 976 548 
Q 359 1188 359 2328 
Q 359 3472 976 4111 
Q 1594 4750 2688 4750 
Q 3144 4750 3555 4637 
Q 3966 4525 4313 4306 
L 4313 3634 
Q 3963 3931 3569 4081 
Q 3175 4231 2741 4231 
Q 1884 4231 1454 3753 
Q 1025 3275 1025 2328 
Q 1025 1384 1454 906 
Q 1884 428 2741 428 
Q 3075 428 3337 486 
Q 3600 544 3809 666 
z
" transform="scale(0.015625)"/>
       <path id="DejaVuSans-51" d="M 2522 4238 
Q 1834 4238 1429 3725 
Q 1025 3213 1025 2328 
Q 1025 1447 1429 934 
Q 1834 422 2522 422 
Q 3209 422 3611 934 
Q 4013 1447 4013 2328 
Q 4013 3213 3611 3725 
Q 3209 4238 2522 4238 
z
M 3406 84 
L 4238 -825 
L 3475 -825 
L 2784 -78 
Q 2681 -84 2626 -87 
Q 2572 -91 2522 -91 
Q 1538 -91 948 567 
Q 359 1225 359 2328 
Q 359 3434 948 4092 
Q 1538 4750 2522 4750 
Q 3503 4750 4090 4092 
Q 4678 3434 4678 2328 
Q 4678 1516 4351 937 
Q 4025 359 3406 84 
z
" transform="scale(0.015625)"/>
       <path id="DejaVuSans-4c" d="M 628 4666 
L 1259 4666 
L 1259 531 
L 3531 531 
L 3531 0 
L 628 0 
L 628 4666 
z
" transform="scale(0.015625)"/>
      </defs>
      <use xlink:href="#DejaVuSans-47"/>
      <use xlink:href="#DejaVuSans-72" transform="translate(77.490234 0)"/>
      <use xlink:href="#DejaVuSans-61" transform="translate(118.603516 0)"/>
      <use xlink:href="#DejaVuSans-70" transform="translate(179.882812 0)"/>
      <use xlink:href="#DejaVuSans-68" transform="translate(243.359375 0)"/>
      <use xlink:href="#DejaVuSans-51" transform="translate(306.738281 0)"/>
      <use xlink:href="#DejaVuSans-4c" transform="translate(385.449219 0)"/>
      <use xlink:href="#DejaVuSans-20" transform="translate(441.162109 0)"/>
      <use xlink:href="#DejaVuSans-2014" transform="translate(472.949219 0)"/>
      <use xlink:href="#DejaVuSans-20" transform="translate(572.949219 0)"/>
      <use xlink:href="#DejaVuSans-70" transform="translate(604.736328 0)"/>
      <use xlink:href="#DejaVuSans-61" transform="translate(668.212891 0)"/>
      <use xlink:href="#DejaVuSans-79" transform="translate(729.492188 0)"/>
      <use xlink:href="#DejaVuSans-6c" transform="translate(788.671875 0)"/>
      <use xlink:href="#DejaVuSans-6f" transform="translate(816.455078 0)"/>
      <use xlink:href="#DejaVuSans-61" transform="translate(877.636719 0)"/>
      <use xlink:href="#DejaVuSans-64" transform="translate(938.916016 0)"/>
      <use xlink:href="#DejaVuSans-20" transform="translate(1002.392578 0)"/>
      <use xlink:href="#DejaVuSans-72" transform="translate(1034.179688 0)"/>
      <use xlink:href="#DejaVuSans-69" transform="translate(1075.292969 0)"/>
      <use xlink:href="#DejaVuSans-6e" transform="translate(1103.076172 0)"/>
      <use xlink:href="#DejaVuSans-67" transform="translate(1166.455078 0)"/>
      <use xlink:href="#DejaVuSans-61" transform="translate(1229.931641 0)"/>
      <use xlink:href="#DejaVuSans-6e" transform="translate(1291.210938 0)"/>
     </g>
    </g>
    <g id="patch_20">
     <path d="M 65.504 84.89025 
L 81.504 84.89025 
L 81.504 79.29025 
L 65.504 79.29025 
z
" style="fill: #ff7f0e; stroke: #ffffff; stroke-width: 0.6; stroke-linejoin: miter"/>
    </g>
    <g id="text_27">
     <!-- GraphQL — payload berat -->
     <g transform="translate(87.904 84.89025) scale(0.08 -0.08)">
      <use xlink:href="#DejaVuSans-47"/>
      <use xlink:href="#DejaVuSans-72" transform="translate(77.490234 0)"/>
      <use xlink:href="#DejaVuSans-61" transform="translate(118.603516 0)"/>
      <use xlink:href="#DejaVuSans-70" transform="translate(179.882812 0)"/>
      <use xlink:href="#DejaVuSans-68" transform="translate(243.359375 0)"/>
      <use xlink:href="#DejaVuSans-51" transform="translate(306.738281 0)"/>
      <use xlink:href="#DejaVuSans-4c" transform="translate(385.449219 0)"/>
      <use xlink:href="#DejaVuSans-20" transform="translate(441.162109 0)"/>
      <use xlink:href="#DejaVuSans-2014" transform="translate(472.949219 0)"/>
      <use xlink:href="#DejaVuSans-20" transform="translate(572.949219 0)"/>
      <use xlink:href="#DejaVuSans-70" transform="translate(604.736328 0)"/>
      <use xlink:href="#DejaVuSans-61" transform="translate(668.212891 0)"/>
      <use xlink:href="#DejaVuSans-79" transform="translate(729.492188 0)"/>
      <use xlink:href="#DejaVuSans-6c" transform="translate(788.671875 0)"/>
      <use xlink:href="#DejaVuSans-6f" transform="translate(816.455078 0)"/>
      <use xlink:href="#DejaVuSans-61" transform="translate(877.636719 0)"/>
      <use xlink:href="#DejaVuSans-64" transform="translate(938.916016 0)"/>
      <use xlink:href="#DejaVuSans-20" transform="translate(1002.392578 0)"/>
      <use xlink:href="#DejaVuSans-62" transform="translate(1034.179688 0)"/>
      <use xlink:href="#DejaVuSans-65" transform="translate(1097.65625 0)"/>
      <use xlink:href="#DejaVuSans-72" transform="translate(1159.179688 0)"/>
      <use xlink:href="#DejaVuSans-61" transform="translate(1200.292969 0)"/>
      <use xlink:href="#DejaVuSans-74" transform="translate(1261.572266 0)"/>
     </g>
    </g>
   </g>
  </g>
 </g>
 <defs>
  <clipPath id="pa6b2af6e1d">
   <rect x="58.304" y="36.384" width="521.296" height="238.456"/>
  </clipPath>
 </defs>
 <defs>
  <pattern id="hb6236dc831" patternUnits="userSpaceOnUse" x="0" y="0" width="72" height="72">
   <rect x="0" y="0" width="73" height="73" fill="#1f77b4"/>
   <path d="M -36 36 
L 36 -36 
M -30 42 
L 42 -30 
M -24 48 
L 48 -24 
M -18 54 
L 54 -18 
M -12 60 
L 60 -12 
M -6 66 
L 66 -6 
M 0 72 
L 72 0 
M 6 78 
L 78 6 
M 12 84 
L 84 12 
M 18 90 
L 90 18 
M 24 96 
L 96 24 
M 30 102 
L 102 30 
M 36 108 
L 108 36 
" style="fill: #ffffff; stroke: #ffffff; stroke-width: 1.0; stroke-linecap: butt; stroke-linejoin: miter"/>
  </pattern>
  <pattern id="h3e611ac64f" patternUnits="userSpaceOnUse" x="0" y="0" width="72" height="72">
   <rect x="0" y="0" width="73" height="73" fill="#ff7f0e"/>
   <path d="M -36 36 
L 36 -36 
M -30 42 
L 42 -30 
M -24 48 
L 48 -24 
M -18 54 
L 54 -18 
M -12 60 
L 60 -12 
M -6 66 
L 66 -6 
M 0 72 
L 72 0 
M 6 78 
L 78 6 
M 12 84 
L 84 12 
M 18 90 
L 90 18 
M 24 96 
L 96 24 
M 30 102 
L 102 30 
M 36 108 
L 108 36 
" style="fill: #ffffff; stroke: #ffffff; stroke-width: 1.0; stroke-linecap: butt; stroke-linejoin: miter"/>
  </pattern>
 </defs>
</svg>
