<?xml version="1.0" encoding="utf-8" standalone="no"?>
<!DOCTYPE svg PUBLIC "-//W3C//DTD SVG 1.1//EN"
  "http://www.w3.org/Graphics/SVG/1.1/DTD/svg11.dtd">
<svg xmlns:xlink="http://www.w3.org/1999/xlink" width="712.43375pt" height="250.608005pt" viewBox="0 0 712.43375 250.608005" xmlns="http://www.w3.org/2000/svg" version="1.1">
 <metadata>
  <rdf:RDF xmlns:dc="http://purl.org/dc/elements/1.1/" xmlns:cc="http://creativecommons.org/ns#" xmlns:rdf="http://www.w3.org/1999/02/22-rdf-syntax-ns#">
   <cc:Work>
    <dc:type rdf:resource="http://purl.org/dc/dcmitype/StillImage"/>
    <dc:date>2026-07-10T10:39:18.223622</dc:date>
    <dc:format>image/svg+xml</dc:format>
    <dc:creator>
     <cc:Agent>
      <dc:title>Matplotlib v3.10.9, https://matplotlib.org/</dc:title>
     </cc:Agent>
    </dc:creator>
   </cc:Work>
  </rdf:RDF>
 </metadata>
 <defs>
  <style type="text/css">*{stroke-linejoin: round; stroke-linecap: butt}</style>
 </defs>
 <g id="figure_1">
  <g id="patch_1">
   <path d="M 0 250.608005 
L 712.43375 250.608005 
L 712.43375 0 
L 0 0 
z
" style="fill: #ffffff"/>
  </g>
  <g id="axes_1">
   <g id="patch_2">
    <path d="M 50.14375 202.281817 
L 705.23375 202.281817 
L 705.23375 22.318125 
L 50.14375 22.318125 
z
" style="fill: #ffffff"/>
   </g>
   <g id="patch_3">
    <path d="M 79.920568 626.996129 
L 120.295915 626.996129 
L 120.295915 145.185804 
L 79.920568 145.185804 
z
" clip-path="url(#pc8a1a6c761)" style="fill: #7f7f7f"/>
   </g>
   <g id="patch_4">
    <path d="M 130.389752 626.996129 
L 170.765098 626.996129 
L 170.765098 134.142293 
L 130.389752 134.142293 
z
" clip-path="url(#pc8a1a6c761)" style="fill: #7f7f7f"/>
   </g>
   <g id="patch_5">
    <path d="M 180.858935 626.996129 
L 221.234282 626.996129 
L 221.234282 162.756933 
L 180.858935 162.756933 
z
" clip-path="url(#pc8a1a6c761)" style="fill: #7f7f7f"/>
   </g>
   <g id="patch_6">
    <path d="M 231.328118 626.996129 
L 271.703465 626.996129 
L 271.703465 152.9537 
L 231.328118 152.9537 
z
" clip-path="url(#pc8a1a6c761)" style="fill: #7f7f7f"/>
   </g>
   <g id="patch_7">
    <path d="M 281.797302 626.996129 
L 322.172648 626.996129 
L 322.172648 116.774282 
L 281.797302 116.774282 
z
" clip-path="url(#pc8a1a6c761)" style="fill: #7f7f7f"/>
   </g>
   <g id="patch_8">
    <path d="M 332.266485 626.996129 
L 372.641832 626.996129 
L 372.641832 137.762257 
L 332.266485 137.762257 
z
" clip-path="url(#pc8a1a6c761)" style="fill: #7f7f7f"/>
   </g>
   <g id="patch_9">
    <path d="M 382.735668 626.996129 
L 423.111015 626.996129 
L 423.111015 151.368655 
L 382.735668 151.368655 
z
" clip-path="url(#pc8a1a6c761)" style="fill: #7f7f7f"/>
   </g>
   <g id="patch_10">
    <path d="M 433.204852 626.996129 
L 473.580198 626.996129 
L 473.580198 127.078724 
L 433.204852 127.078724 
z
" clip-path="url(#pc8a1a6c761)" style="fill: #7f7f7f"/>
   </g>
   <g id="patch_11">
    <path d="M 483.674035 626.996129 
L 524.049382 626.996129 
L 524.049382 134.28811 
L 483.674035 134.28811 
z
" clip-path="url(#pc8a1a6c761)" style="fill: #7f7f7f"/>
   </g>
   <g id="patch_12">
    <path d="M 534.143218 626.996129 
L 574.518565 626.996129 
L 574.518565 126.016635 
L 534.143218 126.016635 
z
" clip-path="url(#pc8a1a6c761)" style="fill: #7f7f7f"/>
   </g>
   <g id="patch_13">
    <path d="M 584.612402 626.996129 
L 624.987748 626.996129 
L 624.987748 51.112316 
L 584.612402 51.112316 
z
" clip-path="url(#pc8a1a6c761)" style="fill: #7f7f7f"/>
   </g>
   <g id="patch_14">
    <path d="M 635.081585 626.996129 
L 675.456932 626.996129 
L 675.456932 109.648654 
L 635.081585 109.648654 
z
" clip-path="url(#pc8a1a6c761)" style="fill: #7f7f7f"/>
   </g>
   <g id="matplotlib.axis_1">
    <g id="xtick_1">
     <g id="line2d_1">
      <defs>
       <path id="me992904049" d="M 0 0 
L 0 3.5 
" style="stroke: #000000; stroke-width: 0.8"/>
      </defs>
      <g>
       <use xlink:href="#me992904049" x="100.108242" y="202.281817" style="stroke: #000000; stroke-width: 0.8"/>
      </g>
     </g>
     <g id="text_1">
      <!-- M1·high -->
      <g transform="translate(79.294553 232.827147) rotate(-45) scale(0.07 -0.07)">
       <defs>
        <path id="DejaVuSans-4d" d="M 628 4666 
L 1569 4666 
L 2759 1491 
L 3956 4666 
L 4897 4666 
L 4897 0 
L 4281 0 
L 4281 4097 
L 3078 897 
L 2444 897 
L 1241 4097 
L 1241 0 
L 628 0 
L 628 4666 
z
" transform="scale(0.015625)"/>
        <path id="DejaVuSans-31" d="M 794 531 
L 1825 531 
L 1825 4091 
L 703 3866 
L 703 4441 
L 1819 4666 
L 2450 4666 
L 2450 531 
L 3481 531 
L 3481 0 
L 794 0 
L 794 531 
z
" transform="scale(0.015625)"/>
        <path id="DejaVuSans-b7" d="M 684 2619 
L 1344 2619 
L 1344 1825 
L 684 1825 
L 684 2619 
z
" transform="scale(0.015625)"/>
        <path id="DejaVuSans-68" d="M 3513 2113 
L 3513 0 
L 2938 0 
L 2938 2094 
Q 2938 2591 2744 2837 
Q 2550 3084 2163 3084 
Q 1697 3084 1428 2787 
Q 1159 2491 1159 1978 
L 1159 0 
L 581 0 
L 581 4863 
L 1159 4863 
L 1159 2956 
Q 1366 3272 1645 3428 
Q 1925 3584 2291 3584 
Q 2894 3584 3203 3211 
Q 3513 2838 3513 2113 
z
" transform="scale(0.015625)"/>
        <path id="DejaVuSans-69" d="M 603 3500 
L 1178 3500 
L 1178 0 
L 603 0 
L 603 3500 
z
M 603 4863 
L 1178 4863 
L 1178 4134 
L 603 4134 
L 603 4863 
z
" transform="scale(0.015625)"/>
        <path id="DejaVuSans-67" d="M 2906 1791 
Q 2906 2416 2648 2759 
Q 2391 3103 1925 3103 
Q 1463 3103 1205 2759 
Q 947 2416 947 1791 
Q 947 1169 1205 825 
Q 1463 481 1925 481 
Q 2391 481 2648 825 
Q 2906 1169 2906 1791 
z
M 3481 434 
Q 3481 -459 3084 -895 
Q 2688 -1331 1869 -1331 
Q 1566 -1331 1297 -1286 
Q 1028 -1241 775 -1147 
L 775 -588 
Q 1028 -725 1275 -790 
Q 1522 -856 1778 -856 
Q 2344 -856 2625 -561 
Q 2906 -266 2906 331 
L 2906 616 
Q 2728 306 2450 153 
Q 2172 0 1784 0 
Q 1141 0 747 490 
Q 353 981 353 1791 
Q 353 2603 747 3093 
Q 1141 3584 1784 3584 
Q 2172 3584 2450 3431 
Q 2728 3278 2906 2969 
L 2906 3500 
L 3481 3500 
L 3481 434 
z
" transform="scale(0.015625)"/>
       </defs>
       <use xlink:href="#DejaVuSans-4d"/>
       <use xlink:href="#DejaVuSans-31" transform="translate(86.279297 0)"/>
       <use xlink:href="#DejaVuSans-b7" transform="translate(149.902344 0)"/>
       <use xlink:href="#DejaVuSans-68" transform="translate(181.689453 0)"/>
       <use xlink:href="#DejaVuSans-69" transform="translate(245.068359 0)"/>
       <use xlink:href="#DejaVuSans-67" transform="translate(272.851562 0)"/>
       <use xlink:href="#DejaVuSans-68" transform="translate(336.328125 0)"/>
      </g>
     </g>
    </g>
    <g id="xtick_2">
     <g id="line2d_2">
      <g>
       <use xlink:href="#me992904049" x="150.577425" y="202.281817" style="stroke: #000000; stroke-width: 0.8"/>
      </g>
     </g>
     <g id="text_2">
      <!-- M1·low -->
      <g transform="translate(132.103266 230.487618) rotate(-45) scale(0.07 -0.07)">
       <defs>
        <path id="DejaVuSans-6c" d="M 603 4863 
L 1178 4863 
L 1178 0 
L 603 0 
L 603 4863 
z
" transform="scale(0.015625)"/>
        <path id="DejaVuSans-6f" d="M 1959 3097 
Q 1497 3097 1228 2736 
Q 959 2375 959 1747 
Q 959 1119 1226 758 
Q 1494 397 1959 397 
Q 2419 397 2687 759 
Q 2956 1122 2956 1747 
Q 2956 2369 2687 2733 
Q 2419 3097 1959 3097 
z
M 1959 3584 
Q 2709 3584 3137 3096 
Q 3566 2609 3566 1747 
Q 3566 888 3137 398 
Q 2709 -91 1959 -91 
Q 1206 -91 779 398 
Q 353 888 353 1747 
Q 353 2609 779 3096 
Q 1206 3584 1959 3584 
z
" transform="scale(0.015625)"/>
        <path id="DejaVuSans-77" d="M 269 3500 
L 844 3500 
L 1563 769 
L 2278 3500 
L 2956 3500 
L 3675 769 
L 4391 3500 
L 4966 3500 
L 4050 0 
L 3372 0 
L 2619 2869 
L 1863 0 
L 1184 0 
L 269 3500 
z
" transform="scale(0.015625)"/>
       </defs>
       <use xlink:href="#DejaVuSans-4d"/>
       <use xlink:href="#DejaVuSans-31" transform="translate(86.279297 0)"/>
       <use xlink:href="#DejaVuSans-b7" transform="translate(149.902344 0)"/>
       <use xlink:href="#DejaVuSans-6c" transform="translate(181.689453 0)"/>
       <use xlink:href="#DejaVuSans-6f" transform="translate(209.472656 0)"/>
       <use xlink:href="#DejaVuSans-77" transform="translate(270.654297 0)"/>
      </g>
     </g>
    </g>
    <g id="xtick_3">
     <g id="line2d_3">
      <g>
       <use xlink:href="#me992904049" x="201.046608" y="202.281817" style="stroke: #000000; stroke-width: 0.8"/>
      </g>
     </g>
     <g id="text_3">
      <!-- M1·medium -->
      <g transform="translate(170.681454 242.378612) rotate(-45) scale(0.07 -0.07)">
       <defs>
        <path id="DejaVuSans-6d" d="M 3328 2828 
Q 3544 3216 3844 3400 
Q 4144 3584 4550 3584 
Q 5097 3584 5394 3201 
Q 5691 2819 5691 2113 
L 5691 0 
L 5113 0 
L 5113 2094 
Q 5113 2597 4934 2840 
Q 4756 3084 4391 3084 
Q 3944 3084 3684 2787 
Q 3425 2491 3425 1978 
L 3425 0 
L 2847 0 
L 2847 2094 
Q 2847 2600 2669 2842 
Q 2491 3084 2119 3084 
Q 1678 3084 1418 2786 
Q 1159 2488 1159 1978 
L 1159 0 
L 581 0 
L 581 3500 
L 1159 3500 
L 1159 2956 
Q 1356 3278 1631 3431 
Q 1906 3584 2284 3584 
Q 2666 3584 2933 3390 
Q 3200 3197 3328 2828 
z
" transform="scale(0.015625)"/>
        <path id="DejaVuSans-65" d="M 3597 1894 
L 3597 1613 
L 953 1613 
Q 991 1019 1311 708 
Q 1631 397 2203 397 
Q 2534 397 2845 478 
Q 3156 559 3463 722 
L 3463 178 
Q 3153 47 2828 -22 
Q 2503 -91 2169 -91 
Q 1331 -91 842 396 
Q 353 884 353 1716 
Q 353 2575 817 3079 
Q 1281 3584 2069 3584 
Q 2775 3584 3186 3129 
Q 3597 2675 3597 1894 
z
M 3022 2063 
Q 3016 2534 2758 2815 
Q 2500 3097 2075 3097 
Q 1594 3097 1305 2825 
Q 1016 2553 972 2059 
L 3022 2063 
z
" transform="scale(0.015625)"/>
        <path id="DejaVuSans-64" d="M 2906 2969 
L 2906 4863 
L 3481 4863 
L 3481 0 
L 2906 0 
L 2906 525 
Q 2725 213 2448 61 
Q 2172 -91 1784 -91 
Q 1150 -91 751 415 
Q 353 922 353 1747 
Q 353 2572 751 3078 
Q 1150 3584 1784 3584 
Q 2172 3584 2448 3432 
Q 2725 3281 2906 2969 
z
M 947 1747 
Q 947 1113 1208 752 
Q 1469 391 1925 391 
Q 2381 391 2643 752 
Q 2906 1113 2906 1747 
Q 2906 2381 2643 2742 
Q 2381 3103 1925 3103 
Q 1469 3103 1208 2742 
Q 947 2381 947 1747 
z
" transform="scale(0.015625)"/>
        <path id="DejaVuSans-75" d="M 544 1381 
L 544 3500 
L 1119 3500 
L 1119 1403 
Q 1119 906 1312 657 
Q 1506 409 1894 409 
Q 2359 409 2629 706 
Q 2900 1003 2900 1516 
L 2900 3500 
L 3475 3500 
L 3475 0 
L 2900 0 
L 2900 538 
Q 2691 219 2414 64 
Q 2138 -91 1772 -91 
Q 1169 -91 856 284 
Q 544 659 544 1381 
z
M 1991 3584 
L 1991 3584 
z
" transform="scale(0.015625)"/>
       </defs>
       <use xlink:href="#DejaVuSans-4d"/>
       <use xlink:href="#DejaVuSans-31" transform="translate(86.279297 0)"/>
       <use xlink:href="#DejaVuSans-b7" transform="translate(149.902344 0)"/>
       <use xlink:href="#DejaVuSans-6d" transform="translate(181.689453 0)"/>
       <use xlink:href="#DejaVuSans-65" transform="translate(279.101562 0)"/>
       <use xlink:href="#DejaVuSans-64" transform="translate(340.625 0)"/>
       <use xlink:href="#DejaVuSans-69" transform="translate(404.101562 0)"/>
       <use xlink:href="#DejaVuSans-75" transform="translate(431.884766 0)"/>
       <use xlink:href="#DejaVuSans-6d" transform="translate(495.263672 0)"/>
      </g>
     </g>
    </g>
    <g id="xtick_4">
     <g id="line2d_4">
      <g>
       <use xlink:href="#me992904049" x="251.515792" y="202.281817" style="stroke: #000000; stroke-width: 0.8"/>
      </g>
     </g>
     <g id="text_4">
      <!-- M2·high -->
      <g transform="translate(230.702103 232.827147) rotate(-45) scale(0.07 -0.07)">
       <defs>
        <path id="DejaVuSans-32" d="M 1228 531 
L 3431 531 
L 3431 0 
L 469 0 
L 469 531 
Q 828 903 1448 1529 
Q 2069 2156 2228 2338 
Q 2531 2678 2651 2914 
Q 2772 3150 2772 3378 
Q 2772 3750 2511 3984 
Q 2250 4219 1831 4219 
Q 1534 4219 1204 4116 
Q 875 4013 500 3803 
L 500 4441 
Q 881 4594 1212 4672 
Q 1544 4750 1819 4750 
Q 2544 4750 2975 4387 
Q 3406 4025 3406 3419 
Q 3406 3131 3298 2873 
Q 3191 2616 2906 2266 
Q 2828 2175 2409 1742 
Q 1991 1309 1228 531 
z
" transform="scale(0.015625)"/>
       </defs>
       <use xlink:href="#DejaVuSans-4d"/>
       <use xlink:href="#DejaVuSans-32" transform="translate(86.279297 0)"/>
       <use xlink:href="#DejaVuSans-b7" transform="translate(149.902344 0)"/>
       <use xlink:href="#DejaVuSans-68" transform="translate(181.689453 0)"/>
       <use xlink:href="#DejaVuSans-69" transform="translate(245.068359 0)"/>
       <use xlink:href="#DejaVuSans-67" transform="translate(272.851562 0)"/>
       <use xlink:href="#DejaVuSans-68" transform="translate(336.328125 0)"/>
      </g>
     </g>
    </g>
    <g id="xtick_5">
     <g id="line2d_5">
      <g>
       <use xlink:href="#me992904049" x="301.984975" y="202.281817" style="stroke: #000000; stroke-width: 0.8"/>
      </g>
     </g>
     <g id="text_5">
      <!-- M2·low -->
      <g transform="translate(283.510816 230.487618) rotate(-45) scale(0.07 -0.07)">
       <use xlink:href="#DejaVuSans-4d"/>
       <use xlink:href="#DejaVuSans-32" transform="translate(86.279297 0)"/>
       <use xlink:href="#DejaVuSans-b7" transform="translate(149.902344 0)"/>
       <use xlink:href="#DejaVuSans-6c" transform="translate(181.689453 0)"/>
       <use xlink:href="#DejaVuSans-6f" transform="translate(209.472656 0)"/>
       <use xlink:href="#DejaVuSans-77" transform="translate(270.654297 0)"/>
      </g>
     </g>
    </g>
    <g id="xtick_6">
     <g id="line2d_6">
      <g>
       <use xlink:href="#me992904049" x="352.454158" y="202.281817" style="stroke: #000000; stroke-width: 0.8"/>
      </g>
     </g>
     <g id="text_6">
      <!-- M2·medium -->
      <g transform="translate(322.089004 242.378612) rotate(-45) scale(0.07 -0.07)">
       <use xlink:href="#DejaVuSans-4d"/>
       <use xlink:href="#DejaVuSans-32" transform="translate(86.279297 0)"/>
       <use xlink:href="#DejaVuSans-b7" transform="translate(149.902344 0)"/>
       <use xlink:href="#DejaVuSans-6d" transform="translate(181.689453 0)"/>
       <use xlink:href="#DejaVuSans-65" transform="translate(279.101562 0)"/>
       <use xlink:href="#DejaVuSans-64" transform="translate(340.625 0)"/>
       <use xlink:href="#DejaVuSans-69" transform="translate(404.101562 0)"/>
       <use xlink:href="#DejaVuSans-75" transform="translate(431.884766 0)"/>
       <use xlink:href="#DejaVuSans-6d" transform="translate(495.263672 0)"/>
      </g>
     </g>
    </g>
    <g id="xtick_7">
     <g id="line2d_7">
      <g>
       <use xlink:href="#me992904049" x="402.923342" y="202.281817" style="stroke: #000000; stroke-width: 0.8"/>
      </g>
     </g>
     <g id="text_7">
      <!-- M3·high -->
      <g transform="translate(382.109654 232.827147) rotate(-45) scale(0.07 -0.07)">
       <defs>
        <path id="DejaVuSans-33" d="M 2597 2516 
Q 3050 2419 3304 2112 
Q 3559 1806 3559 1356 
Q 3559 666 3084 287 
Q 2609 -91 1734 -91 
Q 1441 -91 1130 -33 
Q 819 25 488 141 
L 488 750 
Q 750 597 1062 519 
Q 1375 441 1716 441 
Q 2309 441 2620 675 
Q 2931 909 2931 1356 
Q 2931 1769 2642 2001 
Q 2353 2234 1838 2234 
L 1294 2234 
L 1294 2753 
L 1863 2753 
Q 2328 2753 2575 2939 
Q 2822 3125 2822 3475 
Q 2822 3834 2567 4026 
Q 2313 4219 1838 4219 
Q 1578 4219 1281 4162 
Q 984 4106 628 3988 
L 628 4550 
Q 988 4650 1302 4700 
Q 1616 4750 1894 4750 
Q 2613 4750 3031 4423 
Q 3450 4097 3450 3541 
Q 3450 3153 3228 2886 
Q 3006 2619 2597 2516 
z
" transform="scale(0.015625)"/>
       </defs>
       <use xlink:href="#DejaVuSans-4d"/>
       <use xlink:href="#DejaVuSans-33" transform="translate(86.279297 0)"/>
       <use xlink:href="#DejaVuSans-b7" transform="translate(149.902344 0)"/>
       <use xlink:href="#DejaVuSans-68" transform="translate(181.689453 0)"/>
       <use xlink:href="#DejaVuSans-69" transform="translate(245.068359 0)"/>
       <use xlink:href="#DejaVuSans-67" transform="translate(272.851562 0)"/>
       <use xlink:href="#DejaVuSans-68" transform="translate(336.328125 0)"/>
      </g>
     </g>
    </g>
    <g id="xtick_8">
     <g id="line2d_8">
      <g>
       <use xlink:href="#me992904049" x="453.392525" y="202.281817" style="stroke: #000000; stroke-width: 0.8"/>
      </g>
     </g>
     <g id="text_8">
      <!-- M3·low -->
      <g transform="translate(434.918366 230.487618) rotate(-45) scale(0.07 -0.07)">
       <use xlink:href="#DejaVuSans-4d"/>
       <use xlink:href="#DejaVuSans-33" transform="translate(86.279297 0)"/>
       <use xlink:href="#DejaVuSans-b7" transform="translate(149.902344 0)"/>
       <use xlink:href="#DejaVuSans-6c" transform="translate(181.689453 0)"/>
       <use xlink:href="#DejaVuSans-6f" transform="translate(209.472656 0)"/>
       <use xlink:href="#DejaVuSans-77" transform="translate(270.654297 0)"/>
      </g>
     </g>
    </g>
    <g id="xtick_9">
     <g id="line2d_9">
      <g>
       <use xlink:href="#me992904049" x="503.861708" y="202.281817" style="stroke: #000000; stroke-width: 0.8"/>
      </g>
     </g>
     <g id="text_9">
      <!-- M3·medium -->
      <g transform="translate(473.496554 242.378612) rotate(-45) scale(0.07 -0.07)">
       <use xlink:href="#DejaVuSans-4d"/>
       <use xlink:href="#DejaVuSans-33" transform="translate(86.279297 0)"/>
       <use xlink:href="#DejaVuSans-b7" transform="translate(149.902344 0)"/>
       <use xlink:href="#DejaVuSans-6d" transform="translate(181.689453 0)"/>
       <use xlink:href="#DejaVuSans-65" transform="translate(279.101562 0)"/>
       <use xlink:href="#DejaVuSans-64" transform="translate(340.625 0)"/>
       <use xlink:href="#DejaVuSans-69" transform="translate(404.101562 0)"/>
       <use xlink:href="#DejaVuSans-75" transform="translate(431.884766 0)"/>
       <use xlink:href="#DejaVuSans-6d" transform="translate(495.263672 0)"/>
      </g>
     </g>
    </g>
    <g id="xtick_10">
     <g id="line2d_10">
      <g>
       <use xlink:href="#me992904049" x="554.330892" y="202.281817" style="stroke: #000000; stroke-width: 0.8"/>
      </g>
     </g>
     <g id="text_10">
      <!-- M4·high -->
      <g transform="translate(533.517204 232.827147) rotate(-45) scale(0.07 -0.07)">
       <defs>
        <path id="DejaVuSans-34" d="M 2419 4116 
L 825 1625 
L 2419 1625 
L 2419 4116 
z
M 2253 4666 
L 3047 4666 
L 3047 1625 
L 3713 1625 
L 3713 1100 
L 3047 1100 
L 3047 0 
L 2419 0 
L 2419 1100 
L 313 1100 
L 313 1709 
L 2253 4666 
z
" transform="scale(0.015625)"/>
       </defs>
       <use xlink:href="#DejaVuSans-4d"/>
       <use xlink:href="#DejaVuSans-34" transform="translate(86.279297 0)"/>
       <use xlink:href="#DejaVuSans-b7" transform="translate(149.902344 0)"/>
       <use xlink:href="#DejaVuSans-68" transform="translate(181.689453 0)"/>
       <use xlink:href="#DejaVuSans-69" transform="translate(245.068359 0)"/>
       <use xlink:href="#DejaVuSans-67" transform="translate(272.851562 0)"/>
       <use xlink:href="#DejaVuSans-68" transform="translate(336.328125 0)"/>
      </g>
     </g>
    </g>
    <g id="xtick_11">
     <g id="line2d_11">
      <g>
       <use xlink:href="#me992904049" x="604.800075" y="202.281817" style="stroke: #000000; stroke-width: 0.8"/>
      </g>
     </g>
     <g id="text_11">
      <!-- M4·low -->
      <g transform="translate(586.325916 230.487618) rotate(-45) scale(0.07 -0.07)">
       <use xlink:href="#DejaVuSans-4d"/>
       <use xlink:href="#DejaVuSans-34" transform="translate(86.279297 0)"/>
       <use xlink:href="#DejaVuSans-b7" transform="translate(149.902344 0)"/>
       <use xlink:href="#DejaVuSans-6c" transform="translate(181.689453 0)"/>
       <use xlink:href="#DejaVuSans-6f" transform="translate(209.472656 0)"/>
       <use xlink:href="#DejaVuSans-77" transform="translate(270.654297 0)"/>
      </g>
     </g>
    </g>
    <g id="xtick_12">
     <g id="line2d_12">
      <g>
       <use xlink:href="#me992904049" x="655.269258" y="202.281817" style="stroke: #000000; stroke-width: 0.8"/>
      </g>
     </g>
     <g id="text_12">
      <!-- M4·medium -->
      <g transform="translate(624.904105 242.378612) rotate(-45) scale(0.07 -0.07)">
       <use xlink:href="#DejaVuSans-4d"/>
       <use xlink:href="#DejaVuSans-34" transform="translate(86.279297 0)"/>
       <use xlink:href="#DejaVuSans-b7" transform="translate(149.902344 0)"/>
       <use xlink:href="#DejaVuSans-6d" transform="translate(181.689453 0)"/>
       <use xlink:href="#DejaVuSans-65" transform="translate(279.101562 0)"/>
       <use xlink:href="#DejaVuSans-64" transform="translate(340.625 0)"/>
       <use xlink:href="#DejaVuSans-69" transform="translate(404.101562 0)"/>
       <use xlink:href="#DejaVuSans-75" transform="translate(431.884766 0)"/>
       <use xlink:href="#DejaVuSans-6d" transform="translate(495.263672 0)"/>
      </g>
     </g>
    </g>
   </g>
   <g id="matplotlib.axis_2">
    <g id="ytick_1">
     <g id="line2d_13">
      <path d="M 50.14375 202.281817 
L 705.23375 202.281817 
" clip-path="url(#pc8a1a6c761)" style="fill: none; stroke: #b0b0b0; stroke-opacity: 0.3; stroke-width: 0.8; stroke-linecap: square"/>
     </g>
     <g id="line2d_14">
      <defs>
       <path id="mfe3b94c1e0" d="M 0 0 
L -3.5 0 
" style="stroke: #000000; stroke-width: 0.8"/>
      </defs>
      <g>
       <use xlink:href="#mfe3b94c1e0" x="50.14375" y="202.281817" style="stroke: #000000; stroke-width: 0.8"/>
      </g>
     </g>
     <g id="text_13">
      <!-- 0.90 -->
      <g transform="translate(20.878125 206.081035) scale(0.1 -0.1)">
       <defs>
        <path id="DejaVuSans-30" d="M 2034 4250 
Q 1547 4250 1301 3770 
Q 1056 3291 1056 2328 
Q 1056 1369 1301 889 
Q 1547 409 2034 409 
Q 2525 409 2770 889 
Q 3016 1369 3016 2328 
Q 3016 3291 2770 3770 
Q 2525 4250 2034 4250 
z
M 2034 4750 
Q 2819 4750 3233 4129 
Q 3647 3509 3647 2328 
Q 3647 1150 3233 529 
Q 2819 -91 2034 -91 
Q 1250 -91 836 529 
Q 422 1150 422 2328 
Q 422 3509 836 4129 
Q 1250 4750 2034 4750 
z
" transform="scale(0.015625)"/>
        <path id="DejaVuSans-2e" d="M 684 794 
L 1344 794 
L 1344 0 
L 684 0 
L 684 794 
z
" transform="scale(0.015625)"/>
        <path id="DejaVuSans-39" d="M 703 97 
L 703 672 
Q 941 559 1184 500 
Q 1428 441 1663 441 
Q 2288 441 2617 861 
Q 2947 1281 2994 2138 
Q 2813 1869 2534 1725 
Q 2256 1581 1919 1581 
Q 1219 1581 811 2004 
Q 403 2428 403 3163 
Q 403 3881 828 4315 
Q 1253 4750 1959 4750 
Q 2769 4750 3195 4129 
Q 3622 3509 3622 2328 
Q 3622 1225 3098 567 
Q 2575 -91 1691 -91 
Q 1453 -91 1209 -44 
Q 966 3 703 97 
z
M 1959 2075 
Q 2384 2075 2632 2365 
Q 2881 2656 2881 3163 
Q 2881 3666 2632 3958 
Q 2384 4250 1959 4250 
Q 1534 4250 1286 3958 
Q 1038 3666 1038 3163 
Q 1038 2656 1286 2365 
Q 1534 2075 1959 2075 
z
" transform="scale(0.015625)"/>
       </defs>
       <use xlink:href="#DejaVuSans-30"/>
       <use xlink:href="#DejaVuSans-2e" transform="translate(63.623047 0)"/>
       <use xlink:href="#DejaVuSans-39" transform="translate(95.410156 0)"/>
       <use xlink:href="#DejaVuSans-30" transform="translate(159.033203 0)"/>
      </g>
     </g>
    </g>
    <g id="ytick_2">
     <g id="line2d_15">
      <path d="M 50.14375 178.686577 
L 705.23375 178.686577 
" clip-path="url(#pc8a1a6c761)" style="fill: none; stroke: #b0b0b0; stroke-opacity: 0.3; stroke-width: 0.8; stroke-linecap: square"/>
     </g>
     <g id="line2d_16">
      <g>
       <use xlink:href="#mfe3b94c1e0" x="50.14375" y="178.686577" style="stroke: #000000; stroke-width: 0.8"/>
      </g>
     </g>
     <g id="text_14">
      <!-- 0.95 -->
      <g transform="translate(20.878125 182.485796) scale(0.1 -0.1)">
       <defs>
        <path id="DejaVuSans-35" d="M 691 4666 
L 3169 4666 
L 3169 4134 
L 1269 4134 
L 1269 2991 
Q 1406 3038 1543 3061 
Q 1681 3084 1819 3084 
Q 2600 3084 3056 2656 
Q 3513 2228 3513 1497 
Q 3513 744 3044 326 
Q 2575 -91 1722 -91 
Q 1428 -91 1123 -41 
Q 819 9 494 109 
L 494 744 
Q 775 591 1075 516 
Q 1375 441 1709 441 
Q 2250 441 2565 725 
Q 2881 1009 2881 1497 
Q 2881 1984 2565 2268 
Q 2250 2553 1709 2553 
Q 1456 2553 1204 2497 
Q 953 2441 691 2322 
L 691 4666 
z
" transform="scale(0.015625)"/>
       </defs>
       <use xlink:href="#DejaVuSans-30"/>
       <use xlink:href="#DejaVuSans-2e" transform="translate(63.623047 0)"/>
       <use xlink:href="#DejaVuSans-39" transform="translate(95.410156 0)"/>
       <use xlink:href="#DejaVuSans-35" transform="translate(159.033203 0)"/>
      </g>
     </g>
    </g>
    <g id="ytick_3">
     <g id="line2d_17">
      <path d="M 50.14375 155.091337 
L 705.23375 155.091337 
" clip-path="url(#pc8a1a6c761)" style="fill: none; stroke: #b0b0b0; stroke-opacity: 0.3; stroke-width: 0.8; stroke-linecap: square"/>
     </g>
     <g id="line2d_18">
      <g>
       <use xlink:href="#mfe3b94c1e0" x="50.14375" y="155.091337" style="stroke: #000000; stroke-width: 0.8"/>
      </g>
     </g>
     <g id="text_15">
      <!-- 1.00 -->
      <g transform="translate(20.878125 158.890556) scale(0.1 -0.1)">
       <use xlink:href="#DejaVuSans-31"/>
       <use xlink:href="#DejaVuSans-2e" transform="translate(63.623047 0)"/>
       <use xlink:href="#DejaVuSans-30" transform="translate(95.410156 0)"/>
       <use xlink:href="#DejaVuSans-30" transform="translate(159.033203 0)"/>
      </g>
     </g>
    </g>
    <g id="ytick_4">
     <g id="line2d_19">
      <path d="M 50.14375 131.496098 
L 705.23375 131.496098 
" clip-path="url(#pc8a1a6c761)" style="fill: none; stroke: #b0b0b0; stroke-opacity: 0.3; stroke-width: 0.8; stroke-linecap: square"/>
     </g>
     <g id="line2d_20">
      <g>
       <use xlink:href="#mfe3b94c1e0" x="50.14375" y="131.496098" style="stroke: #000000; stroke-width: 0.8"/>
      </g>
     </g>
     <g id="text_16">
      <!-- 1.05 -->
      <g transform="translate(20.878125 135.295317) scale(0.1 -0.1)">
       <use xlink:href="#DejaVuSans-31"/>
       <use xlink:href="#DejaVuSans-2e" transform="translate(63.623047 0)"/>
       <use xlink:href="#DejaVuSans-30" transform="translate(95.410156 0)"/>
       <use xlink:href="#DejaVuSans-35" transform="translate(159.033203 0)"/>
      </g>
     </g>
    </g>
    <g id="ytick_5">
     <g id="line2d_21">
      <path d="M 50.14375 107.900858 
L 705.23375 107.900858 
" clip-path="url(#pc8a1a6c761)" style="fill: none; stroke: #b0b0b0; stroke-opacity: 0.3; stroke-width: 0.8; stroke-linecap: square"/>
     </g>
     <g id="line2d_22">
      <g>
       <use xlink:href="#mfe3b94c1e0" x="50.14375" y="107.900858" style="stroke: #000000; stroke-width: 0.8"/>
      </g>
     </g>
     <g id="text_17">
      <!-- 1.10 -->
      <g transform="translate(20.878125 111.700077) scale(0.1 -0.1)">
       <use xlink:href="#DejaVuSans-31"/>
       <use xlink:href="#DejaVuSans-2e" transform="translate(63.623047 0)"/>
       <use xlink:href="#DejaVuSans-31" transform="translate(95.410156 0)"/>
       <use xlink:href="#DejaVuSans-30" transform="translate(159.033203 0)"/>
      </g>
     </g>
    </g>
    <g id="ytick_6">
     <g id="line2d_23">
      <path d="M 50.14375 84.305619 
L 705.23375 84.305619 
" clip-path="url(#pc8a1a6c761)" style="fill: none; stroke: #b0b0b0; stroke-opacity: 0.3; stroke-width: 0.8; stroke-linecap: square"/>
     </g>
     <g id="line2d_24">
      <g>
       <use xlink:href="#mfe3b94c1e0" x="50.14375" y="84.305619" style="stroke: #000000; stroke-width: 0.8"/>
      </g>
     </g>
     <g id="text_18">
      <!-- 1.15 -->
      <g transform="translate(20.878125 88.104838) scale(0.1 -0.1)">
       <use xlink:href="#DejaVuSans-31"/>
       <use xlink:href="#DejaVuSans-2e" transform="translate(63.623047 0)"/>
       <use xlink:href="#DejaVuSans-31" transform="translate(95.410156 0)"/>
       <use xlink:href="#DejaVuSans-35" transform="translate(159.033203 0)"/>
      </g>
     </g>
    </g>
    <g id="ytick_7">
     <g id="line2d_25">
      <path d="M 50.14375 60.710379 
L 705.23375 60.710379 
" clip-path="url(#pc8a1a6c761)" style="fill: none; stroke: #b0b0b0; stroke-opacity: 0.3; stroke-width: 0.8; stroke-linecap: square"/>
     </g>
     <g id="line2d_26">
      <g>
       <use xlink:href="#mfe3b94c1e0" x="50.14375" y="60.710379" style="stroke: #000000; stroke-width: 0.8"/>
      </g>
     </g>
     <g id="text_19">
      <!-- 1.20 -->
      <g transform="translate(20.878125 64.509598) scale(0.1 -0.1)">
       <use xlink:href="#DejaVuSans-31"/>
       <use xlink:href="#DejaVuSans-2e" transform="translate(63.623047 0)"/>
       <use xlink:href="#DejaVuSans-32" transform="translate(95.410156 0)"/>
       <use xlink:href="#DejaVuSans-30" transform="translate(159.033203 0)"/>
      </g>
     </g>
    </g>
    <g id="ytick_8">
     <g id="line2d_27">
      <path d="M 50.14375 37.11514 
L 705.23375 37.11514 
" clip-path="url(#pc8a1a6c761)" style="fill: none; stroke: #b0b0b0; stroke-opacity: 0.3; stroke-width: 0.8; stroke-linecap: square"/>
     </g>
     <g id="line2d_28">
      <g>
       <use xlink:href="#mfe3b94c1e0" x="50.14375" y="37.11514" style="stroke: #000000; stroke-width: 0.8"/>
      </g>
     </g>
     <g id="text_20">
      <!-- 1.25 -->
      <g transform="translate(20.878125 40.914358) scale(0.1 -0.1)">
       <use xlink:href="#DejaVuSans-31"/>
       <use xlink:href="#DejaVuSans-2e" transform="translate(63.623047 0)"/>
       <use xlink:href="#DejaVuSans-32" transform="translate(95.410156 0)"/>
       <use xlink:href="#DejaVuSans-35" transform="translate(159.033203 0)"/>
      </g>
     </g>
    </g>
    <g id="text_21">
     <!-- Rasio payload GraphQL / REST -->
     <g transform="translate(14.798438 188.62419) rotate(-90) scale(0.1 -0.1)">
      <defs>
       <path id="DejaVuSans-52" d="M 2841 2188 
Q 3044 2119 3236 1894 
Q 3428 1669 3622 1275 
L 4263 0 
L 3584 0 
L 2988 1197 
Q 2756 1666 2539 1819 
Q 2322 1972 1947 1972 
L 1259 1972 
L 1259 0 
L 628 0 
L 628 4666 
L 2053 4666 
Q 2853 4666 3247 4331 
Q 3641 3997 3641 3322 
Q 3641 2881 3436 2590 
Q 3231 2300 2841 2188 
z
M 1259 4147 
L 1259 2491 
L 2053 2491 
Q 2509 2491 2742 2702 
Q 2975 2913 2975 3322 
Q 2975 3731 2742 3939 
Q 2509 4147 2053 4147 
L 1259 4147 
z
" transform="scale(0.015625)"/>
       <path id="DejaVuSans-61" d="M 2194 1759 
Q 1497 1759 1228 1600 
Q 959 1441 959 1056 
Q 959 750 1161 570 
Q 1363 391 1709 391 
Q 2188 391 2477 730 
Q 2766 1069 2766 1631 
L 2766 1759 
L 2194 1759 
z
M 3341 1997 
L 3341 0 
L 2766 0 
L 2766 531 
Q 2569 213 2275 61 
Q 1981 -91 1556 -91 
Q 1019 -91 701 211 
Q 384 513 384 1019 
Q 384 1609 779 1909 
Q 1175 2209 1959 2209 
L 2766 2209 
L 2766 2266 
Q 2766 2663 2505 2880 
Q 2244 3097 1772 3097 
Q 1472 3097 1187 3025 
Q 903 2953 641 2809 
L 641 3341 
Q 956 3463 1253 3523 
Q 1550 3584 1831 3584 
Q 2591 3584 2966 3190 
Q 3341 2797 3341 1997 
z
" transform="scale(0.015625)"/>
       <path id="DejaVuSans-73" d="M 2834 3397 
L 2834 2853 
Q 2591 2978 2328 3040 
Q 2066 3103 1784 3103 
Q 1356 3103 1142 2972 
Q 928 2841 928 2578 
Q 928 2378 1081 2264 
Q 1234 2150 1697 2047 
L 1894 2003 
Q 2506 1872 2764 1633 
Q 3022 1394 3022 966 
Q 3022 478 2636 193 
Q 2250 -91 1575 -91 
Q 1294 -91 989 -36 
Q 684 19 347 128 
L 347 722 
Q 666 556 975 473 
Q 1284 391 1588 391 
Q 1994 391 2212 530 
Q 2431 669 2431 922 
Q 2431 1156 2273 1281 
Q 2116 1406 1581 1522 
L 1381 1569 
Q 847 1681 609 1914 
Q 372 2147 372 2553 
Q 372 3047 722 3315 
Q 1072 3584 1716 3584 
Q 2034 3584 2315 3537 
Q 2597 3491 2834 3397 
z
" transform="scale(0.015625)"/>
       <path id="DejaVuSans-20" transform="scale(0.015625)"/>
       <path id="DejaVuSans-70" d="M 1159 525 
L 1159 -1331 
L 581 -1331 
L 581 3500 
L 1159 3500 
L 1159 2969 
Q 1341 3281 1617 3432 
Q 1894 3584 2278 3584 
Q 2916 3584 3314 3078 
Q 3713 2572 3713 1747 
Q 3713 922 3314 415 
Q 2916 -91 2278 -91 
Q 1894 -91 1617 61 
Q 1341 213 1159 525 
z
M 3116 1747 
Q 3116 2381 2855 2742 
Q 2594 3103 2138 3103 
Q 1681 3103 1420 2742 
Q 1159 2381 1159 1747 
Q 1159 1113 1420 752 
Q 1681 391 2138 391 
Q 2594 391 2855 752 
Q 3116 1113 3116 1747 
z
" transform="scale(0.015625)"/>
       <path id="DejaVuSans-79" d="M 2059 -325 
Q 1816 -950 1584 -1140 
Q 1353 -1331 966 -1331 
L 506 -1331 
L 506 -850 
L 844 -850 
Q 1081 -850 1212 -737 
Q 1344 -625 1503 -206 
L 1606 56 
L 191 3500 
L 800 3500 
L 1894 763 
L 2988 3500 
L 3597 3500 
L 2059 -325 
z
" transform="scale(0.015625)"/>
       <path id="DejaVuSans-47" d="M 3809 666 
L 3809 1919 
L 2778 1919 
L 2778 2438 
L 4434 2438 
L 4434 434 
Q 4069 175 3628 42 
Q 3188 -91 2688 -91 
Q 1594 -91 976 548 
Q 359 1188 359 2328 
Q 359 3472 976 4111 
Q 1594 4750 2688 4750 
Q 3144 4750 3555 4637 
Q 3966 4525 4313 4306 
L 4313 3634 
Q 3963 3931 3569 4081 
Q 3175 4231 2741 4231 
Q 1884 4231 1454 3753 
Q 1025 3275 1025 2328 
Q 1025 1384 1454 906 
Q 1884 428 2741 428 
Q 3075 428 3337 486 
Q 3600 544 3809 666 
z
" transform="scale(0.015625)"/>
       <path id="DejaVuSans-72" d="M 2631 2963 
Q 2534 3019 2420 3045 
Q 2306 3072 2169 3072 
Q 1681 3072 1420 2755 
Q 1159 2438 1159 1844 
L 1159 0 
L 581 0 
L 581 3500 
L 1159 3500 
L 1159 2956 
Q 1341 3275 1631 3429 
Q 1922 3584 2338 3584 
Q 2397 3584 2469 3576 
Q 2541 3569 2628 3553 
L 2631 2963 
z
" transform="scale(0.015625)"/>
       <path id="DejaVuSans-51" d="M 2522 4238 
Q 1834 4238 1429 3725 
Q 1025 3213 1025 2328 
Q 1025 1447 1429 934 
Q 1834 422 2522 422 
Q 3209 422 3611 934 
Q 4013 1447 4013 2328 
Q 4013 3213 3611 3725 
Q 3209 4238 2522 4238 
z
M 3406 84 
L 4238 -825 
L 3475 -825 
L 2784 -78 
Q 2681 -84 2626 -87 
Q 2572 -91 2522 -91 
Q 1538 -91 948 567 
Q 359 1225 359 2328 
Q 359 3434 948 4092 
Q 1538 4750 2522 4750 
Q 3503 4750 4090 4092 
Q 4678 3434 4678 2328 
Q 4678 1516 4351 937 
Q 4025 359 3406 84 
z
" transform="scale(0.015625)"/>
       <path id="DejaVuSans-4c" d="M 628 4666 
L 1259 4666 
L 1259 531 
L 3531 531 
L 3531 0 
L 628 0 
L 628 4666 
z
" transform="scale(0.015625)"/>
       <path id="DejaVuSans-2f" d="M 1625 4666 
L 2156 4666 
L 531 -594 
L 0 -594 
L 1625 4666 
z
" transform="scale(0.015625)"/>
       <path id="DejaVuSans-45" d="M 628 4666 
L 3578 4666 
L 3578 4134 
L 1259 4134 
L 1259 2753 
L 3481 2753 
L 3481 2222 
L 1259 2222 
L 1259 531 
L 3634 531 
L 3634 0 
L 628 0 
L 628 4666 
z
" transform="scale(0.015625)"/>
       <path id="DejaVuSans-53" d="M 3425 4513 
L 3425 3897 
Q 3066 4069 2747 4153 
Q 2428 4238 2131 4238 
Q 1616 4238 1336 4038 
Q 1056 3838 1056 3469 
Q 1056 3159 1242 3001 
Q 1428 2844 1947 2747 
L 2328 2669 
Q 3034 2534 3370 2195 
Q 3706 1856 3706 1288 
Q 3706 609 3251 259 
Q 2797 -91 1919 -91 
Q 1588 -91 1214 -16 
Q 841 59 441 206 
L 441 856 
Q 825 641 1194 531 
Q 1563 422 1919 422 
Q 2459 422 2753 634 
Q 3047 847 3047 1241 
Q 3047 1584 2836 1778 
Q 2625 1972 2144 2069 
L 1759 2144 
Q 1053 2284 737 2584 
Q 422 2884 422 3419 
Q 422 4038 858 4394 
Q 1294 4750 2059 4750 
Q 2388 4750 2728 4690 
Q 3069 4631 3425 4513 
z
" transform="scale(0.015625)"/>
       <path id="DejaVuSans-54" d="M -19 4666 
L 3928 4666 
L 3928 4134 
L 2272 4134 
L 2272 0 
L 1638 0 
L 1638 4134 
L -19 4134 
L -19 4666 
z
" transform="scale(0.015625)"/>
      </defs>
      <use xlink:href="#DejaVuSans-52"/>
      <use xlink:href="#DejaVuSans-61" transform="translate(67.232422 0)"/>
      <use xlink:href="#DejaVuSans-73" transform="translate(128.511719 0)"/>
      <use xlink:href="#DejaVuSans-69" transform="translate(180.611328 0)"/>
      <use xlink:href="#DejaVuSans-6f" transform="translate(208.394531 0)"/>
      <use xlink:href="#DejaVuSans-20" transform="translate(269.576172 0)"/>
      <use xlink:href="#DejaVuSans-70" transform="translate(301.363281 0)"/>
      <use xlink:href="#DejaVuSans-61" transform="translate(364.839844 0)"/>
      <use xlink:href="#DejaVuSans-79" transform="translate(426.119141 0)"/>
      <use xlink:href="#DejaVuSans-6c" transform="translate(485.298828 0)"/>
      <use xlink:href="#DejaVuSans-6f" transform="translate(513.082031 0)"/>
      <use xlink:href="#DejaVuSans-61" transform="translate(574.263672 0)"/>
      <use xlink:href="#DejaVuSans-64" transform="translate(635.542969 0)"/>
      <use xlink:href="#DejaVuSans-20" transform="translate(699.019531 0)"/>
      <use xlink:href="#DejaVuSans-47" transform="translate(730.806641 0)"/>
      <use xlink:href="#DejaVuSans-72" transform="translate(808.296875 0)"/>
      <use xlink:href="#DejaVuSans-61" transform="translate(849.410156 0)"/>
      <use xlink:href="#DejaVuSans-70" transform="translate(910.689453 0)"/>
      <use xlink:href="#DejaVuSans-68" transform="translate(974.166016 0)"/>
      <use xlink:href="#DejaVuSans-51" transform="translate(1037.544922 0)"/>
      <use xlink:href="#DejaVuSans-4c" transform="translate(1116.255859 0)"/>
      <use xlink:href="#DejaVuSans-20" transform="translate(1171.96875 0)"/>
      <use xlink:href="#DejaVuSans-2f" transform="translate(1203.755859 0)"/>
      <use xlink:href="#DejaVuSans-20" transform="translate(1237.447266 0)"/>
      <use xlink:href="#DejaVuSans-52" transform="translate(1269.234375 0)"/>
      <use xlink:href="#DejaVuSans-45" transform="translate(1338.716797 0)"/>
      <use xlink:href="#DejaVuSans-53" transform="translate(1401.900391 0)"/>
      <use xlink:href="#DejaVuSans-54" transform="translate(1465.376953 0)"/>
     </g>
    </g>
   </g>
   <g id="line2d_29">
    <path d="M 50.14375 155.091337 
L 705.23375 155.091337 
" clip-path="url(#pc8a1a6c761)" style="fill: none; stroke-dasharray: 3.7,1.6; stroke-dashoffset: 0; stroke: #000000"/>
   </g>
   <g id="patch_15">
    <path d="M 50.14375 202.281817 
L 50.14375 22.318125 
" style="fill: none; stroke: #000000; stroke-width: 0.8; stroke-linejoin: miter; stroke-linecap: square"/>
   </g>
   <g id="patch_16">
    <path d="M 705.23375 202.281817 
L 705.23375 22.318125 
" style="fill: none; stroke: #000000; stroke-width: 0.8; stroke-linejoin: miter; stroke-linecap: square"/>
   </g>
   <g id="patch_17">
    <path d="M 50.14375 202.281817 
L 705.23375 202.281817 
" style="fill: none; stroke: #000000; stroke-width: 0.8; stroke-linejoin: miter; stroke-linecap: square"/>
   </g>
   <g id="patch_18">
    <path d="M 50.14375 22.318125 
L 705.23375 22.318125 
" style="fill: none; stroke: #000000; stroke-width: 0.8; stroke-linejoin: miter; stroke-linecap: square"/>
   </g>
   <g id="text_22">
    <!-- Uji over-fetching: payload GraphQL relatif REST (M1–M4, r40) — garis=paritas -->
    <g transform="translate(143.59125 16.318125) scale(0.12 -0.12)">
     <defs>
      <path id="DejaVuSans-55" d="M 556 4666 
L 1191 4666 
L 1191 1831 
Q 1191 1081 1462 751 
Q 1734 422 2344 422 
Q 2950 422 3222 751 
Q 3494 1081 3494 1831 
L 3494 4666 
L 4128 4666 
L 4128 1753 
Q 4128 841 3676 375 
Q 3225 -91 2344 -91 
Q 1459 -91 1007 375 
Q 556 841 556 1753 
L 556 4666 
z
" transform="scale(0.015625)"/>
      <path id="DejaVuSans-6a" d="M 603 3500 
L 1178 3500 
L 1178 -63 
Q 1178 -731 923 -1031 
Q 669 -1331 103 -1331 
L -116 -1331 
L -116 -844 
L 38 -844 
Q 366 -844 484 -692 
Q 603 -541 603 -63 
L 603 3500 
z
M 603 4863 
L 1178 4863 
L 1178 4134 
L 603 4134 
L 603 4863 
z
" transform="scale(0.015625)"/>
      <path id="DejaVuSans-76" d="M 191 3500 
L 800 3500 
L 1894 563 
L 2988 3500 
L 3597 3500 
L 2284 0 
L 1503 0 
L 191 3500 
z
" transform="scale(0.015625)"/>
      <path id="DejaVuSans-2d" d="M 313 2009 
L 1997 2009 
L 1997 1497 
L 313 1497 
L 313 2009 
z
" transform="scale(0.015625)"/>
      <path id="DejaVuSans-66" d="M 2375 4863 
L 2375 4384 
L 1825 4384 
Q 1516 4384 1395 4259 
Q 1275 4134 1275 3809 
L 1275 3500 
L 2222 3500 
L 2222 3053 
L 1275 3053 
L 1275 0 
L 697 0 
L 697 3053 
L 147 3053 
L 147 3500 
L 697 3500 
L 697 3744 
Q 697 4328 969 4595 
Q 1241 4863 1831 4863 
L 2375 4863 
z
" transform="scale(0.015625)"/>
      <path id="DejaVuSans-74" d="M 1172 4494 
L 1172 3500 
L 2356 3500 
L 2356 3053 
L 1172 3053 
L 1172 1153 
Q 1172 725 1289 603 
Q 1406 481 1766 481 
L 2356 481 
L 2356 0 
L 1766 0 
Q 1100 0 847 248 
Q 594 497 594 1153 
L 594 3053 
L 172 3053 
L 172 3500 
L 594 3500 
L 594 4494 
L 1172 4494 
z
" transform="scale(0.015625)"/>
      <path id="DejaVuSans-63" d="M 3122 3366 
L 3122 2828 
Q 2878 2963 2633 3030 
Q 2388 3097 2138 3097 
Q 1578 3097 1268 2742 
Q 959 2388 959 1747 
Q 959 1106 1268 751 
Q 1578 397 2138 397 
Q 2388 397 2633 464 
Q 2878 531 3122 666 
L 3122 134 
Q 2881 22 2623 -34 
Q 2366 -91 2075 -91 
Q 1284 -91 818 406 
Q 353 903 353 1747 
Q 353 2603 823 3093 
Q 1294 3584 2113 3584 
Q 2378 3584 2631 3529 
Q 2884 3475 3122 3366 
z
" transform="scale(0.015625)"/>
      <path id="DejaVuSans-6e" d="M 3513 2113 
L 3513 0 
L 2938 0 
L 2938 2094 
Q 2938 2591 2744 2837 
Q 2550 3084 2163 3084 
Q 1697 3084 1428 2787 
Q 1159 2491 1159 1978 
L 1159 0 
L 581 0 
L 581 3500 
L 1159 3500 
L 1159 2956 
Q 1366 3272 1645 3428 
Q 1925 3584 2291 3584 
Q 2894 3584 3203 3211 
Q 3513 2838 3513 2113 
z
" transform="scale(0.015625)"/>
      <path id="DejaVuSans-3a" d="M 750 794 
L 1409 794 
L 1409 0 
L 750 0 
L 750 794 
z
M 750 3309 
L 1409 3309 
L 1409 2516 
L 750 2516 
L 750 3309 
z
" transform="scale(0.015625)"/>
      <path id="DejaVuSans-28" d="M 1984 4856 
Q 1566 4138 1362 3434 
Q 1159 2731 1159 2009 
Q 1159 1288 1364 580 
Q 1569 -128 1984 -844 
L 1484 -844 
Q 1016 -109 783 600 
Q 550 1309 550 2009 
Q 550 2706 781 3412 
Q 1013 4119 1484 4856 
L 1984 4856 
z
" transform="scale(0.015625)"/>
      <path id="DejaVuSans-2013" d="M 313 1978 
L 2888 1978 
L 2888 1528 
L 313 1528 
L 313 1978 
z
" transform="scale(0.015625)"/>
      <path id="DejaVuSans-2c" d="M 750 794 
L 1409 794 
L 1409 256 
L 897 -744 
L 494 -744 
L 750 256 
L 750 794 
z
" transform="scale(0.015625)"/>
      <path id="DejaVuSans-29" d="M 513 4856 
L 1013 4856 
Q 1481 4119 1714 3412 
Q 1947 2706 1947 2009 
Q 1947 1309 1714 600 
Q 1481 -109 1013 -844 
L 513 -844 
Q 928 -128 1133 580 
Q 1338 1288 1338 2009 
Q 1338 2731 1133 3434 
Q 928 4138 513 4856 
z
" transform="scale(0.015625)"/>
      <path id="DejaVuSans-2014" d="M 313 1978 
L 6088 1978 
L 6088 1528 
L 313 1528 
L 313 1978 
z
" transform="scale(0.015625)"/>
      <path id="DejaVuSans-3d" d="M 678 2906 
L 4684 2906 
L 4684 2381 
L 678 2381 
L 678 2906 
z
M 678 1631 
L 4684 1631 
L 4684 1100 
L 678 1100 
L 678 1631 
z
" transform="scale(0.015625)"/>
     </defs>
     <use xlink:href="#DejaVuSans-55"/>
     <use xlink:href="#DejaVuSans-6a" transform="translate(73.193359 0)"/>
     <use xlink:href="#DejaVuSans-69" transform="translate(100.976562 0)"/>
     <use xlink:href="#DejaVuSans-20" transform="translate(128.759766 0)"/>
     <use xlink:href="#DejaVuSans-6f" transform="translate(160.546875 0)"/>
     <use xlink:href="#DejaVuSans-76" transform="translate(221.728516 0)"/>
     <use xlink:href="#DejaVuSans-65" transform="translate(280.908203 0)"/>
     <use xlink:href="#DejaVuSans-72" transform="translate(342.431641 0)"/>
     <use xlink:href="#DejaVuSans-2d" transform="translate(377.169922 0)"/>
     <use xlink:href="#DejaVuSans-66" transform="translate(413.253906 0)"/>
     <use xlink:href="#DejaVuSans-65" transform="translate(448.458984 0)"/>
     <use xlink:href="#DejaVuSans-74" transform="translate(509.982422 0)"/>
     <use xlink:href="#DejaVuSans-63" transform="translate(549.191406 0)"/>
     <use xlink:href="#DejaVuSans-68" transform="translate(604.171875 0)"/>
     <use xlink:href="#DejaVuSans-69" transform="translate(667.550781 0)"/>
     <use xlink:href="#DejaVuSans-6e" transform="translate(695.333984 0)"/>
     <use xlink:href="#DejaVuSans-67" transform="translate(758.712891 0)"/>
     <use xlink:href="#DejaVuSans-3a" transform="translate(822.189453 0)"/>
     <use xlink:href="#DejaVuSans-20" transform="translate(855.880859 0)"/>
     <use xlink:href="#DejaVuSans-70" transform="translate(887.667969 0)"/>
     <use xlink:href="#DejaVuSans-61" transform="translate(951.144531 0)"/>
     <use xlink:href="#DejaVuSans-79" transform="translate(1012.423828 0)"/>
     <use xlink:href="#DejaVuSans-6c" transform="translate(1071.603516 0)"/>
     <use xlink:href="#DejaVuSans-6f" transform="translate(1099.386719 0)"/>
     <use xlink:href="#DejaVuSans-61" transform="translate(1160.568359 0)"/>
     <use xlink:href="#DejaVuSans-64" transform="translate(1221.847656 0)"/>
     <use xlink:href="#DejaVuSans-20" transform="translate(1285.324219 0)"/>
     <use xlink:href="#DejaVuSans-47" transform="translate(1317.111328 0)"/>
     <use xlink:href="#DejaVuSans-72" transform="translate(1394.601562 0)"/>
     <use xlink:href="#DejaVuSans-61" transform="translate(1435.714844 0)"/>
     <use xlink:href="#DejaVuSans-70" transform="translate(1496.994141 0)"/>
     <use xlink:href="#DejaVuSans-68" transform="translate(1560.470703 0)"/>
     <use xlink:href="#DejaVuSans-51" transform="translate(1623.849609 0)"/>
     <use xlink:href="#DejaVuSans-4c" transform="translate(1702.560547 0)"/>
     <use xlink:href="#DejaVuSans-20" transform="translate(1758.273438 0)"/>
     <use xlink:href="#DejaVuSans-72" transform="translate(1790.060547 0)"/>
     <use xlink:href="#DejaVuSans-65" transform="translate(1828.923828 0)"/>
     <use xlink:href="#DejaVuSans-6c" transform="translate(1890.447266 0)"/>
     <use xlink:href="#DejaVuSans-61" transform="translate(1918.230469 0)"/>
     <use xlink:href="#DejaVuSans-74" transform="translate(1979.509766 0)"/>
     <use xlink:href="#DejaVuSans-69" transform="translate(2018.71875 0)"/>
     <use xlink:href="#DejaVuSans-66" transform="translate(2046.501953 0)"/>
     <use xlink:href="#DejaVuSans-20" transform="translate(2081.707031 0)"/>
     <use xlink:href="#DejaVuSans-52" transform="translate(2113.494141 0)"/>
     <use xlink:href="#DejaVuSans-45" transform="translate(2182.976562 0)"/>
     <use xlink:href="#DejaVuSans-53" transform="translate(2246.160156 0)"/>
     <use xlink:href="#DejaVuSans-54" transform="translate(2309.636719 0)"/>
     <use xlink:href="#DejaVuSans-20" transform="translate(2370.720703 0)"/>
     <use xlink:href="#DejaVuSans-28" transform="translate(2402.507812 0)"/>
     <use xlink:href="#DejaVuSans-4d" transform="translate(2441.521484 0)"/>
     <use xlink:href="#DejaVuSans-31" transform="translate(2527.800781 0)"/>
     <use xlink:href="#DejaVuSans-2013" transform="translate(2591.423828 0)"/>
     <use xlink:href="#DejaVuSans-4d" transform="translate(2641.423828 0)"/>
     <use xlink:href="#DejaVuSans-34" transform="translate(2727.703125 0)"/>
     <use xlink:href="#DejaVuSans-2c" transform="translate(2791.326172 0)"/>
     <use xlink:href="#DejaVuSans-20" transform="translate(2823.113281 0)"/>
     <use xlink:href="#DejaVuSans-72" transform="translate(2854.900391 0)"/>
     <use xlink:href="#DejaVuSans-34" transform="translate(2896.013672 0)"/>
     <use xlink:href="#DejaVuSans-30" transform="translate(2959.636719 0)"/>
     <use xlink:href="#DejaVuSans-29" transform="translate(3023.259766 0)"/>
     <use xlink:href="#DejaVuSans-20" transform="translate(3062.273438 0)"/>
     <use xlink:href="#DejaVuSans-2014" transform="translate(3094.060547 0)"/>
     <use xlink:href="#DejaVuSans-20" transform="translate(3194.060547 0)"/>
     <use xlink:href="#DejaVuSans-67" transform="translate(3225.847656 0)"/>
     <use xlink:href="#DejaVuSans-61" transform="translate(3289.324219 0)"/>
     <use xlink:href="#DejaVuSans-72" transform="translate(3350.603516 0)"/>
     <use xlink:href="#DejaVuSans-69" transform="translate(3391.716797 0)"/>
     <use xlink:href="#DejaVuSans-73" transform="translate(3419.5 0)"/>
     <use xlink:href="#DejaVuSans-3d" transform="translate(3471.599609 0)"/>
     <use xlink:href="#DejaVuSans-70" transform="translate(3555.388672 0)"/>
     <use xlink:href="#DejaVuSans-61" transform="translate(3618.865234 0)"/>
     <use xlink:href="#DejaVuSans-72" transform="translate(3680.144531 0)"/>
     <use xlink:href="#DejaVuSans-69" transform="translate(3721.257812 0)"/>
     <use xlink:href="#DejaVuSans-74" transform="translate(3749.041016 0)"/>
     <use xlink:href="#DejaVuSans-61" transform="translate(3788.25 0)"/>
     <use xlink:href="#DejaVuSans-73" transform="translate(3849.529297 0)"/>
    </g>
   </g>
  </g>
 </g>
 <defs>
  <clipPath id="pc8a1a6c761">
   <rect x="50.14375" y="22.318125" width="655.09" height="179.963692"/>
  </clipPath>
 </defs>
</svg>
